<?xml version="1.0" standalone="no"?>
<!DOCTYPE svg PUBLIC "-//W3C//DTD SVG 1.1//EN" "http://www.w3.org/Graphics/SVG/1.1/DTD/svg11.dtd" >
<svg>
<metadata>
Created by FontForge 20090914 at Wed Aug 19 13:42:17 2015
 By www-data
Copyright 2014 Indian Type Foundry. All rights reserved.
</metadata>
<defs>
<font id="Hind-Regular" horiz-adv-x="0" >
  <font-face 
    font-family="Hind Regular"
    font-weight="400"
    font-stretch="normal"
    units-per-em="1000"
    panose-1="2 0 0 0 0 0 0 0 0 0"
    ascent="800"
    descent="-200"
    x-height="507"
    cap-height="674"
    bbox="-585 -472 2147 1003"
    underline-thickness="50"
    underline-position="-50"
    unicode-range="U+000D-U+FB04"
  />
<missing-glyph horiz-adv-x="512" 
d="M253 302h-4l-100 -209h-60l134 260l-134 255h60l105 -206h4l100 206h60l-135 -261l135 -254h-60zM53 651v-601h400v601h-400zM1 0v701h504v-701h-504z" />
    <glyph glyph-name=".notdef" horiz-adv-x="512" 
d="M253 302h-4l-100 -209h-60l134 260l-134 255h60l105 -206h4l100 206h60l-135 -261l135 -254h-60zM53 651v-601h400v601h-400zM1 0v701h504v-701h-504z" />
    <glyph glyph-name="NULL" 
 />
    <glyph glyph-name="NULL" 
 />
    <glyph glyph-name="CR" unicode="&#xd;" 
 />
    <glyph glyph-name="space" unicode=" " horiz-adv-x="244" 
 />
    <glyph glyph-name="exclam" unicode="!" horiz-adv-x="251" 
d="M81.5 9c-11 11.333 -16.502 25.166 -16.502 41.499s5.66699 30.333 17 42s25.333 17.5 42 17.5s30.834 -5.83301 42.501 -17.5s17.5 -25.667 17.5 -42s-5.66699 -30.166 -17 -41.499s-25.666 -17 -42.999 -17s-31.5 5.66699 -42.5 17zM86.998 204v470h77v-470h-77z" />
    <glyph glyph-name="quotedbl" unicode="&#x22;" horiz-adv-x="295" 
d="M181 444v237h70v-237h-70zM44 444v237h71v-237h-71z" />
    <glyph glyph-name="numbersign" unicode="#" horiz-adv-x="710" 
d="M657 439h-116l-43 -206h107v-63h-120l-36 -170h-73l36 170h-179l-36 -170h-71l36 170h-109v63h122l43 206h-111v64h125l36 171h72l-36 -171h179l36 171h71l-36 -171h103v-64zM425 233l44 206h-179l-44 -206h179z" />
    <glyph glyph-name="dollar" unicode="$" horiz-adv-x="505" 
d="M417 564c-40.667 26.667 -85.1641 40 -133.497 40s-84.5 -9.5 -108.5 -28.5s-36 -43.833 -36 -74.5c0 -16.667 3.16699 -31.167 9.5 -43.5s18.166 -24.166 35.499 -35.499c23.333 -15.333 45.833 -27.833 67.5 -37.5l53.5 -24c14 -6.33301 29 -14 45 -23
s33 -20.833 51 -35.5c35.333 -28.667 53 -70 53 -124s-17.5 -97 -52.5 -129s-80.833 -50.333 -137.5 -55v-103h-69v104c-54.667 5.33301 -101 19 -139 41v87c48.667 -36.667 108 -55 178 -55c42 0 75.167 9.5 99.5 28.5s36.5 45.833 36.5 80.5
c0 16 -3.16699 30.167 -9.5 42.5s-18 24.166 -35 35.499s-30.333 19.5 -40 24.5s-23.334 11.167 -41.001 18.5l-47.5 20.5c-14 6.33301 -28.833 14 -44.5 23s-31.834 20.833 -48.501 35.5c-34 29.333 -51 70 -51 122s18.167 94 54.5 126s82.5 50 138.5 54v104h69v-106
c39.333 -4.66699 73.333 -14 102 -28v-85z" />
    <glyph glyph-name="percent" unicode="%" horiz-adv-x="847" 
d="M550 151c0 -24.667 8.83105 -45.667 26.498 -63s38.834 -26 63.501 -26s45.834 8.66699 63.501 26s26.5 38.333 26.5 63s-8.66699 45.834 -26 63.501s-38.5 26.5 -63.5 26.5s-46.333 -8.83301 -64 -26.5s-26.5 -38.834 -26.5 -63.501zM117.998 515
c0 -24.667 8.66699 -45.834 26 -63.501s38.333 -26.5 63 -26.5s45.834 8.83301 63.501 26.5s26.5 38.834 26.5 63.501s-8.83301 45.667 -26.5 63s-38.834 26 -63.501 26s-45.667 -8.66699 -63 -26s-26 -38.333 -26 -63zM95.498 402.5c-31 31 -46.5 68.333 -46.5 112
s15.5 81 46.5 112s68.167 46.5 111.5 46.5s80.666 -15.5 111.999 -46.5s47 -68.333 47 -112s-15.667 -81 -47 -112s-68.666 -46.5 -111.999 -46.5s-80.5 15.5 -111.5 46.5zM527.998 39.5c-30.667 31 -46 68.332 -46 111.999s15.333 81 46 112s67.834 46.5 111.501 46.5
s81 -15.667 112 -47s46.5 -68.666 46.5 -111.999s-15.5 -80.5 -46.5 -111.5s-68.333 -46.5 -112 -46.5s-80.834 15.5 -111.501 46.5zM205.998 -1.00098l357 666h77l-359 -666h-75z" />
    <glyph glyph-name="ampersand" unicode="&#x26;" horiz-adv-x="703" 
d="M526 63c-54 -47.333 -121.17 -70.998 -201.503 -70.998s-143.666 17.167 -189.999 51.5s-69.5 78.5 -69.5 132.5c0 75.333 52.667 133 158 173c-31.333 34 -54.333 64.167 -69 90.5s-22 54.166 -22 83.499c0 50 17 90.333 51 121s79.333 46 136 46
s102.334 -16.5 137.001 -49.5s52 -74.167 52 -123.5c0 -38 -12.167 -72.333 -36.5 -103s-65.166 -59.334 -122.499 -86.001l169 -158c16 29.333 25.333 62 28 98h76c-4 -57.333 -20 -107.333 -48 -150l127 -118h-107zM398.997 588.502
c-18.667 19.667 -44.332 29.499 -76.999 29.499s-58.834 -8.5 -78.501 -25.5s-29.5 -38.333 -29.5 -64s6.16699 -49 18.5 -70s34.5 -47.833 66.5 -80.5c44.667 20.667 77.167 41.834 97.5 63.501s30.5 46.667 30.5 75s-9.33301 52.333 -28 72zM470.999 115.001
l-197.999 183.998c-42.667 -16 -74.334 -33.667 -95.001 -53s-31 -44.166 -31 -74.499s15.667 -55.666 47 -75.999s75 -30.5 131 -30.5s104.667 16.667 146 50z" />
    <glyph glyph-name="quotesingle" unicode="'" horiz-adv-x="159" 
d="M44 444v237h71v-237h-71z" />
    <glyph glyph-name="parenleft" unicode="(" horiz-adv-x="310" 
d="M72 261c0 81.333 13.668 160.667 41.001 238s64.666 146.666 111.999 207.999h87c-104.667 -141.333 -157 -291.666 -157 -450.999s55 -310 165 -452h-88c-106.667 136 -160 288.333 -160 457z" />
    <glyph glyph-name="parenright" unicode=")" horiz-adv-x="310" 
d="M239 261c0 -168 -53.666 -320.335 -160.999 -457.002h-88c110 142 165 293 165 453s-52.333 310 -157 450h88c47.333 -61.333 84.666 -130.666 111.999 -207.999s41 -156.666 41 -237.999z" />
    <glyph glyph-name="asterisk" unicode="*" horiz-adv-x="408" 
d="M250 488l-7.00293 0.000976562c12.667 -6.66699 23.334 -16.667 32.001 -30l56 -78l-51 -38l-57 78c-9.33301 13.333 -15.666 26.333 -18.999 39c-3.33301 -13.333 -9.66602 -26.666 -18.999 -39.999l-57 -77l-52 37l57 79c10.667 14 21 23.667 31 29h-8
c-12.667 0 -24.667 2 -36 6l-91 30l19 62l93 -30c14 -4.66699 27 -12.334 39 -23.001c-6 13.333 -9 28.666 -9 45.999v96h64v-96c0 -17.333 -2.66699 -32 -8 -44c10 10 23 17.333 39 22l92 29l20 -61l-92 -30c-10.667 -4 -22.667 -6 -36 -6z" />
    <glyph glyph-name="plus" unicode="+" horiz-adv-x="553" 
d="M497 376v-72h-187v-189h-74v189h-179v72h179v189h74v-189h187z" />
    <glyph glyph-name="comma" unicode="," horiz-adv-x="225" 
d="M-8 -123l93 224h105l-129 -224h-69z" />
    <glyph glyph-name="hyphen" unicode="-" horiz-adv-x="348" 
d="M57 234v69h234v-69h-234z" />
    <glyph glyph-name="period" unicode="." horiz-adv-x="166" 
d="M24 51c0 16.667 5.66699 30.667 17 42s25.333 17 42 17s30.667 -5.66699 42 -17s17 -25.333 17 -42s-5.66699 -30.667 -17 -42s-25.333 -17 -42 -17s-30.667 5.66699 -42 17s-17 25.333 -17 42z" />
    <glyph glyph-name="slash" unicode="/" horiz-adv-x="403" 
d="M-9 -102l364 809h81l-365 -809h-80z" />
    <glyph glyph-name="zero" unicode="0" horiz-adv-x="544" 
d="M124 329c0 -82 14.001 -146.167 42.001 -192.5s63.833 -69.5 107.5 -69.5s79 22.667 106 68s40.5 109.833 40.5 193.5s-14.167 147.667 -42.5 192s-63.333 66.5 -105 66.5s-76.834 -22.5 -105.501 -67.5s-43 -108.5 -43 -190.5zM105.001 84
c-41.333 61.333 -62.001 143.166 -62.001 245.499s20.833 183.333 62.5 243s97.167 89.5 166.5 89.5s124.833 -29.833 166.5 -89.5s62.5 -140.667 62.5 -243s-20 -184.166 -60 -245.499s-95.667 -92 -167 -92s-127.666 30.667 -168.999 92z" />
    <glyph glyph-name="one" unicode="1" horiz-adv-x="323" 
d="M247 654v-654h-78v568l-151 -93v85l155 94h74z" />
    <glyph glyph-name="two" unicode="2" horiz-adv-x="494" 
d="M451 69v-68.999h-413v67c206.667 156 310 286 310 390c0 41.333 -12 73.166 -36 95.499s-56.333 33.5 -97 33.5c-52.667 0 -104.667 -19.667 -156 -59v79c47.333 36.667 101 55 161 55s110 -17 150 -51s60 -82.333 60 -145c0 -118 -94.333 -250 -283 -396h304z" />
    <glyph glyph-name="three" unicode="3" horiz-adv-x="466" 
d="M58 624c38.667 24.667 86.832 36.998 144.499 36.998s104.334 -16.5 140.001 -49.5s53.5 -73.833 53.5 -122.5c0 -35.333 -8.83301 -67 -26.5 -95s-43.834 -49 -78.501 -63c38 -8.66699 68.167 -26.167 90.5 -52.5s33.5 -59.166 33.5 -98.499
c0 -53.333 -18.667 -97.666 -56 -132.999s-88.666 -53 -153.999 -53s-121 11 -167 33v79c49.333 -26 99.166 -39 149.499 -39s87.333 11 111 33s35.5 50.667 35.5 86s-13.167 62.5 -39.5 81.5s-64.166 28.5 -113.499 28.5h-42v69h42c37.333 0 68.833 10.5 94.5 31.5
s38.5 49.167 38.5 84.5s-11 62 -33 80s-54.167 27 -96.5 27s-84.5 -13.667 -126.5 -41v77z" />
    <glyph glyph-name="four" unicode="4" horiz-adv-x="540" 
d="M516 228v-69h-97v-159h-78v159h-299v69l249 426h128v-426h97zM341 228v379l-219 -379h219z" />
    <glyph glyph-name="five" unicode="5" horiz-adv-x="509" 
d="M169 585l-0.000976562 -196c30 6.66699 56 10 78 10c66.667 0 119.5 -17.667 158.5 -53s58.5 -84 58.5 -146s-21.167 -112.167 -63.5 -150.5s-98.333 -57.5 -168 -57.5s-127.5 11.333 -173.5 34v78c42.667 -25.333 94.334 -38 155.001 -38c112 0 168 47 168 141
c0 38 -13 67.5 -39 88.5s-61.5 31.5 -106.5 31.5s-93.5 -11.667 -145.5 -35v362h328v-69h-250z" />
    <glyph glyph-name="six" unicode="6" horiz-adv-x="526" 
d="M353 600c-62.667 0 -112.665 -23.5 -149.998 -70.5s-60.333 -106.167 -69 -177.5c44 46 97.167 69 159.5 69s110.666 -19 144.999 -57s51.5 -89.333 51.5 -154s-18.833 -117.667 -56.5 -159s-87.5 -62 -149.5 -62c-74.667 0 -132 28.333 -172 85s-60 130.667 -60 222
c0 108.667 26.667 198.667 80 270s126.666 107 219.999 107c30 0 60.667 -5 92 -15v-77c-28.667 12.667 -59 19 -91 19zM176.502 116.5c27.667 -36.333 61.999 -54.5 102.999 -54.5s72.667 14 95 42s33.5 63.667 33.5 107s-11.167 77.333 -33.5 102s-51.5 37 -87.5 37
c-60 0 -112 -24.333 -156 -73c2.66699 -70.667 17.834 -124.167 45.501 -160.5z" />
    <glyph glyph-name="seven" unicode="7" horiz-adv-x="451" 
d="M12 654h427v-69l-271 -585h-84l271 585h-343v69z" />
    <glyph glyph-name="eight" unicode="8" horiz-adv-x="536" 
d="M485 170c0 -54 -20.999 -97.166 -62.999 -129.499s-94 -48.5 -156 -48.5s-113.333 15.667 -154 47s-61 73.333 -61 126c0 39.333 10.5 72.833 31.5 100.5s49.833 47.834 86.5 60.501c-71.333 27.333 -107 77.666 -107 150.999c0 58 20 103.167 60 135.5
s87.833 48.5 143.5 48.5s103.5 -15.833 143.5 -47.5s60 -77.5 60 -137.5c0 -34 -9.33301 -63.833 -28 -89.5s-44.334 -45.167 -77.001 -58.5c80.667 -24.667 121 -77.334 121 -158.001zM357.001 559.001c-21.333 21.333 -51.5 32.002 -90.5 32.002s-69.5 -11 -91.5 -33
s-33 -50.333 -33 -85s11.833 -61.667 35.5 -81s53.5 -29 89.5 -29s65.333 10.167 88 30.5s34 47.666 34 81.999s-10.667 62.166 -32 83.499zM166.001 92.5029c23.333 -20.333 56.8311 -30.501 100.498 -30.501s77.5 11 101.5 33s36 49.167 36 81.5s-11.667 59.5 -35 81.5
s-57.666 32.667 -102.999 32s-79.166 -12.5 -101.499 -35.5s-33.5 -50.667 -33.5 -83s11.667 -58.666 35 -78.999z" />
    <glyph glyph-name="nine" unicode="9" horiz-adv-x="504" 
d="M174 66c120.667 0 189.333 75.668 206 227.001c-33.333 -39.333 -82.666 -59 -147.999 -59c-53.333 0 -99.333 19.5 -138 58.5s-58 90 -58 153s18.333 114.833 55 155.5s86.667 61 150 61c73.333 0 128.5 -27.333 165.5 -82s55.5 -123.667 55.5 -207
c0 -118.667 -23.833 -211.834 -71.5 -279.501s-118.834 -101.5 -213.501 -101.5c-38.667 0 -76.334 6.33301 -113.001 19v78c34.667 -15.333 71.334 -23 110.001 -23zM383.999 373.001c0 63.333 -11.168 115.167 -33.501 155.5s-58.166 60.5 -107.499 60.5
c-38 0 -68.333 -12.667 -91 -38s-34 -60.5 -34 -105.5s12 -79.833 36 -104.5s56.667 -37 98 -37c54.667 0 98.667 21.333 132 64v5z" />
    <glyph glyph-name="colon" unicode=":" horiz-adv-x="235" 
d="M59 57c0 16.667 5.5 30.667 16.5 42s24.833 17 41.5 17s30.667 -5.66699 42 -17s17 -25.333 17 -42s-5.66699 -30.5 -17 -41.5s-25.333 -16.5 -42 -16.5s-30.5 5.5 -41.5 16.5s-16.5 24.833 -16.5 41.5zM75.5 338.5c-11 11 -16.5 24.667 -16.5 41s5.5 30.166 16.5 41.499
s24.833 17 41.5 17s30.667 -5.66699 42 -17s17 -25.166 17 -41.499s-5.66699 -30 -17 -41s-25.333 -16.5 -42 -16.5s-30.5 5.5 -41.5 16.5z" />
    <glyph glyph-name="semicolon" unicode=";" horiz-adv-x="225" 
d="M-8 -123l93 224h105l-129 -224h-69zM86.5 337.5c-11 11 -16.5 24.667 -16.5 41s5.5 30.166 16.5 41.499s24.833 17 41.5 17s30.667 -5.66699 42 -17s17 -25.166 17 -41.499s-5.66699 -30 -17 -41s-25.333 -16.5 -42 -16.5s-30.5 5.5 -41.5 16.5z" />
    <glyph glyph-name="less" unicode="&#x3c;" horiz-adv-x="527" 
d="M57 303v76.001l421 188v-81c-176 -72.667 -288.667 -120.667 -338 -144c45.333 -22.667 158 -71.334 338 -146.001v-82z" />
    <glyph glyph-name="equal" unicode="=" horiz-adv-x="553" 
d="M57 205v69h440v-69h-440zM57 407v68h440v-68h-440z" />
    <glyph glyph-name="greater" unicode="&#x3e;" horiz-adv-x="527" 
d="M470 379v-76l-421 -189v82c174.667 72 287 120.667 337 146c-48 23.333 -160.333 71.333 -337 144v81z" />
    <glyph glyph-name="question" unicode="?" horiz-adv-x="452" 
d="M135.5 9c-11 11.333 -16.499 25.166 -16.499 41.499s5.66699 30.333 17 42s25.166 17.5 41.499 17.5s30.5 -5.83301 42.5 -17.5s18 -25.667 18 -42s-5.83301 -30.166 -17.5 -41.499s-26 -17 -43 -17s-31 5.66699 -42 17zM205.001 682
c63.333 0 114.002 -16.167 152.002 -48.5s57 -77 57 -134s-19.667 -101.167 -59 -132.5s-85 -49.333 -137 -54l-1 -109h-76l-1 166c61.333 0 108.666 10.5 141.999 31.5s50 50.5 50 88.5s-11 67.667 -33 89s-56.667 32 -104 32s-97.333 -16.667 -150 -50v80
c43.333 27.333 96.666 41 159.999 41z" />
    <glyph glyph-name="at" unicode="@" horiz-adv-x="905" 
d="M568 351c0 7.33301 1.33301 27.0029 4 59.0029h66l-15 -138c-2.66699 -35.333 -4 -64 -4 -86c0 -67.333 22 -101 66 -101c29.333 0 53.833 16.167 73.5 48.5s29.5 74.166 29.5 125.499c0 90.667 -28.167 161.167 -84.5 211.5s-130.166 75.5 -221.499 75.5
s-171.833 -33.5 -241.5 -100.5s-104.5 -149 -104.5 -246s27.167 -171.167 81.5 -222.5s117.666 -77 189.999 -77s134.5 14.333 186.5 43l-4 -77c-44.667 -22.667 -103.334 -34 -176.001 -34c-108.667 0 -194.834 34.167 -258.501 102.5s-95.5 155.5 -95.5 261.5
c0 119.333 42 218.666 126 297.999s185.667 119 305 119c102.667 0 189.5 -32 260.5 -96s106.5 -148.333 106.5 -253c0 -76.667 -18 -136.334 -54 -179.001s-77 -64 -123 -64c-61.333 0 -100.333 28.667 -117 86c-35.333 -59.333 -84.666 -89 -147.999 -89
c-49.333 0 -88.166 17.5 -116.499 52.5s-42.5 80.667 -42.5 137s18.5 105 55.5 146s82.5 61.5 136.5 61.5s93.667 -21.333 119 -64zM359 114.503c18 -21 40.833 -31.501 68.5 -31.501s53.334 9.33301 77.001 28s40.834 44.667 51.501 78
c1.33301 24 2.66602 42.333 3.99902 55c-10.667 70 -46.667 105 -108 105c-34.667 0 -63.334 -14.667 -86.001 -44s-34 -63.166 -34 -101.499s9 -68 27 -89z" />
    <glyph glyph-name="A" unicode="A" horiz-adv-x="648" 
d="M526 0l-59 177h-285l-60 -177h-87l235 674h112l231 -674h-87zM205 246h238.999l-118 363c-9.33301 -34 -49.666 -155 -120.999 -363z" />
    <glyph glyph-name="B" unicode="B" horiz-adv-x="571" 
d="M77 674h203.001c69.333 0 124.833 -16 166.5 -48s62.5 -75 62.5 -129c0 -38.667 -10.833 -72.167 -32.5 -100.5s-49.5 -46.166 -83.5 -53.499c37.333 -6 69.166 -22.833 95.499 -50.5s39.5 -66.834 39.5 -117.501s-17.833 -92.5 -53.5 -125.5s-86.167 -49.5 -151.5 -49.5
h-246v674zM158.001 605v-230.001h108c54 0 94 11.333 120 34s39 50.834 39 84.501s-12.167 60.667 -36.5 81s-60.5 30.5 -108.5 30.5h-122zM158.001 68.999h153c42.667 0 75.5 9.83301 98.5 29.5s34.5 48.5 34.5 86.5s-12.833 67.667 -38.5 89s-62.167 32 -109.5 32h-138
v-237z" />
    <glyph glyph-name="C" unicode="C" horiz-adv-x="602" 
d="M387 607c-72.667 0 -133.168 -24.666 -181.501 -73.999s-72.5 -114.5 -72.5 -195.5s24 -146.167 72 -195.5s111.667 -74 191 -74c64 0 118.667 17 164 51v-85c-41.333 -28 -98 -42 -170 -42c-101.333 0 -183.666 31.167 -246.999 93.5s-95 145.666 -95 249.999
s32.167 188.333 96.5 252s145.166 95.5 242.499 95.5c70 0 127 -12 171 -36v-83c-29.333 15.333 -55.666 26.333 -78.999 33s-54 10 -92 10z" />
    <glyph glyph-name="D" unicode="D" horiz-adv-x="661" 
d="M77 674l200 0.000976562c99.333 0 180.833 -30.833 244.5 -92.5s95.5 -141.334 95.5 -239.001s-29.5 -179.167 -88.5 -244.5s-141.5 -98 -247.5 -98h-204v674zM159 71.001h121c83.333 0 146.333 25.833 189 77.5s64 115.167 64 190.5s-23.833 138 -71.5 188
s-109.5 75 -185.5 75h-117v-531z" />
    <glyph glyph-name="E" unicode="E" horiz-adv-x="501" 
d="M158 71h295v-71h-376v674h371v-71h-290v-231h256v-71h-256v-230z" />
    <glyph glyph-name="F" unicode="F" horiz-adv-x="489" 
d="M447 603h-289v-239h254v-71h-254v-293h-81v674h370v-71z" />
    <glyph glyph-name="G" unicode="G" horiz-adv-x="670" 
d="M603 378l0.000976562 -322.001h-1l1 -3c-54 -40.667 -123.667 -61 -209 -61c-104 0 -187.667 30.833 -251 92.5s-95 144.834 -95 249.501s31.5 189.5 94.5 254.5s142.5 97.5 238.5 97.5c79.333 0 145 -15.333 197 -46v-87c-54.667 36 -118.834 54 -192.501 54
s-134.167 -24.5 -181.5 -73.5s-71 -114.667 -71 -197s23.333 -147.333 70 -195s111 -71.5 193 -71.5c45.333 0 87.333 9 126 27v210h-148v71h229z" />
    <glyph glyph-name="H" unicode="H" horiz-adv-x="643" 
d="M485 674h81v-674h-81v305h-327v-305h-81v674h81v-296h327v296z" />
    <glyph glyph-name="I" unicode="I" horiz-adv-x="247" 
d="M83 0v674h81v-674h-81z" />
    <glyph glyph-name="J" unicode="J" horiz-adv-x="358" 
d="M114 74c58 0 87 30.667 87 92v508h81v-501c0 -115.333 -52.333 -173 -157 -173c-37.333 -0 -69 7.33301 -95 22v78c26.667 -17.333 54.667 -26 84 -26z" />
    <glyph glyph-name="K" unicode="K" horiz-adv-x="573" 
d="M274 333l271 -333h-105l-266 333l257 341h100zM77 0v674h81v-674h-81z" />
    <glyph glyph-name="L" unicode="L" horiz-adv-x="477" 
d="M158 73h287v-73h-368v674h81v-601z" />
    <glyph glyph-name="M" unicode="M" horiz-adv-x="857" 
d="M70 0l49 674h103l89 -246l108 -314l207 560h103l59 -674h-81l-47 565l-203 -550h-77l-191 544c0 -18 -12.667 -204.333 -38 -559h-81z" />
    <glyph glyph-name="N" unicode="N" horiz-adv-x="673" 
d="M77 0l0.000976562 674.001h102l169 -284l171 -292c-2.66699 64.667 -4 161.667 -4 291v285h81v-674h-102c-186.667 311.333 -300.334 503.666 -341.001 576.999c3.33301 -69.333 5 -167 5 -293v-284h-81z" />
    <glyph glyph-name="O" unicode="O" horiz-adv-x="700" 
d="M190.5 538.5c-38.333 -48.333 -57.501 -114.332 -57.501 -197.999s19.833 -149.834 59.5 -198.501s93.167 -73 160.5 -73s119.833 24 157.5 72s56.5 114.333 56.5 199s-19 151 -57 199s-91.167 72 -159.5 72s-121.666 -24.167 -159.999 -72.5zM130.999 87.001
c-55.333 63.333 -83.001 147.831 -83.001 253.498s27.167 189.834 81.5 252.501s128.333 94 222 94s167.334 -31.167 221.001 -93.5s80.5 -146.666 80.5 -252.999s-27.167 -191 -81.5 -254s-127.5 -94.5 -219.5 -94.5s-165.667 31.667 -221 95z" />
    <glyph glyph-name="P" unicode="P" horiz-adv-x="545" 
d="M77 674h177c78 0 139.5 -20.167 184.5 -60.5s67.5 -91.5 67.5 -153.5s-22.333 -112.833 -67 -152.5s-103.667 -59.5 -177 -59.5h-104v-248h-81v674zM158 317l109 -0.00195312c48.667 0.666992 87 14.334 115 41.001s42 60.834 42 102.501s-14.5 76 -43.5 103
s-69.5 40.833 -121.5 41.5h-101v-288z" />
    <glyph glyph-name="Q" unicode="Q" horiz-adv-x="709" 
d="M351 -8c-91.333 0 -164.668 31.666 -220.001 94.999s-83 147.833 -83 253.5s27.167 189.834 81.5 252.501s128.333 94 222 94s167.334 -31.167 221.001 -93.5s80.5 -146.833 80.5 -253.5c0 -77.333 -14.833 -143.833 -44.5 -199.5s-71.5 -96.167 -125.5 -121.5l200 -124
l-88 -37l-200 137c-14 -2 -28.667 -3 -44 -3zM190.498 538.499c-38.333 -48.333 -57.501 -114.332 -57.501 -197.999s19.833 -149.834 59.5 -198.501s93.167 -73 160.5 -73s119.833 24 157.5 72s56.5 114.333 56.5 199s-19 151 -57 199s-91.167 72 -159.5 72
s-121.666 -24.167 -159.999 -72.5z" />
    <glyph glyph-name="R" unicode="R" horiz-adv-x="548" 
d="M263 266l-105.001 0.00195312v-266h-81v674h169c78 0 137.167 -18.333 177.5 -55s60.5 -87.334 60.5 -152.001c-1.33301 -46.667 -13.666 -86.334 -36.999 -119.001s-56.333 -55.667 -99 -69l177 -279h-97zM157.999 604.002v-269h102c46 0 81.167 12.5 105.5 37.5
s36.5 57.167 36.5 96.5c0 90 -50.333 135 -151 135h-93z" />
    <glyph glyph-name="S" unicode="S" horiz-adv-x="524" 
d="M430 564c-40.667 26.667 -85.334 39.998 -134.001 39.998s-85 -9.5 -109 -28.5s-36 -43.833 -36 -74.5c0 -32.667 14.333 -59 43 -79c21.333 -14 48 -28.167 80 -42.5l66 -30c12 -5.66699 27.5 -14.667 46.5 -27s33.5 -24.5 43.5 -36.5c24.667 -30 37 -65.667 37 -107
c0 -59.333 -20.333 -105.166 -61 -137.499s-94.667 -48.5 -162 -48.5s-125.666 14.333 -174.999 43v87c48.667 -36.667 108 -55 178 -55c42 0 75 9.33301 99 28s36 45.667 36 81c0 29.333 -12 53 -36 71c-26.667 20 -57.667 37.5 -93 52.5s-60.5 26.5 -75.5 34.5
s-32.833 19.667 -53.5 35c-38.667 30.667 -58 73.834 -58 129.501s20.5 99.667 61.5 132s91.5 48.5 151.5 48.5s110.333 -10.333 151 -31v-85z" />
    <glyph glyph-name="T" unicode="T" horiz-adv-x="482" 
d="M463 674v-71h-182v-603h-81v603h-182v71h445z" />
    <glyph glyph-name="U" unicode="U" horiz-adv-x="645" 
d="M488 254l-0.000976562 420.001h81v-418c0 -86.667 -21.833 -152.334 -65.5 -197.001s-104.167 -67 -181.5 -67s-137.666 21.833 -180.999 65.5s-65 107.167 -65 190.5v426h81v-425c0 -62 14.833 -107.667 44.5 -137s69.5 -44 119.5 -44c111.333 0 167 62 167 186z" />
    <glyph glyph-name="V" unicode="V" horiz-adv-x="637" 
d="M601 674l-235 -674h-102l-228 674h87l88 -267l105 -334c34 110.667 100 311 198 601h87z" />
    <glyph glyph-name="W" unicode="W" horiz-adv-x="938" 
d="M432 664h81l74 -240l102 -342c25.333 120.667 69 318 131 592h82l-158 -674h-104l-166 550c-19.333 -74 -72.333 -257.333 -159 -550h-103l-176 674h85l63 -250l83 -339z" />
    <glyph glyph-name="X" unicode="X" horiz-adv-x="613" 
d="M303 271l-168 -271h-96l217 340l-205 334h95l155 -261l155 261h96l-204 -334l226 -340h-95z" />
    <glyph glyph-name="Y" unicode="Y" horiz-adv-x="593" 
d="M336 0l-80.999 0.000976562v250l-229 424h94c104.667 -202.667 163 -319.334 175 -350.001c3.33301 10 62.666 126.667 177.999 350h94l-231 -423v-251z" />
    <glyph glyph-name="Z" unicode="Z" horiz-adv-x="569" 
d="M502 674v-66l-356 -539h371v-69h-465v67l356 538h-351v69h445z" />
    <glyph glyph-name="bracketleft" unicode="[" horiz-adv-x="310" 
d="M307 637h-152v-748h152v-72h-230v890h230v-70z" />
    <glyph glyph-name="backslash" unicode="\" horiz-adv-x="402" 
d="M48 707l364 -810h-80l-365 810h81z" />
    <glyph glyph-name="bracketright" unicode="]" horiz-adv-x="310" 
d="M233 707v-890h-230v72h152v748h-152v70h230z" />
    <glyph glyph-name="asciicircum" unicode="^" horiz-adv-x="461" 
d="M416 332h-79l-105 208l-108 -208h-79l142 262h91z" />
    <glyph glyph-name="underscore" unicode="_" horiz-adv-x="561" 
d="M28 -100v69h505v-69h-505z" />
    <glyph glyph-name="grave" unicode="`" horiz-adv-x="421" 
d="M210 798l98 -156h-69l-124 156h95z" />
    <glyph glyph-name="a" unicode="a" horiz-adv-x="492" 
d="M234 515c127.333 0 191 -64.667 191 -194v-321h-78v60c-26 -43.333 -73.333 -65 -142 -65c-47.333 0 -85.5 14 -114.5 42s-43.5 64.833 -43.5 110.5s18.5 82 55.5 109s87.5 40.5 151.5 40.5h92v26c0 40 -9 70.167 -27 90.5s-51.167 30.5 -99.5 30.5
s-93.5 -14.333 -135.5 -43v79c38 23.333 88 35 150 35zM346 234l-88 0.000976562c-42.667 0 -74.667 -8.33301 -96 -25s-32 -37.667 -32 -63s8.33301 -45.833 25 -61.5s42 -23.5 76 -23.5s61.667 10.167 83 30.5s32 46.166 32 77.499v65z" />
    <glyph glyph-name="b" unicode="b" horiz-adv-x="570" 
d="M155 707v-276c36.667 56 87.5 84 152.5 84s117.833 -24.5 158.5 -73.5s61 -111.167 61 -186.5s-19.167 -138 -57.5 -188s-91.333 -75 -159 -75s-119.5 27.667 -155.5 83v-75h-79v707h79zM198.5 110c29 -30.667 64 -46 105 -46s74.833 17 101.5 51s40 80.333 40 139
s-13.833 104.834 -41.5 138.501s-61 50.5 -100 50.5s-73.5 -15 -103.5 -45s-45 -77.833 -45 -143.5s14.5 -113.834 43.5 -144.501z" />
    <glyph glyph-name="c" unicode="c" horiz-adv-x="471" 
d="M314 60c38.667 0 74.666 11 107.999 33v-75c-32 -19.333 -71.333 -29 -118 -29c-80 0 -143.5 25.5 -190.5 76.5s-70.5 112.833 -70.5 185.5s23.5 135 70.5 187s111.167 78 192.5 78c43.333 0 82 -9.33301 116 -28v-75c-30.667 20.667 -66.667 31 -108 31
c-57.333 0 -103.166 -18.5 -137.499 -55.5s-51.333 -82.833 -51 -137.5s16.833 -100.167 49.5 -136.5s79 -54.5 139 -54.5z" />
    <glyph glyph-name="d" unicode="d" horiz-adv-x="567" 
d="M415 707h79v-707h-79v75c-36 -55.333 -87.833 -83 -155.5 -83s-120.667 25 -159 75s-57.5 112.667 -57.5 188s20.333 137.5 61 186.5s93.5 73.5 158.5 73.5s115.833 -28.333 152.5 -85v277zM165 115c26.667 -34 60.5 -51 101.5 -51s76 15.333 105 46
s43.5 78.834 43.5 144.501s-15 113.5 -45 143.5s-64.5 45 -103.5 45s-72.333 -16.833 -100 -50.5s-41.5 -79.834 -41.5 -138.501s13.333 -105 40 -139z" />
    <glyph glyph-name="e" unicode="e" horiz-adv-x="522" 
d="M299 -5c-76.667 0 -138.5 23.501 -185.5 70.501s-70.5 110 -70.5 189s21 141.833 63 188.5s95.333 70 160 70s115.667 -20.333 153 -61s56 -98.334 56 -173.001c0 -21.333 -1.66699 -41 -5 -59h-346c6 -50 25 -88.333 57 -115s75.167 -40 129.5 -40s98.5 11.667 132.5 35
v-74c-39.333 -20.667 -87.333 -31 -144 -31zM396 286.001l0.000976562 20c0 42 -11.333 75.5 -34 100.5s-53.5 37.5 -92.5 37.5s-71.833 -13.667 -98.5 -41s-42.334 -66.333 -47.001 -117h272z" />
    <glyph glyph-name="f" unicode="f" horiz-adv-x="329" 
d="M315 635c-16 5.33301 -33 8.00098 -51 8.00098s-33.833 -7.33301 -47.5 -22s-20.5 -37.334 -20.5 -68.001v-46h112v-64h-112v-443h-79v443h-87v64h87v47c0 49.333 13.167 88.333 39.5 117s62.833 43 109.5 43c16 0 32.333 -2.33301 49 -7v-72z" />
    <glyph glyph-name="g" unicode="g" horiz-adv-x="549" 
d="M403 507l78.999 -0.00195312v-466c0 -77.333 -21.333 -135.5 -64 -174.5s-96.167 -58.5 -160.5 -58.5s-118.166 10.333 -161.499 31v79c42.667 -24.667 90.667 -37 144 -37c108.667 0 163 53.667 163 161v57c-33.333 -57.333 -81 -86 -143 -86s-113.5 21.333 -154.5 64
s-61.5 101.834 -61.5 177.501s19 137.834 57 186.501s89.667 73 155 73s114.333 -30.333 147 -91v84zM167.999 127.498c28 -29.667 60 -44.498 96 -44.498s68.167 14.167 96.5 42.5s42.5 72.666 42.5 132.999s-13.667 106.166 -41 137.499s-60.833 47 -100.5 47
s-72.167 -17.167 -97.5 -51.5s-38 -79.5 -38 -135.5s14 -98.833 42 -128.5z" />
    <glyph glyph-name="h" unicode="h" horiz-adv-x="540" 
d="M151 707l-0.000976562 -288c30 63.333 83.333 95 160 95c48.667 0 87.834 -15 117.501 -45s44.5 -70.667 44.5 -122v-347h-79v328c0 36.667 -9.5 65 -28.5 85s-45.5 30 -79.5 30s-65 -14.333 -93 -43s-42 -69.667 -42 -123v-277h-78v707h78z" />
    <glyph glyph-name="i" unicode="i" horiz-adv-x="233" 
d="M65 666c0 14.667 4.83301 27 14.5 37s21.834 15 36.501 15s27 -5 37 -15s15 -22.333 15 -37s-5 -26.834 -15 -36.501s-22.333 -14.5 -37 -14.5s-26.834 4.83301 -36.501 14.5s-14.5 21.834 -14.5 36.501zM77 0v507h79v-507h-79z" />
    <glyph glyph-name="j" unicode="j" horiz-adv-x="228" 
d="M65 666c0 14.667 4.83301 27 14.5 37s21.834 15 36.501 15s27 -5 37 -15s15 -22.333 15 -37s-5 -26.834 -15 -36.501s-22.333 -14.5 -37 -14.5s-26.834 4.83301 -36.501 14.5s-14.5 21.834 -14.5 36.501zM22 -126c37.333 0 56 24.333 56 73v560h78v-562
c0 -44 -11.5 -78.333 -34.5 -103s-54.833 -37 -95.5 -37c-22 0 -46 5 -72 15v70c25.333 -10.667 48 -16 68 -16z" />
    <glyph glyph-name="k" unicode="k" horiz-adv-x="480" 
d="M254 266l206 -266h-95l-204 266l199 241h94zM73 0v703h78v-703h-78z" />
    <glyph glyph-name="l" unicode="l" horiz-adv-x="233" 
d="M77 0v707h79v-707h-79z" />
    <glyph glyph-name="m" unicode="m" horiz-adv-x="818" 
d="M151 507l-0.000976562 -82c28 59.333 75.667 89 143 89c78 0 127.333 -33 148 -99c14.667 32 35.167 56.5 61.5 73.5s55.833 25.5 88.5 25.5c52.667 0 92.334 -15 119.001 -45s40 -70.333 40 -121v-348h-79v328c0 76.667 -32.333 115 -97 115
c-32 0 -60.667 -14.5 -86 -43.5s-38 -69.833 -38 -122.5v-277h-79v328c0 76.667 -32.333 115 -97 115c-32 0 -60.667 -14.5 -86 -43.5s-38 -69.833 -38 -122.5v-277h-78v507h78z" />
    <glyph glyph-name="n" unicode="n" horiz-adv-x="540" 
d="M151 507l0.000976562 -88c30 63.333 83.333 95 160 95c49.333 0 88.666 -15 117.999 -45s44 -70 44 -120v-349h-79v328c0 37.333 -9.5 65.833 -28.5 85.5s-45.667 29.5 -80 29.5s-65.333 -14.667 -93 -44s-41.5 -70 -41.5 -122v-277h-78v507h78z" />
    <glyph glyph-name="o" unicode="o" horiz-adv-x="562" 
d="M398 389.5c-26 36.333 -64.333 54.499 -115 54.499s-89.667 -18.667 -117 -56s-41 -82.666 -41 -135.999s14 -98.5 42 -135.5s66.333 -55.5 115 -55.5s86.667 18.167 114 54.5s41 82 41 137s-13 100.667 -39 137zM455 64.999c-42.667 -49.333 -100.833 -74 -174.5 -74
s-131.667 24.5 -174 73.5s-63.5 111 -63.5 186s21.833 137.667 65.5 188s102.167 75.5 175.5 75.5s130.833 -24.667 172.5 -74s62.5 -111.833 62.5 -187.5s-21.333 -138.167 -64 -187.5z" />
    <glyph glyph-name="p" unicode="p" horiz-adv-x="567" 
d="M151 507l0.00292969 -76.999c35.333 56.667 87.166 85 155.499 85s121.666 -24.5 159.999 -73.5s57.5 -111.333 57.5 -187s-20.167 -138.334 -60.5 -188.001s-93.333 -74.5 -159 -74.5s-116.834 28.333 -153.501 85v-274h-78v704h78zM196.003 110.001
c30 -30.667 64.835 -46.001 104.502 -46.001s73.167 16.833 100.5 50.5s41 79.834 41 138.501s-13.333 105 -40 139s-60.334 51 -101.001 51s-75.834 -14.833 -105.501 -44.5s-44.5 -77.5 -44.5 -143.5s15 -114.333 45 -145z" />
    <glyph glyph-name="q" unicode="q" horiz-adv-x="567" 
d="M415 507l78.999 -0.000976562v-704h-79v273c-36.667 -56 -87.667 -84 -153 -84s-118.166 24.833 -158.499 74.5s-60.5 112.334 -60.5 188.001s19.333 138 58 187s91.667 73.5 159 73.5s119 -27.667 155 -83v75zM165.999 114.499
c27.333 -33.667 60.833 -50.498 100.5 -50.498s74.334 15.167 104.001 45.5s44.5 78.666 44.5 144.999s-14.667 114.333 -44 144s-64.333 44.5 -105 44.5s-74.334 -17 -101.001 -51s-40 -80.333 -40 -139s13.667 -104.834 41 -138.501z" />
    <glyph glyph-name="r" unicode="r" horiz-adv-x="326" 
d="M151 507l-0.000976562 -88.999c26.667 62.667 72.667 94 138 94c12 0 21.333 -0.666992 28 -2v-78c-14 4.66699 -28.333 7 -43 7c-35.333 0 -64.666 -16.333 -87.999 -49s-35 -70.334 -35 -113.001v-277h-79l1 507h78z" />
    <glyph glyph-name="s" unicode="s" horiz-adv-x="412" 
d="M223 443c-26.667 0 -47.832 -6.16699 -63.499 -18.5s-23.5 -26.333 -23.5 -42s2.33301 -28 7 -37s13.667 -17.833 27 -26.5c16 -10 42.667 -22.833 80 -38.5s68 -34.5 92 -56.5s36 -53.167 36 -93.5s-15.167 -73.166 -45.5 -98.499s-74 -38 -131 -38
s-104.5 10.333 -142.5 31v77c44.667 -26.667 92.667 -40 144 -40c30.667 0 54 6 70 18s24 29.167 24 51.5s-8.83301 40.166 -26.5 53.499s-46.334 27.833 -86.001 43.5s-71 34.5 -94 56.5s-34.5 52.833 -34.5 92.5s15.833 72 47.5 97s72.5 37.5 122.5 37.5
s91 -7.33301 123 -22v-75c-30.667 18.667 -72.667 28 -126 28z" />
    <glyph glyph-name="t" unicode="t" horiz-adv-x="369" 
d="M182 443v-297c0 -54 25.333 -81 76 -81c26 0 49 7.66699 69 23v-75c-22 -12 -46.667 -18 -74 -18c-100 0 -150 51 -150 153v295h-81v64h81v126h79v-126h140v-64h-140z" />
    <glyph glyph-name="u" unicode="u" horiz-adv-x="540" 
d="M388 507h79v-507h-79v88c-26.667 -62.667 -79.667 -94 -159 -94c-50 0 -89.5 14.833 -118.5 44.5s-43.5 69.5 -43.5 119.5v349h79v-329c0 -36.667 9.33301 -64.667 28 -84s46.5 -29 83.5 -29s68 14.667 93 44s37.5 69 37.5 119v279z" />
    <glyph glyph-name="v" unicode="v" horiz-adv-x="505" 
d="M202 0l-177 507h82l144 -445c6 28.667 31 105.667 75 231l72 214h82l-181 -507h-97z" />
    <glyph glyph-name="w" unicode="w" horiz-adv-x="792" 
d="M181 0l-156 507h84c66 -225.333 106 -368.666 120 -429.999c7.33301 32.667 47.666 176 120.999 430h84l124 -431c8.66699 35.333 51.334 179 128.001 431h81l-160 -507h-97l-48 166l-70 253c-8 -32.667 -46 -172.334 -114 -419.001h-97z" />
    <glyph glyph-name="x" unicode="x" horiz-adv-x="478" 
d="M283 259l170 -259h-91l-123 200l-127 -200h-87l170 260l-160 248h91l115 -190l116 190h90z" />
    <glyph glyph-name="y" unicode="y" horiz-adv-x="493" 
d="M78 -174c-17.333 0 -31.332 1.66699 -41.999 5v71c10 -2.66699 21.333 -4 34 -4c67.333 0 115 38.333 143 115l-205 494h89l155 -397c5.33301 18.667 51.666 151 138.999 397h85l-183 -494c-26 -68.667 -56.833 -117 -92.5 -145s-76.5 -42 -122.5 -42z" />
    <glyph glyph-name="z" unicode="z" horiz-adv-x="453" 
d="M395 507v-58l-260 -378h274v-71h-365v62l257 375h-247v70h341z" />
    <glyph glyph-name="braceleft" unicode="{" horiz-adv-x="334" 
d="M288 636c-20.667 0 -36.334 -6.99902 -47.001 -20.999s-16 -30.667 -16 -50s3.5 -46 10.5 -80s10.5 -60.667 10.5 -80c0 -37.333 -10.5 -69 -31.5 -95s-51.167 -42 -90.5 -48c39.333 -6 69.5 -22.167 90.5 -48.5s31.5 -57.833 31.5 -94.5c0 -20 -3.5 -47 -10.5 -81
s-10.5 -60.667 -10.5 -80s5.33301 -36 16 -50s26.334 -21 47.001 -21c10.667 0 21.667 3 33 9v-77c-14 -5.33301 -29.667 -8 -47 -8c-36.667 0 -67.5 13.5 -92.5 40.5s-37.5 63.167 -37.5 108.5c0 18 3.5 42.667 10.5 74s10.5 54.333 10.5 69c0 67.333 -29.333 107 -88 119
c-6 1.33301 -15.667 2 -29 2v77c44 0 75.333 13.667 94 41c15.333 21.333 23 47.333 23 78c0 14.667 -3.5 37.667 -10.5 69s-10.5 56 -10.5 74c0 45.333 12.667 81.666 38 108.999s56 41 92 41c14 0 29.667 -2.66699 47 -8v-78c-11.333 6 -22.333 9 -33 9z" />
    <glyph glyph-name="bar" unicode="|" horiz-adv-x="228" 
d="M78 -194v889h72v-889h-72z" />
    <glyph glyph-name="braceright" unicode="}" horiz-adv-x="334" 
d="M60 713c36 0 66.667 -13.668 92 -41.001s38 -63.666 38 -108.999c0 -18 -3.5 -42.667 -10.5 -74s-10.5 -54.333 -10.5 -69c0 -30.667 7.66699 -56.667 23 -78c18.667 -27.333 50 -41 94 -41v-77c-44.667 0 -76.667 -14.333 -96 -43c-14 -21.333 -21 -47.333 -21 -78
c0 -14.667 3.5 -37.667 10.5 -69s10.5 -56 10.5 -74c0 -45.333 -12.5 -81.5 -37.5 -108.5s-55.833 -40.5 -92.5 -40.5c-17.333 0 -33 2.66699 -47 8v77c11.333 -6 24.833 -9 40.5 -9s28.834 7 39.501 21s16 30.667 16 50s-3.33301 46 -10 80s-10 61 -10 81
c0 36.667 10.5 68.167 31.5 94.5s50.833 42.5 89.5 48.5c-38.667 6 -68.5 22 -89.5 48s-31.5 57.667 -31.5 95c0 20 3.33301 46.833 10 80.5s10 60.167 10 79.5s-5.33301 36 -16 50s-23.834 21 -39.501 21s-29.167 -3 -40.5 -9v78c17.333 5.33301 33 8 47 8z" />
    <glyph glyph-name="asciitilde" unicode="~" horiz-adv-x="599" 
d="M420 194c-31.333 0 -70.498 12.333 -117.498 37s-79.833 37 -98.5 37c-44.667 0 -83 -23 -115 -69l-53 46c45.333 63.333 97.333 95 156 95c36 0 76.5 -12.333 121.5 -37s78.167 -37 99.5 -37c37.333 0 67.666 20 90.999 60l59 -42c-38.667 -60 -86.334 -90 -143.001 -90
z" />
    <glyph glyph-name="uni00A0" unicode="&#xa0;" horiz-adv-x="244" 
 />
    <glyph glyph-name="exclamdown" unicode="&#xa1;" horiz-adv-x="251" 
d="M87 -165v470h77v-470h-77zM82 416.5c-11.333 11.667 -16.998 25.832 -16.998 42.499s5.5 30.5 16.5 41.5s25.167 16.5 42.5 16.5s31.666 -5.66699 42.999 -17s17 -25.166 17 -41.499s-5.83301 -30.333 -17.5 -42s-25.834 -17.5 -42.501 -17.5s-30.667 5.83301 -42 17.5z
" />
    <glyph glyph-name="cent" unicode="&#xa2;" horiz-adv-x="452" 
d="M318 441c-58 0 -104.167 -18.168 -138.5 -54.501s-51.833 -81.5 -52.5 -135.5c0.666992 -54 17.5 -98.667 50.5 -134s79.833 -53 140.5 -53c34.667 0 66 8 94 24v-74c-22 -10.667 -48 -17.667 -78 -21v-104h-69v106c-68.667 8.66699 -122.334 37 -161.001 85
s-58 104.833 -58 170.5s19.5 123 58.5 172s92.5 78.167 160.5 87.5v105h69v-103c28 -3.33301 54 -10.666 78 -21.999v-74c-31.333 16.667 -62.666 25 -93.999 25z" />
    <glyph glyph-name="sterling" unicode="&#xa3;" horiz-adv-x="522" 
d="M483 69l-0.000976562 -68.999h-422v66c38 18 64 40.333 78 67s21 65.334 21 116.001c0 8.66699 -0.666992 23 -2 43h-92v63h85c-5.33301 45.333 -8 76.666 -8 93.999c0 67.333 17.833 119.166 53.5 155.499s85.834 54.5 150.501 54.5c38.667 0 74.667 -8.33301 108 -25
v-78c-32 18.667 -65.333 28 -100 28c-87.333 0 -131 -43.667 -131 -131c0 -20 2.66699 -52.667 8 -98h180v-63h-174c1.33301 -20 2 -34 2 -42c0 -51.333 -6.83301 -90.333 -20.5 -117s-33.167 -48 -58.5 -64h322z" />
    <glyph glyph-name="currency" unicode="&#xa4;" horiz-adv-x="543" 
d="M165 419.5c-28 -28.333 -42 -64 -42 -107s14 -78.667 42 -107s63.5 -42.5 106.5 -42.5s78.5 14 106.5 42s42 63.5 42 106.5s-14 78.833 -42 107.5s-63.5 43 -106.5 43s-78.5 -14.167 -106.5 -42.5zM93 183c-25.333 35.333 -38.002 77.1689 -38.002 125.502
s13.333 91.166 40 128.499l-61 61l51 49l60 -61c38 27.333 80.833 41 128.5 41s90.167 -12.333 127.5 -37l58 57l50 -49l-58 -58c25.333 -37.333 38 -79.333 38 -126s-14 -89.334 -42 -128.001l62 -61l-50 -49l-62 61c-37.333 -26 -80.166 -39 -128.499 -39
s-90.166 12 -125.499 36l-58 -58l-51 49z" />
    <glyph glyph-name="yen" unicode="&#xa5;" horiz-adv-x="585" 
d="M509 362v-59h-151l-27 -49v-39h178v-58h-178v-157h-82v157h-177v58h177v38l-27 50h-150v59h118l-157 292h92l165 -322l167 322h92l-159 -292h119z" />
    <glyph glyph-name="brokenbar" unicode="&#xa6;" horiz-adv-x="228" 
d="M150 -178h-72v331h72v-331zM150 367h-72v331h72v-331z" />
    <glyph glyph-name="section" unicode="&#xa7;" horiz-adv-x="512" 
d="M417 564c-40.667 26.667 -85.665 39.9961 -134.998 39.9961c-95.333 0 -143 -31 -143 -93c0 -26 10 -46 30 -60c17.333 -12.667 38.833 -24.167 64.5 -34.5s46.667 -19.166 63 -26.499s30.666 -14.166 42.999 -20.499s27.166 -15.5 44.499 -27.5s30.666 -24 39.999 -36
c22.667 -29.333 34 -65.666 34 -108.999s-14.333 -81 -43 -113c27.333 -28.667 41 -64 41 -106c0 -58 -20.167 -102.667 -60.5 -134s-94.166 -47 -161.499 -47s-125.666 14.667 -174.999 44v87c49.333 -37.333 108.666 -56 177.999 -56c43.333 0 76.833 9 100.5 27
s35.5 42.333 35.5 73s-10 54.334 -30 71.001s-47.5 32.834 -82.5 48.501l-65.5 29.5c-8.66699 4 -22.667 11.167 -42 21.5s-33.333 19.833 -42 28.5s-18.667 19.667 -30 33c-20 22.667 -30 55.167 -30 97.5s14 79.166 42 110.499c-25.333 25.333 -38 57.333 -38 96
c0 55.333 20.167 97.833 60.5 127.5s90.5 44.5 150.5 44.5s110.333 -10.333 151 -31v-85zM158.002 368.996c-17.333 -19.333 -25.998 -39.8311 -25.998 -61.498s3.16699 -38.834 9.5 -51.501s17.166 -24.667 32.499 -36c24 -16.667 56.5 -33.834 97.5 -51.501
s68.5 -30.167 82.5 -37.5c16.667 20 25 44.167 25 72.5s-10.333 51 -31 68s-44 31.667 -70 44s-49.833 23 -71.5 32s-37.834 16.167 -48.501 21.5z" />
    <glyph glyph-name="dieresis" unicode="&#xa8;" horiz-adv-x="421" 
d="M260 723c0 14.667 4.83301 26.834 14.5 36.501s21.834 14.5 36.501 14.5s27 -4.83301 37 -14.5s15 -21.834 15 -36.501s-5 -27 -15 -37s-22.333 -15 -37 -15s-26.834 5 -36.501 15s-14.5 22.333 -14.5 37zM58 723c0 14.667 5 26.834 15 36.501s22.333 14.5 37 14.5
s26.834 -4.83301 36.501 -14.5s14.5 -21.834 14.5 -36.501s-4.83301 -27 -14.5 -37s-21.834 -15 -36.501 -15s-27 5 -37 15s-15 22.333 -15 37z" />
    <glyph glyph-name="copyright" unicode="&#xa9;" horiz-adv-x="776" 
d="M328 244c22.667 -24 50.833 -36 84.5 -36s61.167 8.33301 82.5 25v-65c-21.333 -14 -49.333 -21 -84 -21c-57.333 0 -103 18.167 -137 54.5s-50.833 80.5 -50.5 132.5s17.333 96.667 51 134s79.5 56 137.5 56c31.333 0 59 -6.66699 83 -20v-65
c-23.333 15.333 -51.333 23 -84 23s-60.5 -11.833 -83.5 -35.5s-34.333 -54 -34 -91s11.833 -67.5 34.5 -91.5zM109.999 336c0 -77.333 27.333 -143.166 82 -197.499s120.334 -81.5 197.001 -81.5s142.334 27.167 197.001 81.5s82 120.166 82 197.499
s-27.333 143.333 -82 198s-120.334 82 -197.001 82s-142.334 -27.333 -197.001 -82s-82 -120.667 -82 -198zM144.499 93c-67.667 68 -101.5 149.167 -101.5 243.5s33.833 175.5 101.5 243.5s148.834 102 243.501 102s175.834 -34 243.501 -102s101.5 -149.167 101.5 -243.5
s-33.833 -175.5 -101.5 -243.5s-148.834 -102 -243.501 -102s-175.834 34 -243.501 102z" />
    <glyph glyph-name="ordfeminine" unicode="&#xaa;" horiz-adv-x="350" 
d="M33 795c35.333 20.667 79 31 131 31c104 0 156 -54.667 156 -164v-270h-65v54c-29.333 -38.667 -69 -58 -119 -58c-40 0 -72.333 11.167 -97 33.5s-37 53.333 -37 93s15.667 71 47 94s74.333 34.5 129 34.5h75v21c0 34 -7.5 59.667 -22.5 77s-42.5 26 -82.5 26
s-78.333 -12.333 -115 -37v65zM253 588h-63.001c-79.333 0 -119 -24.667 -119 -74c0 -20.667 7.16699 -37.334 21.5 -50.001s35.333 -19 63 -19s50.834 8.33301 69.501 25s28 36.334 28 59.001v59z" />
    <glyph glyph-name="guillemotleft" unicode="&#xab;" horiz-adv-x="480" 
d="M450 415l-146 -162l146 -162h-87l-150 162l150 162h87zM264 415l-146 -162l146 -162h-87l-150 162l150 162h87z" />
    <glyph glyph-name="logicalnot" unicode="&#xac;" horiz-adv-x="549" 
d="M512 160h-73v182h-414v71h487v-253z" />
    <glyph glyph-name="uni00AD" unicode="&#xad;" horiz-adv-x="348" 
d="M57 234v69h234v-69h-234z" />
    <glyph glyph-name="registered" unicode="&#xae;" horiz-adv-x="449" 
d="M70.5 727c40.333 40.667 91.666 61 153.999 61s113.666 -20.333 153.999 -61s60.5 -92 60.5 -154s-20.167 -113 -60.5 -153s-91.666 -60 -153.999 -60s-113.666 20 -153.999 60s-60.5 91 -60.5 153s20.167 113.333 60.5 154zM104.5 452
c30.333 -30.667 70.666 -46 120.999 -46s90.833 15.5 121.5 46.5s46 71.333 46 121s-15.333 90 -46 121s-71.167 46.5 -121.5 46.5s-90.666 -15.5 -120.999 -46.5s-45.5 -71.5 -45.5 -121.5s15.167 -90.333 45.5 -121zM159 687h61c54.667 0 82 -22.667 82 -68
c0 -28.667 -12 -48.667 -36 -60l54 -86h-52l-46 78h-19v-78h-44v214zM203 651v-64h25c19.333 0 29 10.667 29 32s-10.667 32 -32 32h-22z" />
    <glyph glyph-name="macron" unicode="&#xaf;" horiz-adv-x="421" 
d="M351 693h-282v56h282v-56z" />
    <glyph glyph-name="degree" unicode="&#xb0;" horiz-adv-x="355" 
d="M93 531c0 -24 8.33301 -44.333 25 -61s37 -25 61 -25s43.667 8.33301 59 25s23 37 23 61s-8.16699 44.5 -24.5 61.5s-36.5 25.5 -60.5 25.5s-43.833 -8.5 -59.5 -25.5s-23.5 -37.5 -23.5 -61.5zM71 426c-27.333 26.667 -41 61.167 -41 103.5s14.167 77.333 42.5 105
s63.666 41.5 105.999 41.5s77.333 -13.333 105 -40s41.5 -61 41.5 -103s-14.333 -77 -43 -105s-64.167 -42 -106.5 -42s-77.166 13.333 -104.499 40z" />
    <glyph glyph-name="plusminus" unicode="&#xb1;" horiz-adv-x="553" 
d="M310 400h187v-69h-187v-169h-74v169h-179v69h179v169h74v-169zM57 30v70h440v-70h-440z" />
    <glyph glyph-name="twosuperior" unicode="&#xb2;" horiz-adv-x="365" 
d="M47 392v48.998c132 99.333 198 182.333 198 249c0 26 -7.16699 45.333 -21.5 58s-32.833 19 -55.5 19c-36 0 -71.667 -14.333 -107 -43v69c36 22 73 33 111 33s70.667 -11.5 98 -34.5s41 -54.667 41 -95s-16 -82.166 -48 -125.499s-74.333 -84.666 -127 -123.999h190v-55
h-279z" />
    <glyph glyph-name="threesuperior" unicode="&#xb3;" horiz-adv-x="325" 
d="M103 637l23.999 -0.00292969c24 0 44.167 6 60.5 18s24.5 28.667 24.5 50c0 42 -24.333 63 -73 63c-29.333 0 -60 -10.333 -92 -31v63c29.333 17.333 63.333 26 102 26s69.834 -11.167 93.501 -33.5s35.5 -48.166 35.5 -77.499s-7 -52.666 -21 -69.999
s-33.333 -28.666 -58 -33.999c24.667 -2 46 -12.667 64 -32s27 -44.833 27 -76.5s-12.333 -58.667 -37 -81s-59.167 -33.5 -103.5 -33.5s-82.5 8.33301 -114.5 25v60c33.333 -18.667 66.333 -28 99 -28c60.667 0 91 22 91 66c0 22 -8.5 39.333 -25.5 52s-41.167 19 -72.5 19
h-24v55z" />
    <glyph glyph-name="acute" unicode="&#xb4;" horiz-adv-x="421" 
d="M115 642l99 156h94l-124 -156h-69z" />
    <glyph glyph-name="uni00B5" unicode="&#xb5;" horiz-adv-x="546" 
d="M394 507h79v-507h-79v77c-24 -55.333 -68.333 -83 -133 -83c-44 0 -80.667 12.667 -110 38v-211h-78v686h78v-329c0 -35.333 12.167 -63 36.5 -83s54 -30 89 -30s63.333 14.5 85 43.5s32.5 68.833 32.5 119.5v279z" />
    <glyph glyph-name="paragraph" unicode="&#xb6;" horiz-adv-x="545" 
d="M401 -148v822h71v-822h-71zM286 674v-822h-71v489c-60 0 -106.5 15.667 -139.5 47s-49.5 70 -49.5 116s16.833 85.833 50.5 119.5s81.167 50.5 142.5 50.5h67z" />
    <glyph glyph-name="periodcentered" unicode="&#xb7;" horiz-adv-x="232" 
d="M57 319c0 16.667 5.66699 30.667 17 42s25.333 17 42 17s30.667 -5.66699 42 -17s17 -25.333 17 -42s-5.66699 -30.667 -17 -42s-25.333 -17 -42 -17s-30.667 5.66699 -42 17s-17 25.333 -17 42z" />
    <glyph glyph-name="cedilla" unicode="&#xb8;" horiz-adv-x="421" 
d="M267 -51c12 -16.667 18.001 -41.667 18.001 -75s-12.833 -62.333 -38.5 -87s-62.834 -37.667 -111.501 -39v58c56 4 84 27.667 84 71c0 22.667 -7.66699 46.667 -23 72h71z" />
    <glyph glyph-name="onesuperior" unicode="&#xb9;" horiz-adv-x="250" 
d="M179 822v-430h-62v357l-107 -59v65l117 67h52z" />
    <glyph glyph-name="ordmasculine" unicode="&#xba;" horiz-adv-x="376" 
d="M282 723c-20 30.667 -50.665 45.999 -91.998 45.999s-72.833 -15.833 -94.5 -47.5s-32.5 -70.167 -32.5 -115.5s11.167 -83.666 33.5 -114.999s53.166 -47 92.499 -47s69.666 15.333 90.999 46s32 69.5 32 116.5s-10 85.833 -30 116.5zM329.502 447.999
c-34.333 -41.333 -81.668 -62 -142.001 -62s-107.666 20.667 -141.999 62s-51.5 93.666 -51.5 156.999s17.667 116.333 53 159s83 64 143 64s106.833 -20.833 140.5 -62.5s50.5 -94.667 50.5 -159s-17.167 -117.166 -51.5 -158.499z" />
    <glyph glyph-name="guillemotright" unicode="&#xbb;" horiz-adv-x="482" 
d="M302 415l151 -162l-151 -162h-87l147 162l-147 162h87zM116 415l151 -162l-151 -162h-87l147 162l-147 162h87z" />
    <glyph glyph-name="questiondown" unicode="&#xbf;" horiz-adv-x="452" 
d="M340 459c0 -16.667 -5.5 -30.834 -16.5 -42.501s-24.833 -17.5 -41.5 -17.5s-31 5.83301 -43 17.5s-18 25.834 -18 42.501s5.83301 30.5 17.5 41.5s26 16.5 43 16.5s31 -5.5 42 -16.5s16.5 -24.833 16.5 -41.5zM254 -173c-63.333 0 -114.002 16.167 -152.002 48.5
s-57 77 -57 134s19.667 101.167 59 132.5s85 49.333 137 54l1 109h76l1 -166c-61.333 0 -108.666 -10.5 -141.999 -31.5s-50 -50.5 -50 -88.5s11 -67.5 33 -88.5s57 -31.5 105 -31.5s97.667 16.333 149 49v-80c-43.333 -27.333 -96.666 -41 -159.999 -41z" />
    <glyph glyph-name="Agrave" unicode="&#xc0;" horiz-adv-x="648" 
d="M526 0l-59 177h-285l-60 -177h-87l235 674h112l231 -674h-87zM205 246h238.999l-118 363c-9.33301 -34 -49.666 -155 -120.999 -363zM353.999 727h-69l-124 156h95z" />
    <glyph glyph-name="Aacute" unicode="&#xc1;" horiz-adv-x="648" 
d="M526 0l-59 177h-285l-60 -177h-87l235 674h112l231 -674h-87zM205 246h238.999l-118 363c-9.33301 -34 -49.666 -155 -120.999 -363zM491.999 883l-124 -156h-69l99 156h94z" />
    <glyph glyph-name="Acircumflex" unicode="&#xc2;" horiz-adv-x="648" 
d="M526 0l-59 177h-285l-60 -177h-87l235 674h112l231 -674h-87zM205 246h238.999l-118 363c-9.33301 -34 -49.666 -155 -120.999 -363zM326.999 832l-85 -105h-80l127 156h76l127 -156h-80z" />
    <glyph glyph-name="Atilde" unicode="&#xc3;" horiz-adv-x="648" 
d="M526 0l-59 177h-285l-60 -177h-87l235 674h112l231 -674h-87zM205 246h238.999l-118 363c-9.33301 -34 -49.666 -155 -120.999 -363zM395.999 757c-18 0 -41.167 7.33301 -69.5 22s-47.833 22 -58.5 22c-27.333 0 -50 -16 -68 -48l-43 37
c9.33301 20 23.166 36.833 41.499 50.5s37.833 20.5 58.5 20.5s45.334 -7.33301 74.001 -22s49 -22 61 -22c22.667 0 40.667 14.333 54 43l49 -34c-21.333 -46 -54.333 -69 -99 -69z" />
    <glyph glyph-name="Adieresis" unicode="&#xc4;" horiz-adv-x="648" 
d="M526 0l-59 177h-285l-60 -177h-87l235 674h112l231 -674h-87zM205 246h238.999l-118 363c-9.33301 -34 -49.666 -155 -120.999 -363zM226.999 754c-14.667 0 -27 5 -37 15s-15 22.333 -15 37s5 26.834 15 36.501s22.333 14.5 37 14.5s26.834 -4.83301 36.501 -14.5
s14.5 -21.834 14.5 -36.501s-4.83301 -27 -14.5 -37s-21.834 -15 -36.501 -15zM427.999 754c-14.667 0 -26.834 5 -36.501 15s-14.5 22.333 -14.5 37s4.83301 26.834 14.5 36.501s21.834 14.5 36.501 14.5s27 -4.83301 37 -14.5s15 -21.834 15 -36.501s-5 -27 -15 -37
s-22.333 -15 -37 -15z" />
    <glyph glyph-name="Aring" unicode="&#xc5;" horiz-adv-x="648" 
d="M526 0l-59 177h-285l-60 -177h-87l235 674h112l231 -674h-87zM205 246h238.999l-118 363c-9.33301 -34 -49.666 -155 -120.999 -363zM326.999 717c-29.333 0 -54.333 10.333 -75 31s-31 45.667 -31 75s10.333 54.5 31 75.5s45.667 31.5 75 31.5s54.333 -10.5 75 -31.5
s31 -46.167 31 -75.5s-10.333 -54.333 -31 -75s-45.667 -31 -75 -31zM365.499 862c-10.333 10.667 -23.001 15.998 -38.001 15.998s-27.667 -5.16699 -38 -15.5s-15.5 -23 -15.5 -38s5.16699 -27.833 15.5 -38.5s22.833 -16 37.5 -16s27.334 5.33301 38.001 16
s16 23.334 16 38.001s-5.16699 27.334 -15.5 38.001z" />
    <glyph glyph-name="AE" unicode="&#xc6;" horiz-adv-x="879" 
d="M536 71h295v-71h-375v177h-244l-102 -177h-87l383 674h419v-71h-289v-231h256v-71h-256v-230zM456 246v364c-43.333 -82 -111.333 -203.333 -204 -364h204z" />
    <glyph glyph-name="Ccedilla" unicode="&#xc7;" horiz-adv-x="602" 
d="M387 607c-72.667 0 -133.168 -24.666 -181.501 -73.999s-72.5 -114.5 -72.5 -195.5s24 -146.167 72 -195.5s111.667 -74 191 -74c64 0 118.667 17 164 51v-85c-41.333 -28 -98 -42 -170 -42c-101.333 0 -183.666 31.167 -246.999 93.5s-95 145.666 -95 249.999
s32.167 188.333 96.5 252s145.166 95.5 242.499 95.5c70 0 127 -12 171 -36v-83c-29.333 15.333 -55.666 26.333 -78.999 33s-54 10 -92 10zM403.999 -50.999c12 -16.667 18.001 -41.667 18.001 -75s-12.833 -62.333 -38.5 -87s-62.834 -37.667 -111.501 -39v58
c56 4 84 27.667 84 71c0 22.667 -7.66699 46.667 -23 72h71z" />
    <glyph glyph-name="Egrave" unicode="&#xc8;" horiz-adv-x="501" 
d="M158 71h295v-71h-376v674h371v-71h-290v-231h256v-71h-256v-230zM320 726h-69l-124 156h95z" />
    <glyph glyph-name="Eacute" unicode="&#xc9;" horiz-adv-x="501" 
d="M158 71h295v-71h-376v674h371v-71h-290v-231h256v-71h-256v-230zM437 883l-124 -156h-69l99 156h94z" />
    <glyph glyph-name="Ecircumflex" unicode="&#xca;" horiz-adv-x="501" 
d="M158 71h295v-71h-376v674h371v-71h-290v-231h256v-71h-256v-230zM273 832l-85 -105h-80l127 156h76l127 -156h-80z" />
    <glyph glyph-name="Edieresis" unicode="&#xcb;" horiz-adv-x="501" 
d="M158 71h295v-71h-376v674h371v-71h-290v-231h256v-71h-256v-230zM168 753c-14.667 0 -27 5 -37 15s-15 22.333 -15 37s5 26.834 15 36.501s22.333 14.5 37 14.5s26.834 -4.83301 36.501 -14.5s14.5 -21.834 14.5 -36.501s-4.83301 -27 -14.5 -37s-21.834 -15 -36.501 -15
zM369 753c-14.667 0 -26.834 5 -36.501 15s-14.5 22.333 -14.5 37s4.83301 26.834 14.5 36.501s21.834 14.5 36.501 14.5s27 -4.83301 37 -14.5s15 -21.834 15 -36.501s-5 -27 -15 -37s-22.333 -15 -37 -15z" />
    <glyph glyph-name="Igrave" unicode="&#xcc;" horiz-adv-x="247" 
d="M55 883l98 -156h-69l-124 156h95zM83 0v674h81v-674h-81z" />
    <glyph glyph-name="Iacute" unicode="&#xcd;" horiz-adv-x="247" 
d="M93 727l99 156h94l-124 -156h-69zM83 0v674h81v-674h-81z" />
    <glyph glyph-name="Icircumflex" unicode="&#xce;" horiz-adv-x="247" 
d="M83 0v674h81v-674h-81zM86 883h76l127 -156h-80l-85 105l-85 -105h-80z" />
    <glyph glyph-name="Idieresis" unicode="&#xcf;" horiz-adv-x="247" 
d="M175 806c0 14.667 4.83301 26.834 14.5 36.501s21.834 14.5 36.501 14.5s27 -4.83301 37 -14.5s15 -21.834 15 -36.501s-5 -27 -15 -37s-22.333 -15 -37 -15s-26.834 5 -36.501 15s-14.5 22.333 -14.5 37zM-27 806c0 14.667 5 26.834 15 36.501s22.333 14.5 37 14.5
s26.834 -4.83301 36.501 -14.5s14.5 -21.834 14.5 -36.501s-4.83301 -27 -14.5 -37s-21.834 -15 -36.501 -15s-27 5 -37 15s-15 22.333 -15 37zM83 0v674h81v-674h-81z" />
    <glyph glyph-name="Eth" unicode="&#xd0;" horiz-adv-x="730" 
d="M146 674l200 0.000976562c100 0 181.667 -30.833 245 -92.5s95 -141.334 95 -239.001s-29.5 -179.167 -88.5 -244.5s-141.5 -98 -247.5 -98h-204v304h-85v68h85v302zM228 71.001h122c42.667 0 80.5 7.33301 113.5 22s59.167 35 78.5 61c40 51.333 60 113.833 60 187.5
s-23.667 135.5 -71 185.5s-109.333 75 -186 75h-117v-230h175v-68h-175v-233z" />
    <glyph glyph-name="Ntilde" unicode="&#xd1;" horiz-adv-x="673" 
d="M415 757c-18 0 -41.167 7.33301 -69.5 22s-47.833 22 -58.5 22c-27.333 0 -50 -16 -68 -48l-43 37c9.33301 20 23.166 36.833 41.499 50.5s37.833 20.5 58.5 20.5s45.334 -7.33301 74.001 -22s49 -22 61 -22c22.667 0 40.667 14.333 54 43l49 -34
c-21.333 -46 -54.333 -69 -99 -69zM77 0l0.000976562 674.001h102l169 -284l171 -292c-2.66699 64.667 -4 161.667 -4 291v285h81v-674h-102c-186.667 311.333 -300.334 503.666 -341.001 576.999c3.33301 -69.333 5 -167 5 -293v-284h-81z" />
    <glyph glyph-name="Ograve" unicode="&#xd2;" horiz-adv-x="700" 
d="M295 883l98 -156h-69l-124 156h95zM190.5 538.5c-38.333 -48.333 -57.501 -114.332 -57.501 -197.999s19.833 -149.834 59.5 -198.501s93.167 -73 160.5 -73s119.833 24 157.5 72s56.5 114.333 56.5 199s-19 151 -57 199s-91.167 72 -159.5 72
s-121.666 -24.167 -159.999 -72.5zM130.999 87.001c-55.333 63.333 -83.001 147.831 -83.001 253.498s27.167 189.834 81.5 252.501s128.333 94 222 94s167.334 -31.167 221.001 -93.5s80.5 -146.666 80.5 -252.999s-27.167 -191 -81.5 -254s-127.5 -94.5 -219.5 -94.5
s-165.667 31.667 -221 95z" />
    <glyph glyph-name="Oacute" unicode="&#xd3;" horiz-adv-x="700" 
d="M190.5 538.5c-38.333 -48.333 -57.501 -114.332 -57.501 -197.999s19.833 -149.834 59.5 -198.501s93.167 -73 160.5 -73s119.833 24 157.5 72s56.5 114.333 56.5 199s-19 151 -57 199s-91.167 72 -159.5 72s-121.666 -24.167 -159.999 -72.5zM130.999 87.001
c-55.333 63.333 -83.001 147.831 -83.001 253.498s27.167 189.834 81.5 252.501s128.333 94 222 94s167.334 -31.167 221.001 -93.5s80.5 -146.666 80.5 -252.999s-27.167 -191 -81.5 -254s-127.5 -94.5 -219.5 -94.5s-165.667 31.667 -221 95zM323.998 726.999l99 156h94
l-124 -156h-69z" />
    <glyph glyph-name="Ocircumflex" unicode="&#xd4;" horiz-adv-x="700" 
d="M319 883h76l127 -156h-80l-85 105l-85 -105h-80zM131 87c-55.333 63.333 -83.001 147.831 -83.001 253.498s27.167 189.834 81.5 252.501s128.333 94 222 94s167.334 -31.167 221.001 -93.5s80.5 -146.666 80.5 -252.999s-27.167 -191 -81.5 -254
s-127.5 -94.5 -219.5 -94.5s-165.667 31.667 -221 95zM190.499 538.498c-38.333 -48.333 -57.501 -114.332 -57.501 -197.999s19.833 -149.834 59.5 -198.501s93.167 -73 160.5 -73s119.833 24 157.5 72s56.5 114.333 56.5 199s-19 151 -57 199s-91.167 72 -159.5 72
s-121.666 -24.167 -159.999 -72.5z" />
    <glyph glyph-name="Otilde" unicode="&#xd5;" horiz-adv-x="700" 
d="M422 758c-18 0 -41.167 7.33301 -69.5 22s-47.833 22 -58.5 22c-27.333 0 -50 -16 -68 -48l-43 37c9.33301 20 23.166 36.833 41.499 50.5s37.833 20.5 58.5 20.5s45.334 -7.33301 74.001 -22s49 -22 61 -22c22.667 0 40.667 14.333 54 43l49 -34
c-21.333 -46 -54.333 -69 -99 -69zM190.5 538.5c-38.333 -48.333 -57.501 -114.332 -57.501 -197.999s19.833 -149.834 59.5 -198.501s93.167 -73 160.5 -73s119.833 24 157.5 72s56.5 114.333 56.5 199s-19 151 -57 199s-91.167 72 -159.5 72
s-121.666 -24.167 -159.999 -72.5zM130.999 87.001c-55.333 63.333 -83.001 147.831 -83.001 253.498s27.167 189.834 81.5 252.501s128.333 94 222 94s167.334 -31.167 221.001 -93.5s80.5 -146.666 80.5 -252.999s-27.167 -191 -81.5 -254s-127.5 -94.5 -219.5 -94.5
s-165.667 31.667 -221 95z" />
    <glyph glyph-name="Odieresis" unicode="&#xd6;" horiz-adv-x="700" 
d="M190.5 538.5c-38.333 -48.333 -57.501 -114.332 -57.501 -197.999s19.833 -149.834 59.5 -198.501s93.167 -73 160.5 -73s119.833 24 157.5 72s56.5 114.333 56.5 199s-19 151 -57 199s-91.167 72 -159.5 72s-121.666 -24.167 -159.999 -72.5zM130.999 87.001
c-55.333 63.333 -83.001 147.831 -83.001 253.498s27.167 189.834 81.5 252.501s128.333 94 222 94s167.334 -31.167 221.001 -93.5s80.5 -146.666 80.5 -252.999s-27.167 -191 -81.5 -254s-127.5 -94.5 -219.5 -94.5s-165.667 31.667 -221 95zM403.998 805.999
c0 14.667 4.83301 26.834 14.5 36.501s21.834 14.5 36.501 14.5s27 -4.83301 37 -14.5s15 -21.834 15 -36.501s-5 -27 -15 -37s-22.333 -15 -37 -15s-26.834 5 -36.501 15s-14.5 22.333 -14.5 37zM201.998 805.999c0 14.667 5 26.834 15 36.501s22.333 14.5 37 14.5
s26.834 -4.83301 36.501 -14.5s14.5 -21.834 14.5 -36.501s-4.83301 -27 -14.5 -37s-21.834 -15 -36.501 -15s-27 5 -37 15s-15 22.333 -15 37z" />
    <glyph glyph-name="multiply" unicode="&#xd7;" horiz-adv-x="491" 
d="M431 475l-135 -134l132 -131l-51 -51l-132 131l-131 -131l-51 52l131 130l-135 134l51 50l135 -133l135 134z" />
    <glyph glyph-name="Oslash" unicode="&#xd8;" horiz-adv-x="675" 
d="M572 586c49.333 -62 74 -145 74 -249s-27.167 -187.5 -81.5 -250.5s-127.5 -94.5 -219.5 -94.5c-68.667 0 -127.667 18 -177 54l-41 -55h-86l77 103c-51.333 64 -77 147.5 -77 250.5s27.167 185.833 81.5 248.5s127.833 94 220.5 94c70 0 129 -17.333 177 -52l39 52h88z
M343 612c-68 0 -121.333 -24.167 -160 -72.5s-58 -111.333 -58 -189s14.667 -140.167 44 -187.5l304 408c-34.667 27.333 -78 41 -130 41zM345 67c68.667 0 122 24.167 160 72.5s57 112 57 191s-14 141.5 -42 187.5l-304 -408c36 -28.667 79 -43 129 -43z" />
    <glyph glyph-name="Ugrave" unicode="&#xd9;" horiz-adv-x="645" 
d="M262 883l98 -156h-69l-124 156h95zM488 254l-0.000976562 420.001h81v-418c0 -86.667 -21.833 -152.334 -65.5 -197.001s-104.167 -67 -181.5 -67s-137.666 21.833 -180.999 65.5s-65 107.167 -65 190.5v426h81v-425c0 -62 14.833 -107.667 44.5 -137s69.5 -44 119.5 -44
c111.333 0 167 62 167 186z" />
    <glyph glyph-name="Uacute" unicode="&#xda;" horiz-adv-x="645" 
d="M488 254l-0.000976562 420.001h81v-418c0 -86.667 -21.833 -152.334 -65.5 -197.001s-104.167 -67 -181.5 -67s-137.666 21.833 -180.999 65.5s-65 107.167 -65 190.5v426h81v-425c0 -62 14.833 -107.667 44.5 -137s69.5 -44 119.5 -44c111.333 0 167 62 167 186z
M299.999 727.001l99 156h94l-124 -156h-69z" />
    <glyph glyph-name="Ucircumflex" unicode="&#xdb;" horiz-adv-x="645" 
d="M286 883h76l127 -156h-80l-85 105l-85 -105h-80zM488 254l-0.000976562 420.001h81v-418c0 -86.667 -21.833 -152.334 -65.5 -197.001s-104.167 -67 -181.5 -67s-137.666 21.833 -180.999 65.5s-65 107.167 -65 190.5v426h81v-425c0 -62 14.833 -107.667 44.5 -137
s69.5 -44 119.5 -44c111.333 0 167 62 167 186z" />
    <glyph glyph-name="Udieresis" unicode="&#xdc;" horiz-adv-x="645" 
d="M488 254l-0.000976562 420.001h81v-418c0 -86.667 -21.833 -152.334 -65.5 -197.001s-104.167 -67 -181.5 -67s-137.666 21.833 -180.999 65.5s-65 107.167 -65 190.5v426h81v-425c0 -62 14.833 -107.667 44.5 -137s69.5 -44 119.5 -44c111.333 0 167 62 167 186z
M372.999 806.001c0 14.667 4.83301 26.834 14.5 36.501s21.834 14.5 36.501 14.5s27 -4.83301 37 -14.5s15 -21.834 15 -36.501s-5 -27 -15 -37s-22.333 -15 -37 -15s-26.834 5 -36.501 15s-14.5 22.333 -14.5 37zM170.999 806.001c0 14.667 5 26.834 15 36.501
s22.333 14.5 37 14.5s26.834 -4.83301 36.501 -14.5s14.5 -21.834 14.5 -36.501s-4.83301 -27 -14.5 -37s-21.834 -15 -36.501 -15s-27 5 -37 15s-15 22.333 -15 37z" />
    <glyph glyph-name="Yacute" unicode="&#xdd;" horiz-adv-x="593" 
d="M336 0l-80.999 0.000976562v250l-229 424h94c104.667 -202.667 163 -319.334 175 -350.001c3.33301 10 62.666 126.667 177.999 350h94l-231 -423v-251zM472.001 882.001l-124 -156h-69l99 156h94z" />
    <glyph glyph-name="Thorn" unicode="&#xde;" horiz-adv-x="536" 
d="M158 550h88.001c81.333 0 143.666 -19.833 186.999 -59.5s65 -91.167 65 -154.5s-21.5 -114.5 -64.5 -153.5s-102.833 -58.5 -179.5 -58.5h-96v-124h-81v674h81v-124zM158.001 193h98.999c52.667 0 92.334 12.833 119.001 38.5s40 60.167 40 103.5
s-13.667 78.5 -41 105.5s-69.333 40.5 -126 40.5h-91v-288z" />
    <glyph glyph-name="germandbls" unicode="&#xdf;" horiz-adv-x="541" 
d="M258 82c26 -13.333 53.6719 -20 83.0049 -20s52.166 6.5 68.499 19.5s24.5 29 24.5 48s-5.16699 35.833 -15.5 50.5s-22.833 27.834 -37.5 39.501l-44 35.5c-35.333 28.667 -53 61 -53 97c0 18 4.16699 35.333 12.5 52s17.666 30.167 27.999 40.5
s19.666 23.5 27.999 39.5s12.5 34.5 12.5 55.5s-9 39.167 -27 54.5s-41.667 23 -71 23c-74.667 0 -112 -39.667 -112 -119v-498h-79v496c0 64 17.5 112.333 52.5 145s80.333 49 136 49s99.667 -15 132 -45s48.5 -66.333 48.5 -109c0 -29.333 -6.5 -55.166 -19.5 -77.499
s-25.833 -41.333 -38.5 -57s-19 -29.834 -19 -42.501s5 -24.834 15 -36.501s22 -23 36 -34s28 -23 42 -36s26 -29.5 36 -49.5s15 -42 15 -66c0 -42 -14.833 -76.5 -44.5 -103.5s-70.834 -40.5 -123.501 -40.5c-36.667 0 -65.334 4.33301 -86.001 13v76z" />
    <glyph glyph-name="agrave" unicode="&#xe0;" horiz-adv-x="492" 
d="M234 515c127.333 0 191 -64.667 191 -194v-321h-78v60c-26 -43.333 -73.333 -65 -142 -65c-47.333 0 -85.5 14 -114.5 42s-43.5 64.833 -43.5 110.5s18.5 82 55.5 109s87.5 40.5 151.5 40.5h92v26c0 40 -9 70.167 -27 90.5s-51.167 30.5 -99.5 30.5
s-93.5 -14.333 -135.5 -43v79c38 23.333 88 35 150 35zM346 234l-88 0.000976562c-42.667 0 -74.667 -8.33301 -96 -25s-32 -37.667 -32 -63s8.33301 -45.833 25 -61.5s42 -23.5 76 -23.5s61.667 10.167 83 30.5s32 46.166 32 77.499v65zM291 560.001h-69l-124 156h95z" />
    <glyph glyph-name="aacute" unicode="&#xe1;" horiz-adv-x="492" 
d="M234 515c127.333 0 191 -64.667 191 -194v-321h-78v60c-26 -43.333 -73.333 -65 -142 -65c-47.333 0 -85.5 14 -114.5 42s-43.5 64.833 -43.5 110.5s18.5 82 55.5 109s87.5 40.5 151.5 40.5h92v26c0 40 -9 70.167 -27 90.5s-51.167 30.5 -99.5 30.5
s-93.5 -14.333 -135.5 -43v79c38 23.333 88 35 150 35zM346 234l-88 0.000976562c-42.667 0 -74.667 -8.33301 -96 -25s-32 -37.667 -32 -63s8.33301 -45.833 25 -61.5s42 -23.5 76 -23.5s61.667 10.167 83 30.5s32 46.166 32 77.499v65zM416 716.001l-124 -156h-69l99 156
h94z" />
    <glyph glyph-name="acircumflex" unicode="&#xe2;" horiz-adv-x="492" 
d="M234 515c127.333 0 191 -64.667 191 -194v-321h-78v60c-26 -43.333 -73.333 -65 -142 -65c-47.333 0 -85.5 14 -114.5 42s-43.5 64.833 -43.5 110.5s18.5 82 55.5 109s87.5 40.5 151.5 40.5h92v26c0 40 -9 70.167 -27 90.5s-51.167 30.5 -99.5 30.5
s-93.5 -14.333 -135.5 -43v79c38 23.333 88 35 150 35zM346 234l-88 0.000976562c-42.667 0 -74.667 -8.33301 -96 -25s-32 -37.667 -32 -63s8.33301 -45.833 25 -61.5s42 -23.5 76 -23.5s61.667 10.167 83 30.5s32 46.166 32 77.499v65zM254 664.001l-85 -105h-80l127 156
h76l127 -156h-80z" />
    <glyph glyph-name="atilde" unicode="&#xe3;" horiz-adv-x="492" 
d="M234 515c127.333 0 191 -64.667 191 -194v-321h-78v60c-26 -43.333 -73.333 -65 -142 -65c-47.333 0 -85.5 14 -114.5 42s-43.5 64.833 -43.5 110.5s18.5 82 55.5 109s87.5 40.5 151.5 40.5h92v26c0 40 -9 70.167 -27 90.5s-51.167 30.5 -99.5 30.5
s-93.5 -14.333 -135.5 -43v79c38 23.333 88 35 150 35zM346 234l-88 0.000976562c-42.667 0 -74.667 -8.33301 -96 -25s-32 -37.667 -32 -63s8.33301 -45.833 25 -61.5s42 -23.5 76 -23.5s61.667 10.167 83 30.5s32 46.166 32 77.499v65zM320 590.001
c-18 0 -41.167 7.33301 -69.5 22s-47.833 22 -58.5 22c-27.333 0 -50 -16 -68 -48l-43 37c9.33301 20 23.166 36.833 41.499 50.5s37.833 20.5 58.5 20.5s45.334 -7.33301 74.001 -22s49 -22 61 -22c22.667 0 40.667 14.333 54 43l49 -34c-21.333 -46 -54.333 -69 -99 -69z
" />
    <glyph glyph-name="adieresis" unicode="&#xe4;" horiz-adv-x="492" 
d="M234 515c127.333 0 191 -64.667 191 -194v-321h-78v60c-26 -43.333 -73.333 -65 -142 -65c-47.333 0 -85.5 14 -114.5 42s-43.5 64.833 -43.5 110.5s18.5 82 55.5 109s87.5 40.5 151.5 40.5h92v26c0 40 -9 70.167 -27 90.5s-51.167 30.5 -99.5 30.5
s-93.5 -14.333 -135.5 -43v79c38 23.333 88 35 150 35zM346 234l-88 0.000976562c-42.667 0 -74.667 -8.33301 -96 -25s-32 -37.667 -32 -63s8.33301 -45.833 25 -61.5s42 -23.5 76 -23.5s61.667 10.167 83 30.5s32 46.166 32 77.499v65zM152 584.001
c-14.667 0 -27 5 -37 15s-15 22.333 -15 37s5 26.834 15 36.501s22.333 14.5 37 14.5s26.834 -4.83301 36.501 -14.5s14.5 -21.834 14.5 -36.501s-4.83301 -27 -14.5 -37s-21.834 -15 -36.501 -15zM353 584.001c-14.667 0 -26.834 5 -36.501 15s-14.5 22.333 -14.5 37
s4.83301 26.834 14.5 36.501s21.834 14.5 36.501 14.5s27 -4.83301 37 -14.5s15 -21.834 15 -36.501s-5 -27 -15 -37s-22.333 -15 -37 -15z" />
    <glyph glyph-name="aring" unicode="&#xe5;" horiz-adv-x="492" 
d="M234 515c127.333 0 191 -64.667 191 -194v-321h-78v60c-26 -43.333 -73.333 -65 -142 -65c-47.333 0 -85.5 14 -114.5 42s-43.5 64.833 -43.5 110.5s18.5 82 55.5 109s87.5 40.5 151.5 40.5h92v26c0 40 -9 70.167 -27 90.5s-51.167 30.5 -99.5 30.5
s-93.5 -14.333 -135.5 -43v79c38 23.333 88 35 150 35zM346 234l-88 0.000976562c-42.667 0 -74.667 -8.33301 -96 -25s-32 -37.667 -32 -63s8.33301 -45.833 25 -61.5s42 -23.5 76 -23.5s61.667 10.167 83 30.5s32 46.166 32 77.499v65zM255 550.001
c-29.333 0 -54.333 10.333 -75 31s-31 45.667 -31 75s10.333 54.5 31 75.5s45.667 31.5 75 31.5s54.333 -10.5 75 -31.5s31 -46.167 31 -75.5s-10.333 -54.333 -31 -75s-45.667 -31 -75 -31zM293.5 695.501c-10.333 10.333 -23.001 15.5 -38.001 15.5
s-27.667 -5.16699 -38 -15.5s-15.5 -23 -15.5 -38s5.16699 -27.833 15.5 -38.5s22.833 -16 37.5 -16s27.334 5.33301 38.001 16s16 23.5 16 38.5s-5.16699 27.667 -15.5 38z" />
    <glyph glyph-name="ae" unicode="&#xe6;" horiz-adv-x="819" 
d="M488 105c32.667 -26.667 74.833 -39.998 126.5 -39.998s94.5 11.667 128.5 35v-74c-38 -20.667 -81.667 -31 -131 -31s-92.666 9.33301 -129.999 28s-66 44 -86 76c-12.667 -30.667 -34.667 -55.667 -66 -75s-70.5 -29 -117.5 -29s-85.5 13.167 -115.5 39.5
s-45 63.166 -45 110.499s18.667 84.666 56 111.999s88.333 41 153 41h90v25c0 40 -9 70.167 -27 90.5s-51 30.5 -99 30.5s-93.333 -14 -136 -42v77c38.667 24 87.667 36 147 36c86 0 141 -30 165 -90c39.333 58.667 97.666 88 174.999 88c65.333 0 115.5 -20.5 150.5 -61.5
s52.5 -99.833 52.5 -176.5c0 -18.667 -1.66699 -37 -5 -55h-344c6 -50 25.333 -88.333 58 -115zM700.999 286.002v20c-0.666992 44 -12.5 78 -35.5 102s-53.167 36 -90.5 36s-69.5 -13.333 -96.5 -40s-43.5 -66 -49.5 -118h272zM350.999 177.002l-0.000976562 55.001h-75
c-94.667 0 -142 -29 -142 -87c0 -24.667 8.5 -44.334 25.5 -59.001s41.833 -22 74.5 -22s60.334 10.333 83.001 31s34 48 34 82z" />
    <glyph glyph-name="ccedilla" unicode="&#xe7;" horiz-adv-x="471" 
d="M321 -51c12 -16.667 18.001 -41.667 18.001 -75s-12.833 -62.333 -38.5 -87s-62.834 -37.667 -111.501 -39v58c56 4 84 27.667 84 71c0 22.667 -7.66699 46.667 -23 72h71zM314.001 60c38.667 0 74.666 11 107.999 33v-75c-32 -19.333 -71.333 -29 -118 -29
c-80 0 -143.5 25.5 -190.5 76.5s-70.5 112.833 -70.5 185.5s23.5 135 70.5 187s111.167 78 192.5 78c43.333 0 82 -9.33301 116 -28v-75c-30.667 20.667 -66.667 31 -108 31c-57.333 0 -103.166 -18.5 -137.499 -55.5s-51.333 -82.833 -51 -137.5
s16.833 -100.167 49.5 -136.5s79 -54.5 139 -54.5z" />
    <glyph glyph-name="egrave" unicode="&#xe8;" horiz-adv-x="522" 
d="M299 -5c-76.667 0 -138.5 23.501 -185.5 70.501s-70.5 110 -70.5 189s21 141.833 63 188.5s95.333 70 160 70s115.667 -20.333 153 -61s56 -98.334 56 -173.001c0 -21.333 -1.66699 -41 -5 -59h-346c6 -50 25 -88.333 57 -115s75.167 -40 129.5 -40s98.5 11.667 132.5 35
v-74c-39.333 -20.667 -87.333 -31 -144 -31zM396 286.001l0.000976562 20c0 42 -11.333 75.5 -34 100.5s-53.5 37.5 -92.5 37.5s-71.833 -13.667 -98.5 -41s-42.334 -66.333 -47.001 -117h272zM318.001 560.001h-69l-124 156h95z" />
    <glyph glyph-name="eacute" unicode="&#xe9;" horiz-adv-x="522" 
d="M299 -5c-76.667 0 -138.5 23.501 -185.5 70.501s-70.5 110 -70.5 189s21 141.833 63 188.5s95.333 70 160 70s115.667 -20.333 153 -61s56 -98.334 56 -173.001c0 -21.333 -1.66699 -41 -5 -59h-346c6 -50 25 -88.333 57 -115s75.167 -40 129.5 -40s98.5 11.667 132.5 35
v-74c-39.333 -20.667 -87.333 -31 -144 -31zM396 286.001l0.000976562 20c0 42 -11.333 75.5 -34 100.5s-53.5 37.5 -92.5 37.5s-71.833 -13.667 -98.5 -41s-42.334 -66.333 -47.001 -117h272zM444.001 716.001l-124 -156h-69l99 156h94z" />
    <glyph glyph-name="ecircumflex" unicode="&#xea;" horiz-adv-x="522" 
d="M299 -5c-76.667 0 -138.5 23.501 -185.5 70.501s-70.5 110 -70.5 189s21 141.833 63 188.5s95.333 70 160 70s115.667 -20.333 153 -61s56 -98.334 56 -173.001c0 -21.333 -1.66699 -41 -5 -59h-346c6 -50 25 -88.333 57 -115s75.167 -40 129.5 -40s98.5 11.667 132.5 35
v-74c-39.333 -20.667 -87.333 -31 -144 -31zM396 286.001l0.000976562 20c0 42 -11.333 75.5 -34 100.5s-53.5 37.5 -92.5 37.5s-71.833 -13.667 -98.5 -41s-42.334 -66.333 -47.001 -117h272zM281.001 665.001l-85 -105h-80l127 156h76l127 -156h-80z" />
    <glyph glyph-name="edieresis" unicode="&#xeb;" horiz-adv-x="522" 
d="M299 -5c-76.667 0 -138.5 23.501 -185.5 70.501s-70.5 110 -70.5 189s21 141.833 63 188.5s95.333 70 160 70s115.667 -20.333 153 -61s56 -98.334 56 -173.001c0 -21.333 -1.66699 -41 -5 -59h-346c6 -50 25 -88.333 57 -115s75.167 -40 129.5 -40s98.5 11.667 132.5 35
v-74c-39.333 -20.667 -87.333 -31 -144 -31zM396 286.001l0.000976562 20c0 42 -11.333 75.5 -34 100.5s-53.5 37.5 -92.5 37.5s-71.833 -13.667 -98.5 -41s-42.334 -66.333 -47.001 -117h272zM181.001 587.001c-14.667 0 -27 5 -37 15s-15 22.333 -15 37
s5 26.834 15 36.501s22.333 14.5 37 14.5s26.834 -4.83301 36.501 -14.5s14.5 -21.834 14.5 -36.501s-4.83301 -27 -14.5 -37s-21.834 -15 -36.501 -15zM382.001 587.001c-14.667 0 -26.834 5 -36.501 15s-14.5 22.333 -14.5 37s4.83301 26.834 14.5 36.501
s21.834 14.5 36.501 14.5s27 -4.83301 37 -14.5s15 -21.834 15 -36.501s-5 -27 -15 -37s-22.333 -15 -37 -15z" />
    <glyph glyph-name="igrave" unicode="&#xec;" horiz-adv-x="233" 
d="M47 715l98 -156h-69l-124 156h95zM77 0v507h79v-507h-79z" />
    <glyph glyph-name="iacute" unicode="&#xed;" horiz-adv-x="233" 
d="M88 560l99 156h94l-124 -156h-69zM77 0v507h79v-507h-79z" />
    <glyph glyph-name="icircumflex" unicode="&#xee;" horiz-adv-x="233" 
d="M77 0v507h79v-507h-79zM79 716h76l127 -156h-80l-85 105l-85 -105h-80z" />
    <glyph glyph-name="idieresis" unicode="&#xef;" horiz-adv-x="233" 
d="M166 640c0 14.667 4.83301 26.834 14.5 36.501s21.834 14.5 36.501 14.5s27 -4.83301 37 -14.5s15 -21.834 15 -36.501s-5 -27 -15 -37s-22.333 -15 -37 -15s-26.834 5 -36.501 15s-14.5 22.333 -14.5 37zM-36 640c0 14.667 5 26.834 15 36.501s22.333 14.5 37 14.5
s26.834 -4.83301 36.501 -14.5s14.5 -21.834 14.5 -36.501s-4.83301 -27 -14.5 -37s-21.834 -15 -36.501 -15s-27 5 -37 15s-15 22.333 -15 37zM77 0v507h79v-507h-79z" />
    <glyph glyph-name="eth" unicode="&#xf0;" horiz-adv-x="517" 
d="M471 269c0 -90.667 -19.665 -159.666 -58.998 -206.999s-91.833 -71 -157.5 -71s-118.167 20.667 -157.5 62s-59 92.5 -59 153.5s19.667 109.833 59 146.5s88.166 55 146.499 55s107.166 -22.667 146.499 -68c-12 70.667 -41.667 136 -89 196l-140 -72v61l102 52
c-39.333 39.333 -83.333 71.666 -132 96.999h124c26.667 -17.333 51.667 -38 75 -62l122 62v-61l-85 -44c69.333 -89.333 104 -189.333 104 -300zM157.002 101.001c24.667 -24.667 56.667 -37 96 -37s72.5 15.5 99.5 46.5s41.5 79.5 43.5 145.5
c-40 52.667 -90.333 79 -151 79c-36 0 -65.833 -11.833 -89.5 -35.5s-35.5 -56.5 -35.5 -98.5s12.333 -75.333 37 -100z" />
    <glyph glyph-name="ntilde" unicode="&#xf1;" horiz-adv-x="540" 
d="M151 507l0.000976562 -88c30 63.333 83.333 95 160 95c49.333 0 88.666 -15 117.999 -45s44 -70 44 -120v-349h-79v328c0 37.333 -9.5 65.833 -28.5 85.5s-45.667 29.5 -80 29.5s-65.333 -14.667 -93 -44s-41.5 -70 -41.5 -122v-277h-78v507h78zM350.001 590
c-18 0 -41.167 7.33301 -69.5 22s-47.833 22 -58.5 22c-27.333 0 -50 -16 -68 -48l-43 37c9.33301 20 23.166 36.833 41.499 50.5s37.833 20.5 58.5 20.5s45.334 -7.33301 74.001 -22s49 -22 61 -22c22.667 0 40.667 14.333 54 43l49 -34c-21.333 -46 -54.333 -69 -99 -69z
" />
    <glyph glyph-name="ograve" unicode="&#xf2;" horiz-adv-x="562" 
d="M220 716l98 -156h-69l-124 156h95zM398 389.5c-26 36.333 -64.333 54.499 -115 54.499s-89.667 -18.667 -117 -56s-41 -82.666 -41 -135.999s14 -98.5 42 -135.5s66.333 -55.5 115 -55.5s86.667 18.167 114 54.5s41 82 41 137s-13 100.667 -39 137zM455 64.999
c-42.667 -49.333 -100.833 -74 -174.5 -74s-131.667 24.5 -174 73.5s-63.5 111 -63.5 186s21.833 137.667 65.5 188s102.167 75.5 175.5 75.5s130.833 -24.667 172.5 -74s62.5 -111.833 62.5 -187.5s-21.333 -138.167 -64 -187.5z" />
    <glyph glyph-name="oacute" unicode="&#xf3;" horiz-adv-x="562" 
d="M398 389.5c-26 36.333 -64.333 54.499 -115 54.499s-89.667 -18.667 -117 -56s-41 -82.666 -41 -135.999s14 -98.5 42 -135.5s66.333 -55.5 115 -55.5s86.667 18.167 114 54.5s41 82 41 137s-13 100.667 -39 137zM455 64.999c-42.667 -49.333 -100.833 -74 -174.5 -74
s-131.667 24.5 -174 73.5s-63.5 111 -63.5 186s21.833 137.667 65.5 188s102.167 75.5 175.5 75.5s130.833 -24.667 172.5 -74s62.5 -111.833 62.5 -187.5s-21.333 -138.167 -64 -187.5zM258.001 559.999l99 156h94l-124 -156h-69z" />
    <glyph glyph-name="ocircumflex" unicode="&#xf4;" horiz-adv-x="562" 
d="M246 715h76l127 -156h-80l-85 105l-85 -105h-80zM455 65c-42.667 -49.333 -100.833 -74 -174.5 -74s-131.667 24.5 -174 73.5s-63.5 111 -63.5 186s21.833 137.667 65.5 188s102.167 75.5 175.5 75.5s130.833 -24.667 172.5 -74s62.5 -111.833 62.5 -187.5
s-21.333 -138.167 -64 -187.5zM398.001 389.5c-26 36.333 -64.333 54.499 -115 54.499s-89.667 -18.667 -117 -56s-41 -82.666 -41 -135.999s14 -98.5 42 -135.5s66.333 -55.5 115 -55.5s86.667 18.167 114 54.5s41 82 41 137s-13 100.667 -39 137z" />
    <glyph glyph-name="otilde" unicode="&#xf5;" horiz-adv-x="562" 
d="M354 590c-18 0 -41.167 7.33301 -69.5 22s-47.833 22 -58.5 22c-27.333 0 -50 -16 -68 -48l-43 37c9.33301 20 23.166 36.833 41.499 50.5s37.833 20.5 58.5 20.5s45.334 -7.33301 74.001 -22s49 -22 61 -22c22.667 0 40.667 14.333 54 43l49 -34
c-21.333 -46 -54.333 -69 -99 -69zM398 389.5c-26 36.333 -64.333 54.499 -115 54.499s-89.667 -18.667 -117 -56s-41 -82.666 -41 -135.999s14 -98.5 42 -135.5s66.333 -55.5 115 -55.5s86.667 18.167 114 54.5s41 82 41 137s-13 100.667 -39 137zM455 64.999
c-42.667 -49.333 -100.833 -74 -174.5 -74s-131.667 24.5 -174 73.5s-63.5 111 -63.5 186s21.833 137.667 65.5 188s102.167 75.5 175.5 75.5s130.833 -24.667 172.5 -74s62.5 -111.833 62.5 -187.5s-21.333 -138.167 -64 -187.5z" />
    <glyph glyph-name="odieresis" unicode="&#xf6;" horiz-adv-x="562" 
d="M398 389.5c-26 36.333 -64.333 54.499 -115 54.499s-89.667 -18.667 -117 -56s-41 -82.666 -41 -135.999s14 -98.5 42 -135.5s66.333 -55.5 115 -55.5s86.667 18.167 114 54.5s41 82 41 137s-13 100.667 -39 137zM455 64.999c-42.667 -49.333 -100.833 -74 -174.5 -74
s-131.667 24.5 -174 73.5s-63.5 111 -63.5 186s21.833 137.667 65.5 188s102.167 75.5 175.5 75.5s130.833 -24.667 172.5 -74s62.5 -111.833 62.5 -187.5s-21.333 -138.167 -64 -187.5zM339.001 636.999c0 14.667 4.83301 26.834 14.5 36.501s21.834 14.5 36.501 14.5
s27 -4.83301 37 -14.5s15 -21.834 15 -36.501s-5 -27 -15 -37s-22.333 -15 -37 -15s-26.834 5 -36.501 15s-14.5 22.333 -14.5 37zM137.001 636.999c0 14.667 5 26.834 15 36.501s22.333 14.5 37 14.5s26.834 -4.83301 36.501 -14.5s14.5 -21.834 14.5 -36.501
s-4.83301 -27 -14.5 -37s-21.834 -15 -36.501 -15s-27 5 -37 15s-15 22.333 -15 37z" />
    <glyph glyph-name="divide" unicode="&#xf7;" horiz-adv-x="553" 
d="M238.5 124.5c-10.333 10.333 -15.5 22.666 -15.5 36.999s5.16699 26.666 15.5 36.999s22.666 15.5 36.999 15.5s26.666 -5.16699 36.999 -15.5s15.5 -22.666 15.5 -36.999s-5.16699 -26.666 -15.5 -36.999s-22.666 -15.5 -36.999 -15.5s-26.666 5.16699 -36.999 15.5z
M57 304v72h440v-72h-440zM238.5 481.5c-10.333 10.333 -15.5 22.666 -15.5 36.999s5.16699 26.666 15.5 36.999s22.666 15.5 36.999 15.5s26.666 -5.16699 36.999 -15.5s15.5 -22.666 15.5 -36.999s-5.16699 -26.666 -15.5 -36.999s-22.666 -15.5 -36.999 -15.5
s-26.666 5.16699 -36.999 15.5z" />
    <glyph glyph-name="oslash" unicode="&#xf8;" horiz-adv-x="563" 
d="M474 436c39.333 -48.667 59.001 -110.334 59.001 -185.001s-21.333 -136.667 -64 -186s-101.334 -74 -176.001 -74c-48 0 -90.667 11.667 -128 35l-27 -35h-82l59 79c-39.333 47.333 -59 107.833 -59 181.5s22 135.834 66 186.501s101 76 171 76
c50 0 93.667 -11.667 131 -35l26 35h83zM292.001 450c-50 0 -89.001 -19.167 -117.001 -57.5s-42 -83 -42 -134s10 -92.833 30 -125.5l220 292c-25.333 16.667 -55.666 25 -90.999 25zM293 55c52.667 0 93 18.667 121 56s42 82 42 134s-9.33301 95.333 -28 130l-221 -293
c25.333 -18 54 -27 86 -27z" />
    <glyph glyph-name="ugrave" unicode="&#xf9;" horiz-adv-x="540" 
d="M388 507h79v-507h-79v88c-26.667 -62.667 -79.667 -94 -159 -94c-50 0 -89.5 14.833 -118.5 44.5s-43.5 69.5 -43.5 119.5v349h79v-329c0 -36.667 9.33301 -64.667 28 -84s46.5 -29 83.5 -29s68 14.667 93 44s37.5 69 37.5 119v279zM304 559h-69l-124 156h95z" />
    <glyph glyph-name="uacute" unicode="&#xfa;" horiz-adv-x="540" 
d="M388 507h79v-507h-79v88c-26.667 -62.667 -79.667 -94 -159 -94c-50 0 -89.5 14.833 -118.5 44.5s-43.5 69.5 -43.5 119.5v349h79v-329c0 -36.667 9.33301 -64.667 28 -84s46.5 -29 83.5 -29s68 14.667 93 44s37.5 69 37.5 119v279zM433 716l-124 -156h-69l99 156h94z
" />
    <glyph glyph-name="ucircumflex" unicode="&#xfb;" horiz-adv-x="540" 
d="M388 507h79v-507h-79v88c-26.667 -62.667 -79.667 -94 -159 -94c-50 0 -89.5 14.833 -118.5 44.5s-43.5 69.5 -43.5 119.5v349h79v-329c0 -36.667 9.33301 -64.667 28 -84s46.5 -29 83.5 -29s68 14.667 93 44s37.5 69 37.5 119v279zM269 665l-85 -105h-80l127 156h76
l127 -156h-80z" />
    <glyph glyph-name="udieresis" unicode="&#xfc;" horiz-adv-x="540" 
d="M388 507h79v-507h-79v88c-26.667 -62.667 -79.667 -94 -159 -94c-50 0 -89.5 14.833 -118.5 44.5s-43.5 69.5 -43.5 119.5v349h79v-329c0 -36.667 9.33301 -64.667 28 -84s46.5 -29 83.5 -29s68 14.667 93 44s37.5 69 37.5 119v279zM170 585c-14.667 0 -27 5 -37 15
s-15 22.333 -15 37s5 26.834 15 36.501s22.333 14.5 37 14.5s26.834 -4.83301 36.501 -14.5s14.5 -21.834 14.5 -36.501s-4.83301 -27 -14.5 -37s-21.834 -15 -36.501 -15zM371 585c-14.667 0 -26.834 5 -36.501 15s-14.5 22.333 -14.5 37s4.83301 26.834 14.5 36.501
s21.834 14.5 36.501 14.5s27 -4.83301 37 -14.5s15 -21.834 15 -36.501s-5 -27 -15 -37s-22.333 -15 -37 -15z" />
    <glyph glyph-name="yacute" unicode="&#xfd;" horiz-adv-x="493" 
d="M78 -174c-17.333 0 -31.332 1.66699 -41.999 5v71c10 -2.66699 21.333 -4 34 -4c67.333 0 115 38.333 143 115l-205 494h89l155 -397c5.33301 18.667 51.666 151 138.999 397h85l-183 -494c-26 -68.667 -56.833 -117 -92.5 -145s-76.5 -42 -122.5 -42zM222.001 560
l99 156h94l-124 -156h-69z" />
    <glyph glyph-name="thorn" unicode="&#xfe;" horiz-adv-x="567" 
d="M151 707l0.00292969 -276.999c35.333 56.667 87.166 85 155.499 85s121.666 -24.5 159.999 -73.5s57.5 -111.333 57.5 -187s-20.167 -138.334 -60.5 -188.001s-93.333 -74.5 -159 -74.5s-116.834 28.333 -153.501 85v-274h-78v904h78zM196.003 110.001
c30 -30.667 64.835 -46.001 104.502 -46.001s73.167 16.833 100.5 50.5s41 79.834 41 138.501s-13.333 105 -40 139s-60.334 51 -101.001 51s-75.834 -14.833 -105.501 -44.5s-44.5 -77.5 -44.5 -143.5s15 -114.333 45 -145z" />
    <glyph glyph-name="ydieresis" unicode="&#xff;" horiz-adv-x="493" 
d="M78 -174c-17.333 0 -31.332 1.66699 -41.999 5v71c10 -2.66699 21.333 -4 34 -4c67.333 0 115 38.333 143 115l-205 494h89l155 -397c5.33301 18.667 51.666 151 138.999 397h85l-183 -494c-26 -68.667 -56.833 -117 -92.5 -145s-76.5 -42 -122.5 -42zM103.001 637
c0 14.667 5 26.834 15 36.501s22.333 14.5 37 14.5s26.834 -4.83301 36.501 -14.5s14.5 -21.834 14.5 -36.501s-4.83301 -27 -14.5 -37s-21.834 -15 -36.501 -15s-27 5 -37 15s-15 22.333 -15 37zM305.001 637c0 14.667 4.83301 26.834 14.5 36.501s21.834 14.5 36.501 14.5
s27 -4.83301 37 -14.5s15 -21.834 15 -36.501s-5 -27 -15 -37s-22.333 -15 -37 -15s-26.834 5 -36.501 15s-14.5 22.333 -14.5 37z" />
    <glyph glyph-name="Amacron" unicode="&#x100;" horiz-adv-x="648" 
d="M526 0l-59 177h-285l-60 -177h-87l235 674h112l231 -674h-87zM205 246h238.999l-118 363c-9.33301 -34 -49.666 -155 -120.999 -363zM467.999 833v-56h-282v56h282z" />
    <glyph glyph-name="amacron" unicode="&#x101;" horiz-adv-x="492" 
d="M234 515c127.333 0 191 -64.667 191 -194v-321h-78v60c-26 -43.333 -73.333 -65 -142 -65c-47.333 0 -85.5 14 -114.5 42s-43.5 64.833 -43.5 110.5s18.5 82 55.5 109s87.5 40.5 151.5 40.5h92v26c0 40 -9 70.167 -27 90.5s-51.167 30.5 -99.5 30.5
s-93.5 -14.333 -135.5 -43v79c38 23.333 88 35 150 35zM346 234l-88 0.000976562c-42.667 0 -74.667 -8.33301 -96 -25s-32 -37.667 -32 -63s8.33301 -45.833 25 -61.5s42 -23.5 76 -23.5s61.667 10.167 83 30.5s32 46.166 32 77.499v65zM388 666.001v-56h-282v56h282z" />
    <glyph glyph-name="Abreve" unicode="&#x102;" horiz-adv-x="648" 
d="M526 0l-59 177h-285l-60 -177h-87l235 674h112l231 -674h-87zM205 246h238.999l-118 363c-9.33301 -34 -49.666 -155 -120.999 -363zM424.999 882h65.001c0 -48.667 -13.667 -87.334 -41 -116.001s-68.333 -43 -123 -43s-95.834 14.333 -123.501 43
s-41.5 67.334 -41.5 116.001h65c0 -30.667 8 -55.334 24 -74.001s41.167 -28 75.5 -28s59.5 9.33301 75.5 28s24 43.334 24 74.001z" />
    <glyph glyph-name="abreve" unicode="&#x103;" horiz-adv-x="492" 
d="M234 515c127.333 0 191 -64.667 191 -194v-321h-78v60c-26 -43.333 -73.333 -65 -142 -65c-47.333 0 -85.5 14 -114.5 42s-43.5 64.833 -43.5 110.5s18.5 82 55.5 109s87.5 40.5 151.5 40.5h92v26c0 40 -9 70.167 -27 90.5s-51.167 30.5 -99.5 30.5
s-93.5 -14.333 -135.5 -43v79c38 23.333 88 35 150 35zM346 234l-88 0.000976562c-42.667 0 -74.667 -8.33301 -96 -25s-32 -37.667 -32 -63s8.33301 -45.833 25 -61.5s42 -23.5 76 -23.5s61.667 10.167 83 30.5s32 46.166 32 77.499v65zM349 715.001h65.001
c0 -48.667 -13.667 -87.334 -41 -116.001s-68.333 -43 -123 -43s-95.834 14.333 -123.501 43s-41.5 67.334 -41.5 116.001h65c0 -30.667 8 -55.334 24 -74.001s41.167 -28 75.5 -28s59.5 9.33301 75.5 28s24 43.334 24 74.001z" />
    <glyph glyph-name="Aogonek" unicode="&#x104;" horiz-adv-x="646" 
d="M500 -125c0 -19.333 5.66699 -33.999 17 -43.999s28.333 -15 51 -15s44.334 7.33301 65.001 22v-60c-20.667 -13.333 -48.834 -20 -84.501 -20s-64.167 10.333 -85.5 31s-32 47 -32 79c0 56 30.333 103.333 91 142l-56 167h-285l-60 -177h-87l235 674h112l231 -674
c-74.667 -36.667 -112 -78.334 -112 -125.001zM204 246.001h238.999l-118 363c-9.33301 -34 -49.666 -155 -120.999 -363z" />
    <glyph glyph-name="aogonek" unicode="&#x105;" horiz-adv-x="491" 
d="M425 321v-320.999c-74.667 -36.667 -112 -78.334 -112 -125.001c0 -19.333 5.66699 -34 17 -44s28.333 -15 51 -15s44.334 7.33301 65.001 22v-60c-20.667 -13.333 -48.834 -20 -84.501 -20s-64.167 10.333 -85.5 31s-32 46.5 -32 77.5s9.66699 59.167 29 84.5
s44 47 74 65v47c-34 -45.333 -81.333 -68 -142 -68c-47.333 0 -85.5 13.5 -114.5 40.5s-43.5 63.833 -43.5 110.5s18.667 83.667 56 111s88.333 41 153 41h90v25c0 40 -9 70.167 -27 90.5s-51 30.5 -99 30.5s-93.333 -14 -136 -42v77c38.667 24 88.667 36 150 36
c127.333 0 191 -64.667 191 -194zM346 232.001l-75 0.000976562c-94.667 0 -142 -29 -142 -87c0 -24.667 8.5 -44.334 25.5 -59.001s42 -22 75 -22s60.667 9.66699 83 29s33.5 42.333 33.5 69v70z" />
    <glyph glyph-name="Cacute" unicode="&#x106;" horiz-adv-x="602" 
d="M330 727l99 156h94l-124 -156h-69zM387 607c-72.667 0 -133.168 -24.666 -181.501 -73.999s-72.5 -114.5 -72.5 -195.5s24 -146.167 72 -195.5s111.667 -74 191 -74c64 0 118.667 17 164 51v-85c-41.333 -28 -98 -42 -170 -42c-101.333 0 -183.666 31.167 -246.999 93.5
s-95 145.666 -95 249.999s32.167 188.333 96.5 252s145.166 95.5 242.499 95.5c70 0 127 -12 171 -36v-83c-29.333 15.333 -55.666 26.333 -78.999 33s-54 10 -92 10z" />
    <glyph glyph-name="cacute" unicode="&#x107;" horiz-adv-x="471" 
d="M314 60c38.667 0 74.666 11 107.999 33v-75c-32 -19.333 -71.333 -29 -118 -29c-80 0 -143.5 25.5 -190.5 76.5s-70.5 112.833 -70.5 185.5s23.5 135 70.5 187s111.167 78 192.5 78c43.333 0 82 -9.33301 116 -28v-75c-30.667 20.667 -66.667 31 -108 31
c-57.333 0 -103.166 -18.5 -137.499 -55.5s-51.333 -82.833 -51 -137.5s16.833 -100.167 49.5 -136.5s79 -54.5 139 -54.5zM258.999 559l99 156h94l-124 -156h-69z" />
    <glyph glyph-name="Ccircumflex" unicode="&#x108;" horiz-adv-x="602" 
d="M325 883h76l127 -156h-80l-85 105l-85 -105h-80zM387 607c-72.667 0 -133.168 -24.666 -181.501 -73.999s-72.5 -114.5 -72.5 -195.5s24 -146.167 72 -195.5s111.667 -74 191 -74c64 0 118.667 17 164 51v-85c-41.333 -28 -98 -42 -170 -42
c-101.333 0 -183.666 31.167 -246.999 93.5s-95 145.666 -95 249.999s32.167 188.333 96.5 252s145.166 95.5 242.499 95.5c70 0 127 -12 171 -36v-83c-29.333 15.333 -55.666 26.333 -78.999 33s-54 10 -92 10z" />
    <glyph glyph-name="ccircumflex" unicode="&#x109;" horiz-adv-x="471" 
d="M231 716h76l127 -156h-80l-85 105l-85 -105h-80zM314 444c-57.333 0 -103.167 -18.5 -137.5 -55.5s-51.333 -82.833 -51 -137.5s16.833 -100.167 49.5 -136.5s79 -54.5 139 -54.5c38.667 0 74.667 11 108 33v-75c-32 -19.333 -71.333 -29 -118 -29
c-80 0 -143.5 25.5 -190.5 76.5s-70.5 112.833 -70.5 185.5s23.5 135 70.5 187s111.167 78 192.5 78c43.333 0 82 -9.33301 116 -28v-75c-30.667 20.667 -66.667 31 -108 31z" />
    <glyph glyph-name="Cdotaccent" unicode="&#x10a;" horiz-adv-x="602" 
d="M387 607c-72.667 0 -133.168 -24.666 -181.501 -73.999s-72.5 -114.5 -72.5 -195.5s24 -146.167 72 -195.5s111.667 -74 191 -74c64 0 118.667 17 164 51v-85c-41.333 -28 -98 -42 -170 -42c-101.333 0 -183.666 31.167 -246.999 93.5s-95 145.666 -95 249.999
s32.167 188.333 96.5 252s145.166 95.5 242.499 95.5c70 0 127 -12 171 -36v-83c-29.333 15.333 -55.666 26.333 -78.999 33s-54 10 -92 10zM319.999 808.001c0 14.667 5 26.834 15 36.501s22.333 14.5 37 14.5s26.834 -4.83301 36.501 -14.5s14.5 -21.834 14.5 -36.501
s-4.83301 -27 -14.5 -37s-21.834 -15 -36.501 -15s-27 5 -37 15s-15 22.333 -15 37z" />
    <glyph glyph-name="cdotaccent" unicode="&#x10b;" horiz-adv-x="471" 
d="M248 639c0 14.667 5 26.834 15 36.501s22.333 14.5 37 14.5s26.834 -4.83301 36.501 -14.5s14.5 -21.834 14.5 -36.501s-4.83301 -27 -14.5 -37s-21.834 -15 -36.501 -15s-27 5 -37 15s-15 22.333 -15 37zM314 60c38.667 0 74.666 11 107.999 33v-75
c-32 -19.333 -71.333 -29 -118 -29c-80 0 -143.5 25.5 -190.5 76.5s-70.5 112.833 -70.5 185.5s23.5 135 70.5 187s111.167 78 192.5 78c43.333 0 82 -9.33301 116 -28v-75c-30.667 20.667 -66.667 31 -108 31c-57.333 0 -103.166 -18.5 -137.499 -55.5
s-51.333 -82.833 -51 -137.5s16.833 -100.167 49.5 -136.5s79 -54.5 139 -54.5z" />
    <glyph glyph-name="Ccaron" unicode="&#x10c;" horiz-adv-x="602" 
d="M416 727h-76l-127 156h80l86 -105l84 105h80zM387 607c-72.667 0 -133.168 -24.666 -181.501 -73.999s-72.5 -114.5 -72.5 -195.5s24 -146.167 72 -195.5s111.667 -74 191 -74c64 0 118.667 17 164 51v-85c-41.333 -28 -98 -42 -170 -42
c-101.333 0 -183.666 31.167 -246.999 93.5s-95 145.666 -95 249.999s32.167 188.333 96.5 252s145.166 95.5 242.499 95.5c70 0 127 -12 171 -36v-83c-29.333 15.333 -55.666 26.333 -78.999 33s-54 10 -92 10z" />
    <glyph glyph-name="ccaron" unicode="&#x10d;" horiz-adv-x="471" 
d="M313 560h-76l-127 156h80l86 -105l84 105h80zM314 444c-57.333 0 -103.167 -18.5 -137.5 -55.5s-51.333 -82.833 -51 -137.5s16.833 -100.167 49.5 -136.5s79 -54.5 139 -54.5c38.667 0 74.667 11 108 33v-75c-32 -19.333 -71.333 -29 -118 -29
c-80 0 -143.5 25.5 -190.5 76.5s-70.5 112.833 -70.5 185.5s23.5 135 70.5 187s111.167 78 192.5 78c43.333 0 82 -9.33301 116 -28v-75c-30.667 20.667 -66.667 31 -108 31z" />
    <glyph glyph-name="Dcaron" unicode="&#x10e;" horiz-adv-x="661" 
d="M77 674l200 0.000976562c99.333 0 180.833 -30.833 244.5 -92.5s95.5 -141.334 95.5 -239.001s-29.5 -179.167 -88.5 -244.5s-141.5 -98 -247.5 -98h-204v674zM159 71.001h121c83.333 0 146.333 25.833 189 77.5s64 115.167 64 190.5s-23.833 138 -71.5 188
s-109.5 75 -185.5 75h-117v-531zM344 726.001h-76l-127 156h80l86 -105l84 105h80z" />
    <glyph glyph-name="dcaron" unicode="&#x10f;" horiz-adv-x="660" 
d="M636 707h92l-111 -192h-65zM415 707h79v-707h-79v75c-36 -55.333 -87.833 -83 -155.5 -83s-120.667 25 -159 75s-57.5 112.667 -57.5 188s20.333 137.5 61 186.5s93.5 73.5 158.5 73.5s115.833 -28.333 152.5 -85v277zM165 115c26.667 -34 60.5 -51 101.5 -51
s76 15.333 105 46s43.5 78.834 43.5 144.501s-15 113.5 -45 143.5s-64.5 45 -103.5 45s-72.333 -16.833 -100 -50.5s-41.5 -79.834 -41.5 -138.501s13.333 -105 40 -139z" />
    <glyph glyph-name="Dcroat" unicode="&#x110;" horiz-adv-x="730" 
d="M146 674l200 0.000976562c100 0 181.667 -30.833 245 -92.5s95 -141.334 95 -239.001s-29.5 -179.167 -88.5 -244.5s-141.5 -98 -247.5 -98h-204v304h-85v68h85v302zM228 71.001h122c42.667 0 80.5 7.33301 113.5 22s59.167 35 78.5 61c40 51.333 60 113.833 60 187.5
s-23.667 135.5 -71 185.5s-109.333 75 -186 75h-117v-230h175v-68h-175v-233z" />
    <glyph glyph-name="dcroat" unicode="&#x111;" horiz-adv-x="567" 
d="M565 642v-55h-71v-587h-79v75c-36 -55.333 -87.833 -83 -155.5 -83s-120.667 25 -159 75s-57.5 112.667 -57.5 188s20.333 137.5 61 186.5s93.5 73.5 158.5 73.5s115.833 -28.333 152.5 -85v157h-193v55h193v65h79v-65h71zM165 115c26.667 -34 60.5 -51 101.5 -51
s76 15.333 105 46s43.5 78.834 43.5 144.501s-15 113.5 -45 143.5s-64.5 45 -103.5 45s-72.333 -16.833 -100 -50.5s-41.5 -79.834 -41.5 -138.501s13.333 -105 40 -139z" />
    <glyph glyph-name="Emacron" unicode="&#x112;" horiz-adv-x="501" 
d="M158 71h295v-71h-376v674h371v-71h-290v-231h256v-71h-256v-230zM404 834v-56h-282v56h282z" />
    <glyph glyph-name="emacron" unicode="&#x113;" horiz-adv-x="522" 
d="M299 -5c-76.667 0 -138.5 23.501 -185.5 70.501s-70.5 110 -70.5 189s21 141.833 63 188.5s95.333 70 160 70s115.667 -20.333 153 -61s56 -98.334 56 -173.001c0 -21.333 -1.66699 -41 -5 -59h-346c6 -50 25 -88.333 57 -115s75.167 -40 129.5 -40s98.5 11.667 132.5 35
v-74c-39.333 -20.667 -87.333 -31 -144 -31zM396 286.001l0.000976562 20c0 42 -11.333 75.5 -34 100.5s-53.5 37.5 -92.5 37.5s-71.833 -13.667 -98.5 -41s-42.334 -66.333 -47.001 -117h272zM417.001 666.001v-56h-282v56h282z" />
    <glyph glyph-name="Ebreve" unicode="&#x114;" horiz-adv-x="501" 
d="M158 71h295v-71h-376v674h371v-71h-290v-231h256v-71h-256v-230zM368 883h65.001c0 -48.667 -13.667 -87.334 -41 -116.001s-68.333 -43 -123 -43s-95.834 14.333 -123.501 43s-41.5 67.334 -41.5 116.001h65c0 -30.667 8 -55.334 24 -74.001s41.167 -28 75.5 -28
s59.5 9.33301 75.5 28s24 43.334 24 74.001z" />
    <glyph glyph-name="ebreve" unicode="&#x115;" horiz-adv-x="522" 
d="M299 -5c-76.667 0 -138.5 23.501 -185.5 70.501s-70.5 110 -70.5 189s21 141.833 63 188.5s95.333 70 160 70s115.667 -20.333 153 -61s56 -98.334 56 -173.001c0 -21.333 -1.66699 -41 -5 -59h-346c6 -50 25 -88.333 57 -115s75.167 -40 129.5 -40s98.5 11.667 132.5 35
v-74c-39.333 -20.667 -87.333 -31 -144 -31zM396 286.001l0.000976562 20c0 42 -11.333 75.5 -34 100.5s-53.5 37.5 -92.5 37.5s-71.833 -13.667 -98.5 -41s-42.334 -66.333 -47.001 -117h272zM374.001 716.001h65.001c0 -48.667 -13.667 -87.334 -41 -116.001
s-68.333 -43 -123 -43s-95.834 14.333 -123.501 43s-41.5 67.334 -41.5 116.001h65c0 -30.667 8 -55.334 24 -74.001s41.167 -28 75.5 -28s59.5 9.33301 75.5 28s24 43.334 24 74.001z" />
    <glyph glyph-name="Edotaccent" unicode="&#x116;" horiz-adv-x="501" 
d="M158 71h295v-71h-376v674h371v-71h-290v-231h256v-71h-256v-230zM275 755c-14.667 0 -27 5 -37 15s-15 22.333 -15 37s5 26.834 15 36.501s22.333 14.5 37 14.5s26.834 -4.83301 36.501 -14.5s14.5 -21.834 14.5 -36.501s-4.83301 -27 -14.5 -37s-21.834 -15 -36.501 -15
z" />
    <glyph glyph-name="edotaccent" unicode="&#x117;" horiz-adv-x="522" 
d="M299 -5c-76.667 0 -138.5 23.501 -185.5 70.501s-70.5 110 -70.5 189s21 141.833 63 188.5s95.333 70 160 70s115.667 -20.333 153 -61s56 -98.334 56 -173.001c0 -21.333 -1.66699 -41 -5 -59h-346c6 -50 25 -88.333 57 -115s75.167 -40 129.5 -40s98.5 11.667 132.5 35
v-74c-39.333 -20.667 -87.333 -31 -144 -31zM396 286.001l0.000976562 20c0 42 -11.333 75.5 -34 100.5s-53.5 37.5 -92.5 37.5s-71.833 -13.667 -98.5 -41s-42.334 -66.333 -47.001 -117h272zM282.001 587.001c-14.667 0 -27 5 -37 15s-15 22.333 -15 37
s5 26.834 15 36.501s22.333 14.5 37 14.5s26.834 -4.83301 36.501 -14.5s14.5 -21.834 14.5 -36.501s-4.83301 -27 -14.5 -37s-21.834 -15 -36.501 -15z" />
    <glyph glyph-name="Eogonek" unicode="&#x118;" horiz-adv-x="501" 
d="M453 0h-89c-75.333 -37.333 -113 -79 -113 -125c0 -19.333 5.83301 -34 17.5 -44s29 -15 52 -15s44.167 7.33301 63.5 22v-61c-21.333 -12.667 -49.5 -19 -84.5 -19s-63.167 10.333 -84.5 31s-32 47 -32 79c0 49.333 26 93.333 78 132h-184v674h371v-71h-290v-231h256
v-71h-256v-230h295v-71z" />
    <glyph glyph-name="eogonek" unicode="&#x119;" horiz-adv-x="522" 
d="M386 -219c-21.333 -12.667 -49.5 -18.998 -84.5 -18.998s-63.167 10.333 -84.5 31s-32 47 -32 79c0 46 23.333 88 70 126c-64.667 9.33301 -116.167 36.666 -154.5 81.999s-57.5 105.5 -57.5 180.5s21 135.833 63 182.5s95.333 70 160 70s115.667 -20.333 153 -61
s56 -98.334 56 -173.001c0 -21.333 -1.66699 -41 -5 -59h-346c6 -50 25 -88.333 57 -115s75.167 -40 129.5 -40s98.5 11.667 132.5 35v-74c-22.667 -12 -51 -20.667 -85 -26c-70 -36.667 -105 -77 -105 -121c0 -19.333 5.83301 -34 17.5 -44s29 -15 52 -15
s44.167 7.33301 63.5 22v-61zM396 286.002l0.000976562 20c0 42 -11.333 75.5 -34 100.5s-53.5 37.5 -92.5 37.5s-71.833 -13.667 -98.5 -41s-42.334 -66.333 -47.001 -117h272z" />
    <glyph glyph-name="Ecaron" unicode="&#x11a;" horiz-adv-x="501" 
d="M158 71h295v-71h-376v674h371v-71h-290v-231h256v-71h-256v-230zM309 726h-76l-127 156h80l86 -105l84 105h80z" />
    <glyph glyph-name="ecaron" unicode="&#x11b;" horiz-adv-x="522" 
d="M299 -5c-76.667 0 -138.5 23.501 -185.5 70.501s-70.5 110 -70.5 189s21 141.833 63 188.5s95.333 70 160 70s115.667 -20.333 153 -61s56 -98.334 56 -173.001c0 -21.333 -1.66699 -41 -5 -59h-346c6 -50 25 -88.333 57 -115s75.167 -40 129.5 -40s98.5 11.667 132.5 35
v-74c-39.333 -20.667 -87.333 -31 -144 -31zM396 286.001l0.000976562 20c0 42 -11.333 75.5 -34 100.5s-53.5 37.5 -92.5 37.5s-71.833 -13.667 -98.5 -41s-42.334 -66.333 -47.001 -117h272zM312.001 560.001h-76l-127 156h80l86 -105l84 105h80z" />
    <glyph glyph-name="Gcircumflex" unicode="&#x11c;" horiz-adv-x="670" 
d="M603 378l0.000976562 -322.001h-1l1 -3c-54 -40.667 -123.667 -61 -209 -61c-104 0 -187.667 30.833 -251 92.5s-95 144.834 -95 249.501s31.5 189.5 94.5 254.5s142.5 97.5 238.5 97.5c79.333 0 145 -15.333 197 -46v-87c-54.667 36 -118.834 54 -192.501 54
s-134.167 -24.5 -181.5 -73.5s-71 -114.667 -71 -197s23.333 -147.333 70 -195s111 -71.5 193 -71.5c45.333 0 87.333 9 126 27v210h-148v71h229zM366.001 830.999l-85 -105h-80l127 156h76l127 -156h-80z" />
    <glyph glyph-name="gcircumflex" unicode="&#x11d;" horiz-adv-x="549" 
d="M403 507l78.999 -0.00195312v-466c0 -77.333 -21.333 -135.5 -64 -174.5s-96.167 -58.5 -160.5 -58.5s-118.166 10.333 -161.499 31v79c42.667 -24.667 90.667 -37 144 -37c108.667 0 163 53.667 163 161v57c-33.333 -57.333 -81 -86 -143 -86s-113.5 21.333 -154.5 64
s-61.5 101.834 -61.5 177.501s19 137.834 57 186.501s89.667 73 155 73s114.333 -30.333 147 -91v84zM167.999 127.498c28 -29.667 60 -44.498 96 -44.498s68.167 14.167 96.5 42.5s42.5 72.666 42.5 132.999s-13.667 106.166 -41 137.499s-60.833 47 -100.5 47
s-72.167 -17.167 -97.5 -51.5s-38 -79.5 -38 -135.5s14 -98.833 42 -128.5zM276.999 665l-85 -105h-80l127 156h76l127 -156h-80z" />
    <glyph glyph-name="Gbreve" unicode="&#x11e;" horiz-adv-x="670" 
d="M603 378l0.000976562 -322.001h-1l1 -3c-54 -40.667 -123.667 -61 -209 -61c-104 0 -187.667 30.833 -251 92.5s-95 144.834 -95 249.501s31.5 189.5 94.5 254.5s142.5 97.5 238.5 97.5c79.333 0 145 -15.333 197 -46v-87c-54.667 36 -118.834 54 -192.501 54
s-134.167 -24.5 -181.5 -73.5s-71 -114.667 -71 -197s23.333 -147.333 70 -195s111 -71.5 193 -71.5c45.333 0 87.333 9 126 27v210h-148v71h229zM468.001 882.999h65.001c0 -48.667 -13.667 -87.334 -41 -116.001s-68.333 -43 -123 -43s-95.834 14.333 -123.501 43
s-41.5 67.334 -41.5 116.001h65c0 -30.667 8 -55.334 24 -74.001s41.167 -28 75.5 -28s59.5 9.33301 75.5 28s24 43.334 24 74.001z" />
    <glyph glyph-name="gbreve" unicode="&#x11f;" horiz-adv-x="549" 
d="M403 507l78.999 -0.00195312v-466c0 -77.333 -21.333 -135.5 -64 -174.5s-96.167 -58.5 -160.5 -58.5s-118.166 10.333 -161.499 31v79c42.667 -24.667 90.667 -37 144 -37c108.667 0 163 53.667 163 161v57c-33.333 -57.333 -81 -86 -143 -86s-113.5 21.333 -154.5 64
s-61.5 101.834 -61.5 177.501s19 137.834 57 186.501s89.667 73 155 73s114.333 -30.333 147 -91v84zM167.999 127.498c28 -29.667 60 -44.498 96 -44.498s68.167 14.167 96.5 42.5s42.5 72.666 42.5 132.999s-13.667 106.166 -41 137.499s-60.833 47 -100.5 47
s-72.167 -17.167 -97.5 -51.5s-38 -79.5 -38 -135.5s14 -98.833 42 -128.5zM390.999 716h65.001c0 -48.667 -13.667 -87.334 -41 -116.001s-68.333 -43 -123 -43s-95.834 14.333 -123.501 43s-41.5 67.334 -41.5 116.001h65c0 -30.667 8 -55.334 24 -74.001
s41.167 -28 75.5 -28s59.5 9.33301 75.5 28s24 43.334 24 74.001z" />
    <glyph glyph-name="Gdotaccent" unicode="&#x120;" horiz-adv-x="670" 
d="M603 378l0.000976562 -322.001h-1l1 -3c-54 -40.667 -123.667 -61 -209 -61c-104 0 -187.667 30.833 -251 92.5s-95 144.834 -95 249.501s31.5 189.5 94.5 254.5s142.5 97.5 238.5 97.5c79.333 0 145 -15.333 197 -46v-87c-54.667 36 -118.834 54 -192.501 54
s-134.167 -24.5 -181.5 -73.5s-71 -114.667 -71 -197s23.333 -147.333 70 -195s111 -71.5 193 -71.5c45.333 0 87.333 9 126 27v210h-148v71h229zM375.001 753.999c-14.667 0 -27 5 -37 15s-15 22.333 -15 37s5 26.834 15 36.501s22.333 14.5 37 14.5
s26.834 -4.83301 36.501 -14.5s14.5 -21.834 14.5 -36.501s-4.83301 -27 -14.5 -37s-21.834 -15 -36.501 -15z" />
    <glyph glyph-name="gdotaccent" unicode="&#x121;" horiz-adv-x="549" 
d="M403 507l78.999 -0.00195312v-466c0 -77.333 -21.333 -135.5 -64 -174.5s-96.167 -58.5 -160.5 -58.5s-118.166 10.333 -161.499 31v79c42.667 -24.667 90.667 -37 144 -37c108.667 0 163 53.667 163 161v57c-33.333 -57.333 -81 -86 -143 -86s-113.5 21.333 -154.5 64
s-61.5 101.834 -61.5 177.501s19 137.834 57 186.501s89.667 73 155 73s114.333 -30.333 147 -91v84zM167.999 127.498c28 -29.667 60 -44.498 96 -44.498s68.167 14.167 96.5 42.5s42.5 72.666 42.5 132.999s-13.667 106.166 -41 137.499s-60.833 47 -100.5 47
s-72.167 -17.167 -97.5 -51.5s-38 -79.5 -38 -135.5s14 -98.833 42 -128.5zM304.999 587c-14.667 0 -27 5 -37 15s-15 22.333 -15 37s5 26.834 15 36.501s22.333 14.5 37 14.5s26.834 -4.83301 36.501 -14.5s14.5 -21.834 14.5 -36.501s-4.83301 -27 -14.5 -37
s-21.834 -15 -36.501 -15z" />
    <glyph glyph-name="uni0122" unicode="&#x122;" horiz-adv-x="670" 
d="M603 378l0.000976562 -322.001h-1l1 -3c-54 -40.667 -123.667 -61 -209 -61c-104 0 -187.667 30.833 -251 92.5s-95 144.834 -95 249.501s31.5 189.5 94.5 254.5s142.5 97.5 238.5 97.5c79.333 0 145 -15.333 197 -46v-87c-54.667 36 -118.834 54 -192.501 54
s-134.167 -24.5 -181.5 -73.5s-71 -114.667 -71 -197s23.333 -147.333 70 -195s111 -71.5 193 -71.5c45.333 0 87.333 9 126 27v210h-148v71h229zM245.001 -243.001l84 192h92l-111 -192h-65z" />
    <glyph glyph-name="uni0123" unicode="&#x123;" horiz-adv-x="549" 
d="M403 507l78.999 -0.00195312v-466c0 -77.333 -21.333 -135.5 -64 -174.5s-96.167 -58.5 -160.5 -58.5s-118.166 10.333 -161.499 31v79c42.667 -24.667 90.667 -37 144 -37c108.667 0 163 53.667 163 161v57c-33.333 -57.333 -81 -86 -143 -86s-113.5 21.333 -154.5 64
s-61.5 101.834 -61.5 177.501s19 137.834 57 186.501s89.667 73 155 73s114.333 -30.333 147 -91v84zM167.999 127.498c28 -29.667 60 -44.498 96 -44.498s68.167 14.167 96.5 42.5s42.5 72.666 42.5 132.999s-13.667 106.166 -41 137.499s-60.833 47 -100.5 47
s-72.167 -17.167 -97.5 -51.5s-38 -79.5 -38 -135.5s14 -98.833 42 -128.5zM437.999 752l-85 -192h-91l111 192h65z" />
    <glyph glyph-name="Hcircumflex" unicode="&#x124;" horiz-adv-x="643" 
d="M485 674h81v-674h-81v305h-327v-305h-81v674h81v-296h327v296zM325 831l-85 -105h-80l127 156h76l127 -156h-80z" />
    <glyph glyph-name="hcircumflex" unicode="&#x125;" horiz-adv-x="540" 
d="M151 707l-0.000976562 -288c30 63.333 83.333 95 160 95c48.667 0 87.834 -15 117.501 -45s44.5 -70.667 44.5 -122v-347h-79v328c0 36.667 -9.5 65 -28.5 85s-45.5 30 -79.5 30s-65 -14.333 -93 -43s-42 -69.667 -42 -123v-277h-78v707h78zM198.999 760l-85 105
l-85 -105h-80l127 156h76l127 -156h-80z" />
    <glyph glyph-name="Hbar" unicode="&#x126;" horiz-adv-x="706" 
d="M672 570v-57h-74v-513h-82v305h-327v-305h-81v513h-75v57h75v104h81v-104h327v104h82v-104h74zM516 378v135h-327v-135h327z" />
    <glyph glyph-name="hbar" unicode="&#x127;" horiz-adv-x="540" 
d="M151 587l-0.000976562 -168c30 63.333 83.333 95 160 95c48.667 0 87.834 -15 117.501 -45s44.5 -70.667 44.5 -122v-347h-79v328c0 36.667 -9.5 65 -28.5 85s-45.5 30 -79.5 30s-65 -14.333 -93 -43s-42 -69.667 -42 -123v-277h-78v587h-72v55h72v65h78v-65h186v-55
h-186z" />
    <glyph glyph-name="Itilde" unicode="&#x128;" horiz-adv-x="247" 
d="M193 755c-18 0 -41.167 7.33301 -69.5 22s-47.833 22 -58.5 22c-27.333 0 -50 -16 -68 -48l-43 37c9.33301 20 23.166 36.833 41.499 50.5s37.833 20.5 58.5 20.5s45.334 -7.33301 74.001 -22s49 -22 61 -22c22.667 0 40.667 14.333 54 43l49 -34
c-21.333 -46 -54.333 -69 -99 -69zM83 0v674h81v-674h-81z" />
    <glyph glyph-name="itilde" unicode="&#x129;" horiz-adv-x="233" 
d="M187 586c-18 0 -41.167 7.33301 -69.5 22s-47.833 22 -58.5 22c-27.333 0 -50 -16 -68 -48l-43 37c9.33301 20 23.166 36.833 41.499 50.5s37.833 20.5 58.5 20.5s45.334 -7.33301 74.001 -22s49 -22 61 -22c22.667 0 40.667 14.333 54 43l49 -34
c-21.333 -46 -54.333 -69 -99 -69zM77 0v507h79v-507h-79z" />
    <glyph glyph-name="Imacron" unicode="&#x12a;" horiz-adv-x="247" 
d="M265 777h-282v56h282v-56zM83 0v674h81v-674h-81z" />
    <glyph glyph-name="imacron" unicode="&#x12b;" horiz-adv-x="233" 
d="M258 610h-282v56h282v-56zM77 0v507h79v-507h-79z" />
    <glyph glyph-name="Ibreve" unicode="&#x12c;" horiz-adv-x="247" 
d="M83 0v674h81v-674h-81zM-40 883h65.001c0 -30.667 8 -55.334 24 -74.001s41.167 -28 75.5 -28s59.5 9.33301 75.5 28s24 43.334 24 74.001h65c0 -48.667 -13.667 -87.334 -41 -116.001s-68.333 -43 -123 -43s-95.834 14.333 -123.501 43s-41.5 67.334 -41.5 116.001z" />
    <glyph glyph-name="ibreve" unicode="&#x12d;" horiz-adv-x="233" 
d="M77 0v507h79v-507h-79zM-48 716h65.001c0 -30.667 8 -55.334 24 -74.001s41.167 -28 75.5 -28s59.5 9.33301 75.5 28s24 43.334 24 74.001h65c0 -48.667 -13.667 -87.334 -41 -116.001s-68.333 -43 -123 -43s-95.834 14.333 -123.501 43s-41.5 67.334 -41.5 116.001z" />
    <glyph glyph-name="Iogonek" unicode="&#x12e;" horiz-adv-x="247" 
d="M52 -125c0 -19.333 5.83301 -34 17.5 -44s29 -15 52 -15s44.167 7.33301 63.5 22v-61c-21.333 -12.667 -49.5 -19 -84.5 -19s-63.167 10.333 -84.5 31s-32 47 -32 79c0 57.333 33 106 99 146v660h81v-673l1 -1c-75.333 -37.333 -113 -79 -113 -125z" />
    <glyph glyph-name="iogonek" unicode="&#x12f;" horiz-adv-x="233" 
d="M156 507v-507c-75.333 -37.333 -113 -79 -113 -125c0 -19.333 5.83301 -34 17.5 -44s29 -15 52 -15s44.167 7.33301 63.5 22v-61c-21.333 -12.667 -49.5 -19 -84.5 -19s-63.167 10.333 -84.5 31s-32 46.5 -32 77.5s9.5 59.333 28.5 85s43.5 47.167 73.5 64.5v491h79z
M116 615c-14.667 0 -26.834 4.83301 -36.501 14.5s-14.5 21.834 -14.5 36.501s4.83301 27 14.5 37s21.834 15 36.501 15s27 -5 37 -15s15 -22.333 15 -37s-5 -26.834 -15 -36.501s-22.333 -14.5 -37 -14.5z" />
    <glyph glyph-name="Idotaccent" unicode="&#x130;" horiz-adv-x="247" 
d="M73 808c0 14.667 5 26.834 15 36.501s22.333 14.5 37 14.5s26.834 -4.83301 36.501 -14.5s14.5 -21.834 14.5 -36.501s-4.83301 -27 -14.5 -37s-21.834 -15 -36.501 -15s-27 5 -37 15s-15 22.333 -15 37zM83 0v674h81v-674h-81z" />
    <glyph glyph-name="dotlessi" unicode="&#x131;" horiz-adv-x="233" 
d="M77 0v507h79v-507h-79z" />
    <glyph glyph-name="IJ" unicode="&#x132;" horiz-adv-x="563" 
d="M319 74c58 0 87 30.667 87 92v508h81v-501c0 -115.333 -52.333 -173 -157 -173c-37.333 -0 -69 7.33301 -95 22v78c26.667 -17.333 54.667 -26 84 -26zM83 0v674h81v-674h-81z" />
    <glyph glyph-name="ij" unicode="&#x133;" horiz-adv-x="455" 
d="M291 666c0 14.667 4.83301 27 14.5 37s21.834 15 36.501 15s27 -5 37 -15s15 -22.333 15 -37s-5 -26.834 -15 -36.501s-22.333 -14.5 -37 -14.5s-26.834 4.83301 -36.501 14.5s-14.5 21.834 -14.5 36.501zM248 -126c37.333 0 56 24.333 56 73v560h78v-562
c0 -44 -11.5 -78.333 -34.5 -103s-54.833 -37 -95.5 -37c-22 0 -46 5 -72 15v70c25.333 -10.667 48 -16 68 -16zM62 666c0 14.667 4.83301 27 14.5 37s21.834 15 36.501 15s27 -5 37 -15s15 -22.333 15 -37s-5 -26.834 -15 -36.501s-22.333 -14.5 -37 -14.5
s-26.834 4.83301 -36.501 14.5s-14.5 21.834 -14.5 36.501zM74 0v507h79v-507h-79z" />
    <glyph glyph-name="Jcircumflex" unicode="&#x134;" horiz-adv-x="398" 
d="M205 882h76l127 -156h-80l-85 105l-85 -105h-80zM114 74c58 0 87 30.667 87 92v508h81v-501c0 -115.333 -52.333 -173 -157 -173c-37.333 -0 -69 7.33301 -95 22v78c26.667 -17.333 54.667 -26 84 -26z" />
    <glyph glyph-name="jcircumflex" unicode="&#x135;" horiz-adv-x="228" 
d="M22 -126c37.333 0 56 24.333 56 73v560h78v-562c0 -44 -11.5 -78.333 -34.5 -103s-54.833 -37 -95.5 -37c-22 0 -46 5 -72 15v70c25.333 -10.667 48 -16 68 -16zM80 716h76l127 -156h-80l-85 105l-85 -105h-80z" />
    <glyph glyph-name="uni0136" unicode="&#x136;" horiz-adv-x="573" 
d="M274 333l271 -333h-105l-266 333l257 341h100zM165 -243l85 192h91l-111 -192h-65zM77 0v674h81v-674h-81z" />
    <glyph glyph-name="uni0137" unicode="&#x137;" horiz-adv-x="480" 
d="M254 266l206 -266h-95l-204 266l199 241h94zM117 -243l85 192h91l-111 -192h-65zM151 703v-703h-78v703h78z" />
    <glyph glyph-name="kgreenlandic" unicode="&#x138;" horiz-adv-x="480" 
d="M254 266l206 -266h-95l-204 266l199 241h94zM73 0v507h78v-507h-78z" />
    <glyph glyph-name="Lacute" unicode="&#x139;" horiz-adv-x="477" 
d="M158 674v-601h287v-73h-368v674h81zM448 883l-124 -156h-69l99 156h94z" />
    <glyph glyph-name="lacute" unicode="&#x13a;" horiz-adv-x="233" 
d="M77 0v707h79v-707h-79zM84 760l99 156h94l-124 -156h-69z" />
    <glyph glyph-name="uni013B" unicode="&#x13b;" horiz-adv-x="477" 
d="M158 73h287v-73h-368v674h81v-601zM139 -243l84 192h92l-111 -192h-65z" />
    <glyph glyph-name="uni013C" unicode="&#x13c;" horiz-adv-x="233" 
d="M-13 -243l84 192h92l-111 -192h-65zM77 0v707h79v-707h-79z" />
    <glyph glyph-name="Lcaron" unicode="&#x13d;" horiz-adv-x="477" 
d="M158 73h287v-73h-368v674h81v-601zM424 701l-111 -192h-65l85 192h91z" />
    <glyph glyph-name="lcaron" unicode="&#x13e;" horiz-adv-x="259" 
d="M223 515l85 192h91l-111 -192h-65zM77 0v707h79v-707h-79z" />
    <glyph glyph-name="Ldot" unicode="&#x13f;" horiz-adv-x="485" 
d="M158 73h287v-73h-368v674h81v-601zM360 326c-11.333 -10.667 -25.167 -16 -41.5 -16s-29.833 5.33301 -40.5 16s-16 24 -16 40s5.5 29.667 16.5 41s24.5 17 40.5 17s29.667 -5.66699 41 -17s17 -25 17 -41s-5.66699 -29.333 -17 -40z" />
    <glyph glyph-name="ldot" unicode="&#x140;" horiz-adv-x="383" 
d="M257 321c-10.667 10.667 -15.999 24.167 -15.999 40.5s5.5 30 16.5 41s24.5 16.5 40.5 16.5s29.667 -5.5 41 -16.5s17 -24.667 17 -41s-5.5 -29.833 -16.5 -40.5s-24.833 -16 -41.5 -16s-30.334 5.33301 -41.001 16zM73.001 0v707h78v-707h-78z" />
    <glyph glyph-name="Lslash" unicode="&#x141;" horiz-adv-x="500" 
d="M178 73h287v-73h-368v245l-68 -47v77l68 47v352h81v-296l150 104v-78l-150 -103v-228z" />
    <glyph glyph-name="lslash" unicode="&#x142;" horiz-adv-x="291" 
d="M180 0h-79v304l-68 -48v77l68 48v326h79v-270l81 58v-78l-81 -57v-360z" />
    <glyph glyph-name="Nacute" unicode="&#x143;" horiz-adv-x="673" 
d="M77 0l0.000976562 674.001h102l169 -284l171 -292c-2.66699 64.667 -4 161.667 -4 291v285h81v-674h-102c-186.667 311.333 -300.334 503.666 -341.001 576.999c3.33301 -69.333 5 -167 5 -293v-284h-81zM326.001 726.001l99 156h94l-124 -156h-69z" />
    <glyph glyph-name="nacute" unicode="&#x144;" horiz-adv-x="540" 
d="M151 507l0.000976562 -88c30 63.333 83.333 95 160 95c49.333 0 88.666 -15 117.999 -45s44 -70 44 -120v-349h-79v328c0 37.333 -9.5 65.833 -28.5 85.5s-45.667 29.5 -80 29.5s-65.333 -14.667 -93 -44s-41.5 -70 -41.5 -122v-277h-78v507h78zM459.001 716l-124 -156
h-69l99 156h94z" />
    <glyph glyph-name="uni0145" unicode="&#x145;" horiz-adv-x="673" 
d="M77 0l0.000976562 674.001h102l169 -284l171 -292c-2.66699 64.667 -4 161.667 -4 291v285h81v-674h-102c-186.667 311.333 -300.334 503.666 -341.001 576.999c3.33301 -69.333 5 -167 5 -293v-284h-81zM218.001 -242.999l84 192h92l-111 -192h-65z" />
    <glyph glyph-name="uni0146" unicode="&#x146;" horiz-adv-x="540" 
d="M151 507l0.000976562 -88c30 63.333 83.333 95 160 95c49.333 0 88.666 -15 117.999 -45s44 -70 44 -120v-349h-79v328c0 37.333 -9.5 65.833 -28.5 85.5s-45.667 29.5 -80 29.5s-65.333 -14.667 -93 -44s-41.5 -70 -41.5 -122v-277h-78v507h78zM149.001 -243l84 192h92
l-111 -192h-65z" />
    <glyph glyph-name="Ncaron" unicode="&#x147;" horiz-adv-x="673" 
d="M391 727h-76l-127 156h80l86 -105l84 105h80zM77 0l0.000976562 674.001h102l169 -284l171 -292c-2.66699 64.667 -4 161.667 -4 291v285h81v-674h-102c-186.667 311.333 -300.334 503.666 -341.001 576.999c3.33301 -69.333 5 -167 5 -293v-284h-81z" />
    <glyph glyph-name="ncaron" unicode="&#x148;" horiz-adv-x="540" 
d="M151 507l0.000976562 -88c30 63.333 83.333 95 160 95c49.333 0 88.666 -15 117.999 -45s44 -70 44 -120v-349h-79v328c0 37.333 -9.5 65.833 -28.5 85.5s-45.667 29.5 -80 29.5s-65.333 -14.667 -93 -44s-41.5 -70 -41.5 -122v-277h-78v507h78zM325.001 560h-76
l-127 156h80l86 -105l84 105h80z" />
    <glyph glyph-name="napostrophe" unicode="&#x149;" horiz-adv-x="576" 
d="M188 507l0.000976562 -88c30 63.333 83.333 95 160 95c49.333 0 88.666 -15 117.999 -45s44 -70 44 -120v-349h-79v328c0 37.333 -9.5 65.833 -28.5 85.5s-45.667 29.5 -80 29.5s-65.333 -14.667 -93 -44s-41.5 -70 -41.5 -122v-277h-78v507h78zM54.001 695h89l-109 -204
h-56z" />
    <glyph glyph-name="Eng" unicode="&#x14a;" horiz-adv-x="673" 
d="M515 674l81.002 0.000976562v-700c0 -115.333 -52.333 -173 -157 -173c-38.667 0 -70.334 7.33301 -95.001 22v78c28 -17.333 56 -26 84 -26c58 0 87 30.667 87 92v33h-21c-186.667 311.333 -300.334 503.666 -341.001 576.999c3.33301 -69.333 5 -167 5 -293v-284h-81
v674h102l169 -284l171 -292c-2.66699 64.667 -4 161.667 -4 291v285z" />
    <glyph glyph-name="eng" unicode="&#x14b;" horiz-adv-x="540" 
d="M473 241h1.00098v-296c0 -44 -11.5 -78.333 -34.5 -103s-55.167 -37 -96.5 -37c-22 0 -45.667 5 -71 15v70c24.667 -10.667 47 -16 67 -16c37.333 0 56 24.333 56 73v53h-1v328c0 37.333 -9.5 65.833 -28.5 85.5s-45.667 29.5 -80 29.5s-65.333 -14.667 -93 -44
s-41.5 -70 -41.5 -122v-277h-78v507h78v-88c30 63.333 83.333 95 160 95c49.333 0 88.666 -15 117.999 -45s44 -70 44 -120v-108z" />
    <glyph glyph-name="Omacron" unicode="&#x14c;" horiz-adv-x="700" 
d="M190.5 538.5c-38.333 -48.333 -57.501 -114.332 -57.501 -197.999s19.833 -149.834 59.5 -198.501s93.167 -73 160.5 -73s119.833 24 157.5 72s56.5 114.333 56.5 199s-19 151 -57 199s-91.167 72 -159.5 72s-121.666 -24.167 -159.999 -72.5zM130.999 87.001
c-55.333 63.333 -83.001 147.831 -83.001 253.498s27.167 189.834 81.5 252.501s128.333 94 222 94s167.334 -31.167 221.001 -93.5s80.5 -146.666 80.5 -252.999s-27.167 -191 -81.5 -254s-127.5 -94.5 -219.5 -94.5s-165.667 31.667 -221 95zM491.998 776.999h-282v56h282
v-56z" />
    <glyph glyph-name="omacron" unicode="&#x14d;" horiz-adv-x="562" 
d="M398 389.5c-26 36.333 -64.333 54.499 -115 54.499s-89.667 -18.667 -117 -56s-41 -82.666 -41 -135.999s14 -98.5 42 -135.5s66.333 -55.5 115 -55.5s86.667 18.167 114 54.5s41 82 41 137s-13 100.667 -39 137zM455 64.999c-42.667 -49.333 -100.833 -74 -174.5 -74
s-131.667 24.5 -174 73.5s-63.5 111 -63.5 186s21.833 137.667 65.5 188s102.167 75.5 175.5 75.5s130.833 -24.667 172.5 -74s62.5 -111.833 62.5 -187.5s-21.333 -138.167 -64 -187.5zM425.001 609.999h-282v56h282v-56z" />
    <glyph glyph-name="Obreve" unicode="&#x14e;" horiz-adv-x="700" 
d="M131 87c-55.333 63.333 -83.001 147.831 -83.001 253.498s27.167 189.834 81.5 252.501s128.333 94 222 94s167.334 -31.167 221.001 -93.5s80.5 -146.666 80.5 -252.999s-27.167 -191 -81.5 -254s-127.5 -94.5 -219.5 -94.5s-165.667 31.667 -221 95zM190.499 538.498
c-38.333 -48.333 -57.501 -114.332 -57.501 -197.999s19.833 -149.834 59.5 -198.501s93.167 -73 160.5 -73s119.833 24 157.5 72s56.5 114.333 56.5 199s-19 151 -57 199s-91.167 72 -159.5 72s-121.666 -24.167 -159.999 -72.5zM190.998 882.999h65.001
c0 -30.667 8 -55.334 24 -74.001s41.167 -28 75.5 -28s59.5 9.33301 75.5 28s24 43.334 24 74.001h65c0 -48.667 -13.667 -87.334 -41 -116.001s-68.333 -43 -123 -43s-95.834 14.333 -123.501 43s-41.5 67.334 -41.5 116.001z" />
    <glyph glyph-name="obreve" unicode="&#x14f;" horiz-adv-x="562" 
d="M455 65c-42.667 -49.333 -100.833 -74 -174.5 -74s-131.667 24.5 -174 73.5s-63.5 111 -63.5 186s21.833 137.667 65.5 188s102.167 75.5 175.5 75.5s130.833 -24.667 172.5 -74s62.5 -111.833 62.5 -187.5s-21.333 -138.167 -64 -187.5zM398.001 389.5
c-26 36.333 -64.333 54.499 -115 54.499s-89.667 -18.667 -117 -56s-41 -82.666 -41 -135.999s14 -98.5 42 -135.5s66.333 -55.5 115 -55.5s86.667 18.167 114 54.5s41 82 41 137s-13 100.667 -39 137zM128.001 715.999h65.001c0 -30.667 8 -55.334 24 -74.001
s41.167 -28 75.5 -28s59.5 9.33301 75.5 28s24 43.334 24 74.001h65c0 -48.667 -13.667 -87.334 -41 -116.001s-68.333 -43 -123 -43s-95.834 14.333 -123.501 43s-41.5 67.334 -41.5 116.001z" />
    <glyph glyph-name="Ohungarumlaut" unicode="&#x150;" horiz-adv-x="700" 
d="M190.5 538.5c-38.333 -48.333 -57.501 -114.332 -57.501 -197.999s19.833 -149.834 59.5 -198.501s93.167 -73 160.5 -73s119.833 24 157.5 72s56.5 114.333 56.5 199s-19 151 -57 199s-91.167 72 -159.5 72s-121.666 -24.167 -159.999 -72.5zM130.999 87.001
c-55.333 63.333 -83.001 147.831 -83.001 253.498s27.167 189.834 81.5 252.501s128.333 94 222 94s167.334 -31.167 221.001 -93.5s80.5 -146.666 80.5 -252.999s-27.167 -191 -81.5 -254s-127.5 -94.5 -219.5 -94.5s-165.667 31.667 -221 95zM256.998 726.999l96 156h92
l-127 -156h-61zM412.998 726.999l101 156h94l-134 -156h-61z" />
    <glyph glyph-name="ohungarumlaut" unicode="&#x151;" horiz-adv-x="562" 
d="M398 389.5c-26 36.333 -64.333 54.499 -115 54.499s-89.667 -18.667 -117 -56s-41 -82.666 -41 -135.999s14 -98.5 42 -135.5s66.333 -55.5 115 -55.5s86.667 18.167 114 54.5s41 82 41 137s-13 100.667 -39 137zM455 64.999c-42.667 -49.333 -100.833 -74 -174.5 -74
s-131.667 24.5 -174 73.5s-63.5 111 -63.5 186s21.833 137.667 65.5 188s102.167 75.5 175.5 75.5s130.833 -24.667 172.5 -74s62.5 -111.833 62.5 -187.5s-21.333 -138.167 -64 -187.5zM193.001 559.999l96 156h92l-127 -156h-61zM349.001 559.999l101 156h94l-134 -156
h-61z" />
    <glyph glyph-name="OE" unicode="&#x152;" horiz-adv-x="983" 
d="M638 71h297v-71h-376v88c-52.667 -64 -124 -96 -214 -96s-162 31.5 -216 94.5s-81 147.5 -81 253.5s26.5 190.333 79.5 253s125.167 94 216.5 94s163 -31.667 215 -95v82h371v-71h-292v-231h258v-71h-258v-230zM190.5 141.5c38.333 -48.333 90.833 -72.501 157.5 -72.501
s118.5 24 155.5 72s55.5 114.333 55.5 199s-18.5 151 -55.5 199s-89.5 72 -157.5 72s-120.5 -24 -157.5 -72s-55.5 -114.167 -55.5 -198.5s19.167 -150.666 57.5 -198.999z" />
    <glyph glyph-name="oe" unicode="&#x153;" horiz-adv-x="892" 
d="M672 -5c-92.667 0 -162.666 34.666 -209.999 103.999c-39.333 -72 -103 -108 -191 -108c-72 0 -128 24.333 -168 73s-60 110.834 -60 186.501s20.667 138.5 62 188.5s96.666 75 165.999 75c86.667 0 149.667 -34 189 -102c42 67.333 104 101 186 101
c65.333 0 115.666 -20.5 150.999 -61.5s53 -99.833 53 -176.5c0 -18.667 -1.66699 -37 -5 -55h-345c6 -50 25.333 -88.333 58 -115s75 -40 127 -40s95 11.667 129 35v-74c-39.333 -20.667 -86.666 -31 -141.999 -31zM163.501 115.999c25.667 -36.667 62.5 -55 110.5 -55
s84.167 17.833 108.5 53.5s36.5 81.167 36.5 136.5c0 128.667 -49.333 193 -148 193c-48 0 -84.333 -18.333 -109 -55s-37 -82.167 -37 -136.5s12.833 -99.833 38.5 -136.5zM771.001 285.999l-0.000976562 22c-0.666992 44 -12.334 77.667 -35.001 101s-52.667 35 -90 35
s-69.666 -13.333 -96.999 -40s-43.666 -66 -48.999 -118h271z" />
    <glyph glyph-name="Racute" unicode="&#x154;" horiz-adv-x="548" 
d="M263 266l-105.001 0.00195312v-266h-81v674h169c78 0 137.167 -18.333 177.5 -55s60.5 -87.334 60.5 -152.001c-1.33301 -46.667 -13.666 -86.334 -36.999 -119.001s-56.333 -55.667 -99 -69l177 -279h-97zM157.999 604.002v-269h102c46 0 81.167 12.5 105.5 37.5
s36.5 57.167 36.5 96.5c0 90 -50.333 135 -151 135h-93zM428.999 883.002l-124 -156h-69l99 156h94z" />
    <glyph glyph-name="racute" unicode="&#x155;" horiz-adv-x="326" 
d="M151 507l-0.000976562 -88.999c26.667 62.667 72.667 94 138 94c12 0 21.333 -0.666992 28 -2v-78c-14 4.66699 -28.333 7 -43 7c-35.333 0 -64.666 -16.333 -87.999 -49s-35 -70.334 -35 -113.001v-277h-79l1 507h78zM360.999 716.001l-124 -156h-69l99 156h94z" />
    <glyph glyph-name="uni0156" unicode="&#x156;" horiz-adv-x="548" 
d="M263 266l-105.001 0.00195312v-266h-81v674h169c78 0 137.167 -18.333 177.5 -55s60.5 -87.334 60.5 -152.001c-1.33301 -46.667 -13.666 -86.334 -36.999 -119.001s-56.333 -55.667 -99 -69l177 -279h-97zM157.999 604.002v-269h102c46 0 81.167 12.5 105.5 37.5
s36.5 57.167 36.5 96.5c0 90 -50.333 135 -151 135h-93zM156.999 -242.998l85 192h91l-111 -192h-65z" />
    <glyph glyph-name="uni0157" unicode="&#x157;" horiz-adv-x="326" 
d="M151 507l-0.000976562 -88.999c26.667 62.667 72.667 94 138 94c12 0 21.333 -0.666992 28 -2v-78c-14 4.66699 -28.333 7 -43 7c-35.333 0 -64.666 -16.333 -87.999 -49s-35 -70.334 -35 -113.001v-277h-79l1 507h78zM-20.001 -242.999l84 192h92l-111 -192h-65z" />
    <glyph glyph-name="Rcaron" unicode="&#x158;" horiz-adv-x="548" 
d="M263 266l-105.001 0.00195312v-266h-81v674h169c78 0 137.167 -18.333 177.5 -55s60.5 -87.334 60.5 -152.001c-1.33301 -46.667 -13.666 -86.334 -36.999 -119.001s-56.333 -55.667 -99 -69l177 -279h-97zM157.999 604.002v-269h102c46 0 81.167 12.5 105.5 37.5
s36.5 57.167 36.5 96.5c0 90 -50.333 135 -151 135h-93zM315.999 726.002h-76l-127 156h80l86 -105l84 105h80z" />
    <glyph glyph-name="rcaron" unicode="&#x159;" horiz-adv-x="326" 
d="M151 507l-0.000976562 -88.999c26.667 62.667 72.667 94 138 94c12 0 21.333 -0.666992 28 -2v-78c-14 4.66699 -28.333 7 -43 7c-35.333 0 -64.666 -16.333 -87.999 -49s-35 -70.334 -35 -113.001v-277h-79l1 507h78zM239.999 559.001h-76l-127 156h80l86 -105l84 105
h80z" />
    <glyph glyph-name="Sacute" unicode="&#x15a;" horiz-adv-x="524" 
d="M430 564c-40.667 26.667 -85.334 39.998 -134.001 39.998s-85 -9.5 -109 -28.5s-36 -43.833 -36 -74.5c0 -32.667 14.333 -59 43 -79c21.333 -14 48 -28.167 80 -42.5l66 -30c12 -5.66699 27.5 -14.667 46.5 -27s33.5 -24.5 43.5 -36.5c24.667 -30 37 -65.667 37 -107
c0 -59.333 -20.333 -105.166 -61 -137.499s-94.667 -48.5 -162 -48.5s-125.666 14.333 -174.999 43v87c48.667 -36.667 108 -55 178 -55c42 0 75 9.33301 99 28s36 45.667 36 81c0 29.333 -12 53 -36 71c-26.667 20 -57.667 37.5 -93 52.5s-60.5 26.5 -75.5 34.5
s-32.833 19.667 -53.5 35c-38.667 30.667 -58 73.834 -58 129.501s20.5 99.667 61.5 132s91.5 48.5 151.5 48.5s110.333 -10.333 151 -31v-85zM247 725.998l99 156h94l-124 -156h-69z" />
    <glyph glyph-name="sacute" unicode="&#x15b;" horiz-adv-x="412" 
d="M223 443c-26.667 0 -47.832 -6.16699 -63.499 -18.5s-23.5 -26.333 -23.5 -42s2.33301 -28 7 -37s13.667 -17.833 27 -26.5c16 -10 42.667 -22.833 80 -38.5s68 -34.5 92 -56.5s36 -53.167 36 -93.5s-15.167 -73.166 -45.5 -98.499s-74 -38 -131 -38
s-104.5 10.333 -142.5 31v77c44.667 -26.667 92.667 -40 144 -40c30.667 0 54 6 70 18s24 29.167 24 51.5s-8.83301 40.166 -26.5 53.499s-46.334 27.833 -86.001 43.5s-71 34.5 -94 56.5s-34.5 52.833 -34.5 92.5s15.833 72 47.5 97s72.5 37.5 122.5 37.5
s91 -7.33301 123 -22v-75c-30.667 18.667 -72.667 28 -126 28zM188.002 560l99 156h94l-124 -156h-69z" />
    <glyph glyph-name="Scircumflex" unicode="&#x15c;" horiz-adv-x="524" 
d="M219 882h76l127 -156h-80l-85 105l-85 -105h-80zM430 564c-40.667 26.667 -85.334 39.998 -134.001 39.998s-85 -9.5 -109 -28.5s-36 -43.833 -36 -74.5c0 -32.667 14.333 -59 43 -79c21.333 -14 48 -28.167 80 -42.5l66 -30c12 -5.66699 27.5 -14.667 46.5 -27
s33.5 -24.5 43.5 -36.5c24.667 -30 37 -65.667 37 -107c0 -59.333 -20.333 -105.166 -61 -137.499s-94.667 -48.5 -162 -48.5s-125.666 14.333 -174.999 43v87c48.667 -36.667 108 -55 178 -55c42 0 75 9.33301 99 28s36 45.667 36 81c0 29.333 -12 53 -36 71
c-26.667 20 -57.667 37.5 -93 52.5s-60.5 26.5 -75.5 34.5s-32.833 19.667 -53.5 35c-38.667 30.667 -58 73.834 -58 129.501s20.5 99.667 61.5 132s91.5 48.5 151.5 48.5s110.333 -10.333 151 -31v-85z" />
    <glyph glyph-name="scircumflex" unicode="&#x15d;" horiz-adv-x="412" 
d="M186 716h76l127 -156h-80l-85 105l-85 -105h-80zM223 443c-26.667 0 -47.832 -6.16699 -63.499 -18.5s-23.5 -26.333 -23.5 -42s2.33301 -28 7 -37s13.667 -17.833 27 -26.5c16 -10 42.667 -22.833 80 -38.5s68 -34.5 92 -56.5s36 -53.167 36 -93.5
s-15.167 -73.166 -45.5 -98.499s-74 -38 -131 -38s-104.5 10.333 -142.5 31v77c44.667 -26.667 92.667 -40 144 -40c30.667 0 54 6 70 18s24 29.167 24 51.5s-8.83301 40.166 -26.5 53.499s-46.334 27.833 -86.001 43.5s-71 34.5 -94 56.5s-34.5 52.833 -34.5 92.5
s15.833 72 47.5 97s72.5 37.5 122.5 37.5s91 -7.33301 123 -22v-75c-30.667 18.667 -72.667 28 -126 28z" />
    <glyph glyph-name="uni015E" unicode="&#x15e;" horiz-adv-x="524" 
d="M295 -51c12 -16.667 18.001 -41.667 18.001 -75s-12.833 -62.333 -38.5 -87s-62.834 -37.667 -111.501 -39v58c56 4 84 27.667 84 71c0 22.667 -7.66699 46.667 -23 72h71zM430.001 564c-40.667 26.667 -85.334 39.998 -134.001 39.998s-85 -9.5 -109 -28.5
s-36 -43.833 -36 -74.5c0 -32.667 14.333 -59 43 -79c21.333 -14 48 -28.167 80 -42.5l66 -30c12 -5.66699 27.5 -14.667 46.5 -27s33.5 -24.5 43.5 -36.5c24.667 -30 37 -65.667 37 -107c0 -59.333 -20.333 -105.166 -61 -137.499s-94.667 -48.5 -162 -48.5
s-125.666 14.333 -174.999 43v87c48.667 -36.667 108 -55 178 -55c42 0 75 9.33301 99 28s36 45.667 36 81c0 29.333 -12 53 -36 71c-26.667 20 -57.667 37.5 -93 52.5s-60.5 26.5 -75.5 34.5s-32.833 19.667 -53.5 35c-38.667 30.667 -58 73.834 -58 129.501
s20.5 99.667 61.5 132s91.5 48.5 151.5 48.5s110.333 -10.333 151 -31v-85z" />
    <glyph glyph-name="uni015F" unicode="&#x15f;" horiz-adv-x="412" 
d="M259 -51c12 -16.667 18.001 -41.667 18.001 -75s-12.833 -62.333 -38.5 -87s-62.834 -37.667 -111.501 -39v58c56 4 84 27.667 84 71c0 22.667 -7.66699 46.667 -23 72h71zM223.001 443c-26.667 0 -47.832 -6.16699 -63.499 -18.5s-23.5 -26.333 -23.5 -42
s2.33301 -28 7 -37s13.667 -17.833 27 -26.5c16 -10 42.667 -22.833 80 -38.5s68 -34.5 92 -56.5s36 -53.167 36 -93.5s-15.167 -73.166 -45.5 -98.499s-74 -38 -131 -38s-104.5 10.333 -142.5 31v77c44.667 -26.667 92.667 -40 144 -40c30.667 0 54 6 70 18
s24 29.167 24 51.5s-8.83301 40.166 -26.5 53.499s-46.334 27.833 -86.001 43.5s-71 34.5 -94 56.5s-34.5 52.833 -34.5 92.5s15.833 72 47.5 97s72.5 37.5 122.5 37.5s91 -7.33301 123 -22v-75c-30.667 18.667 -72.667 28 -126 28z" />
    <glyph glyph-name="Scaron" unicode="&#x160;" horiz-adv-x="524" 
d="M301 726h-76l-127 156h80l86 -105l84 105h80zM430 564c-40.667 26.667 -85.334 39.998 -134.001 39.998s-85 -9.5 -109 -28.5s-36 -43.833 -36 -74.5c0 -32.667 14.333 -59 43 -79c21.333 -14 48 -28.167 80 -42.5l66 -30c12 -5.66699 27.5 -14.667 46.5 -27
s33.5 -24.5 43.5 -36.5c24.667 -30 37 -65.667 37 -107c0 -59.333 -20.333 -105.166 -61 -137.499s-94.667 -48.5 -162 -48.5s-125.666 14.333 -174.999 43v87c48.667 -36.667 108 -55 178 -55c42 0 75 9.33301 99 28s36 45.667 36 81c0 29.333 -12 53 -36 71
c-26.667 20 -57.667 37.5 -93 52.5s-60.5 26.5 -75.5 34.5s-32.833 19.667 -53.5 35c-38.667 30.667 -58 73.834 -58 129.501s20.5 99.667 61.5 132s91.5 48.5 151.5 48.5s110.333 -10.333 151 -31v-85z" />
    <glyph glyph-name="scaron" unicode="&#x161;" horiz-adv-x="412" 
d="M269 560h-76l-127 156h80l86 -105l84 105h80zM223 443c-26.667 0 -47.832 -6.16699 -63.499 -18.5s-23.5 -26.333 -23.5 -42s2.33301 -28 7 -37s13.667 -17.833 27 -26.5c16 -10 42.667 -22.833 80 -38.5s68 -34.5 92 -56.5s36 -53.167 36 -93.5
s-15.167 -73.166 -45.5 -98.499s-74 -38 -131 -38s-104.5 10.333 -142.5 31v77c44.667 -26.667 92.667 -40 144 -40c30.667 0 54 6 70 18s24 29.167 24 51.5s-8.83301 40.166 -26.5 53.499s-46.334 27.833 -86.001 43.5s-71 34.5 -94 56.5s-34.5 52.833 -34.5 92.5
s15.833 72 47.5 97s72.5 37.5 122.5 37.5s91 -7.33301 123 -22v-75c-30.667 18.667 -72.667 28 -126 28z" />
    <glyph glyph-name="uni0162" unicode="&#x162;" horiz-adv-x="482" 
d="M463 674v-71h-182v-603h-81v603h-182v71h445zM105 -243l84 192h92l-111 -192h-65z" />
    <glyph glyph-name="uni0163" unicode="&#x163;" horiz-adv-x="369" 
d="M182 443v-297c0 -54 25.333 -81 76 -81c26 0 49 7.66699 69 23v-75c-22 -12 -46.667 -18 -74 -18c-100 0 -150 51 -150 153v295h-81v64h81v126h79v-126h140v-64h-140zM57 -243l84 192h92l-112 -192h-64z" />
    <glyph glyph-name="Tcaron" unicode="&#x164;" horiz-adv-x="482" 
d="M463 674v-71h-182v-603h-81v603h-182v71h445zM279 727h-76l-127 156h80l86 -105l84 105h80z" />
    <glyph glyph-name="tcaron" unicode="&#x165;" horiz-adv-x="369" 
d="M182 443v-297c0 -54 25.333 -81 76 -81c26 0 49 7.66699 69 23v-75c-22 -12 -46.667 -18 -74 -18c-100 0 -150 51 -150 153v295h-81v64h81v126h79v-126h140v-64h-140zM417 760l-111 -193h-65l85 193h91z" />
    <glyph glyph-name="Tbar" unicode="&#x166;" horiz-adv-x="482" 
d="M463 603h-182v-241h118v-64h-118v-298h-81v298h-118v64h118v241h-182v71h445v-71z" />
    <glyph glyph-name="tbar" unicode="&#x167;" horiz-adv-x="377" 
d="M187 261l0.000976562 -115c0 -54 25 -81 75 -81c26 0 49 7.66699 69 23v-75c-20.667 -12 -45.334 -18 -74.001 -18c-100 0 -150 51 -150 153v113h-81v58h81v126h-81v62h81v126h80v-126h139v-62h-139v-126h140v-58h-140z" />
    <glyph glyph-name="Utilde" unicode="&#x168;" horiz-adv-x="645" 
d="M399 756c-18 0 -41.167 7.33301 -69.5 22s-47.833 22 -58.5 22c-27.333 0 -50 -16 -68 -48l-43 37c9.33301 20 23.166 36.833 41.499 50.5s37.833 20.5 58.5 20.5s45.334 -7.33301 74.001 -22s49 -22 61 -22c22.667 0 40.667 14.333 54 43l49 -34
c-21.333 -46 -54.333 -69 -99 -69zM488 254l-0.000976562 420.001h81v-418c0 -86.667 -21.833 -152.334 -65.5 -197.001s-104.167 -67 -181.5 -67s-137.666 21.833 -180.999 65.5s-65 107.167 -65 190.5v426h81v-425c0 -62 14.833 -107.667 44.5 -137s69.5 -44 119.5 -44
c111.333 0 167 62 167 186z" />
    <glyph glyph-name="utilde" unicode="&#x169;" horiz-adv-x="540" 
d="M388 507h79v-507h-79v88c-26.667 -62.667 -79.667 -94 -159 -94c-50 0 -89.5 14.833 -118.5 44.5s-43.5 69.5 -43.5 119.5v349h79v-329c0 -36.667 9.33301 -64.667 28 -84s46.5 -29 83.5 -29s68 14.667 93 44s37.5 69 37.5 119v279zM342 585
c-18 0 -41.167 7.33301 -69.5 22s-47.833 22 -58.5 22c-27.333 0 -50 -16 -68 -48l-43 37c9.33301 20 23.166 36.833 41.499 50.5s37.833 20.5 58.5 20.5s45.334 -7.33301 74.001 -22s49 -22 61 -22c22.667 0 40.667 14.333 54 43l49 -34c-21.333 -46 -54.333 -69 -99 -69z
" />
    <glyph glyph-name="Umacron" unicode="&#x16a;" horiz-adv-x="645" 
d="M467 777h-282v56h282v-56zM488 254l-0.000976562 420.001h81v-418c0 -86.667 -21.833 -152.334 -65.5 -197.001s-104.167 -67 -181.5 -67s-137.666 21.833 -180.999 65.5s-65 107.167 -65 190.5v426h81v-425c0 -62 14.833 -107.667 44.5 -137s69.5 -44 119.5 -44
c111.333 0 167 62 167 186z" />
    <glyph glyph-name="umacron" unicode="&#x16b;" horiz-adv-x="540" 
d="M388 507h79v-507h-79v88c-26.667 -62.667 -79.667 -94 -159 -94c-50 0 -89.5 14.833 -118.5 44.5s-43.5 69.5 -43.5 119.5v349h79v-329c0 -36.667 9.33301 -64.667 28 -84s46.5 -29 83.5 -29s68 14.667 93 44s37.5 69 37.5 119v279zM408 666v-56h-282v56h282z" />
    <glyph glyph-name="Ubreve" unicode="&#x16c;" horiz-adv-x="645" 
d="M488 254l-0.000976562 420.001h81v-418c0 -86.667 -21.833 -152.334 -65.5 -197.001s-104.167 -67 -181.5 -67s-137.666 21.833 -180.999 65.5s-65 107.167 -65 190.5v426h81v-425c0 -62 14.833 -107.667 44.5 -137s69.5 -44 119.5 -44c111.333 0 167 62 167 186z
M160.999 882.001h65.001c0 -30.667 8 -55.334 24 -74.001s41.167 -28 75.5 -28s59.5 9.33301 75.5 28s24 43.334 24 74.001h65c0 -48.667 -13.667 -87.334 -41 -116.001s-68.333 -43 -123 -43s-95.834 14.333 -123.501 43s-41.5 67.334 -41.5 116.001z" />
    <glyph glyph-name="ubreve" unicode="&#x16d;" horiz-adv-x="540" 
d="M388 507h79v-507h-79v88c-26.667 -62.667 -79.667 -94 -159 -94c-50 0 -89.5 14.833 -118.5 44.5s-43.5 69.5 -43.5 119.5v349h79v-329c0 -36.667 9.33301 -64.667 28 -84s46.5 -29 83.5 -29s68 14.667 93 44s37.5 69 37.5 119v279zM372 716h65.001
c0 -48.667 -13.667 -87.334 -41 -116.001s-68.333 -43 -123 -43s-95.834 14.333 -123.501 43s-41.5 67.334 -41.5 116.001h65c0 -30.667 8 -55.334 24 -74.001s41.167 -28 75.5 -28s59.5 9.33301 75.5 28s24 43.334 24 74.001z" />
    <glyph glyph-name="Uring" unicode="&#x16e;" horiz-adv-x="645" 
d="M488 254l-0.000976562 420.001h81v-418c0 -86.667 -21.833 -152.334 -65.5 -197.001s-104.167 -67 -181.5 -67s-137.666 21.833 -180.999 65.5s-65 107.167 -65 190.5v426h81v-425c0 -62 14.833 -107.667 44.5 -137s69.5 -44 119.5 -44c111.333 0 167 62 167 186z
M287.499 861.501c-10.333 -10.333 -15.501 -23 -15.501 -38s5.16699 -27.833 15.5 -38.5s22.833 -16 37.5 -16s27.334 5.33301 38.001 16s16 23.5 16 38.5s-5.16699 27.667 -15.5 38s-23 15.5 -38 15.5s-27.667 -5.16699 -38 -15.5zM218.998 822.001
c0 29.333 10.333 54.5 31 75.5s45.667 31.5 75 31.5s54.333 -10.5 75 -31.5s31 -46.167 31 -75.5s-10.333 -54.333 -31 -75s-45.667 -31 -75 -31s-54.333 10.333 -75 31s-31 45.667 -31 75z" />
    <glyph glyph-name="uring" unicode="&#x16f;" horiz-adv-x="540" 
d="M388 507h79v-507h-79v88c-26.667 -62.667 -79.667 -94 -159 -94c-50 0 -89.5 14.833 -118.5 44.5s-43.5 69.5 -43.5 119.5v349h79v-329c0 -36.667 9.33301 -64.667 28 -84s46.5 -29 83.5 -29s68 14.667 93 44s37.5 69 37.5 119v279zM275 550
c-29.333 0 -54.333 10.333 -75 31s-31 45.667 -31 75s10.333 54.5 31 75.5s45.667 31.5 75 31.5s54.333 -10.5 75 -31.5s31 -46.167 31 -75.5s-10.333 -54.333 -31 -75s-45.667 -31 -75 -31zM313.5 695.5c-10.333 10.333 -23.001 15.5 -38.001 15.5
s-27.667 -5.16699 -38 -15.5s-15.5 -23 -15.5 -38s5.16699 -27.833 15.5 -38.5s22.833 -16 37.5 -16s27.334 5.33301 38.001 16s16 23.5 16 38.5s-5.16699 27.667 -15.5 38z" />
    <glyph glyph-name="Uhungarumlaut" unicode="&#x170;" horiz-adv-x="645" 
d="M211 727l96 156h92l-127 -156h-61zM367 727l101 156h94l-134 -156h-61zM488 254l-0.000976562 420.001h81v-418c0 -86.667 -21.833 -152.334 -65.5 -197.001s-104.167 -67 -181.5 -67s-137.666 21.833 -180.999 65.5s-65 107.167 -65 190.5v426h81v-425
c0 -62 14.833 -107.667 44.5 -137s69.5 -44 119.5 -44c111.333 0 167 62 167 186z" />
    <glyph glyph-name="uhungarumlaut" unicode="&#x171;" horiz-adv-x="540" 
d="M388 228v279h79v-507h-79v88c-26.667 -62.667 -79.667 -94 -159 -94c-50 0 -89.5 14.833 -118.5 44.5s-43.5 69.5 -43.5 119.5v349h79v-329c0 -36.667 9.33301 -64.667 28 -84s46.5 -29 83.5 -29s68 14.667 93 44s37.5 69 37.5 119zM350 716l-127 -156h-61l96 156h92z
M379 560h-61l101 156h94z" />
    <glyph glyph-name="Uogonek" unicode="&#x172;" horiz-adv-x="645" 
d="M488 674l81 0.000976562v-418c0 -133.333 -50 -216.333 -150 -249c-74.667 -37.333 -112 -79 -112 -125c0 -19.333 5.83301 -34 17.5 -44s29 -15 52 -15s44.167 7.33301 63.5 22v-61c-21.333 -12.667 -49.5 -19 -84.5 -19s-63.167 10.333 -84.5 31s-32 47 -32 79
c0 42 20 81.333 60 118c-70 4 -124.667 27.667 -164 71s-59 104.666 -59 183.999v426h81v-425c0 -62 14.833 -107.667 44.5 -137s69.5 -44 119.5 -44c111.333 0 167 62 167 186v420z" />
    <glyph glyph-name="uogonek" unicode="&#x173;" horiz-adv-x="540" 
d="M467 507v-507c-75.333 -37.333 -113 -79 -113 -125c0 -19.333 5.83301 -34 17.5 -44s29 -15 52 -15s44.167 7.33301 63.5 22v-61c-21.333 -12.667 -49.5 -19 -84.5 -19s-63.167 10.333 -84.5 31s-32 46.5 -32 77.5s9.5 59.333 28.5 85s43.5 47.167 73.5 64.5v72
c-26.667 -62.667 -79.667 -94 -159 -94c-50 0 -89.5 14.833 -118.5 44.5s-43.5 69.5 -43.5 119.5v349h79v-329c0 -36.667 9.33301 -64.667 28 -84s46.5 -29 83.5 -29s68 14.667 93 44s37.5 69 37.5 119v279h79z" />
    <glyph glyph-name="Wcircumflex" unicode="&#x174;" horiz-adv-x="938" 
d="M437 883h76l127 -156h-80l-85 105l-85 -105h-80zM432 664h81l74 -240l102 -342c25.333 120.667 69 318 131 592h82l-158 -674h-104l-166 550c-19.333 -74 -72.333 -257.333 -159 -550h-103l-176 674h85l63 -250l83 -339z" />
    <glyph glyph-name="wcircumflex" unicode="&#x175;" horiz-adv-x="792" 
d="M355 716h76l127 -156h-80l-85 105l-85 -105h-80zM181 0l-156 507h84c66 -225.333 106 -368.666 120 -429.999c7.33301 32.667 47.666 176 120.999 430h84l124 -431c8.66699 35.333 51.334 179 128.001 431h81l-160 -507h-97l-48 166l-70 253
c-8 -32.667 -46 -172.334 -114 -419.001h-97z" />
    <glyph glyph-name="Ycircumflex" unicode="&#x176;" horiz-adv-x="593" 
d="M336 0l-80.999 0.000976562v250l-229 424h94c104.667 -202.667 163 -319.334 175 -350.001c3.33301 10 62.666 126.667 177.999 350h94l-231 -423v-251zM296.001 831.001l-85 -105h-80l127 156h76l127 -156h-80z" />
    <glyph glyph-name="ycircumflex" unicode="&#x177;" horiz-adv-x="493" 
d="M78 -174c-17.333 0 -31.332 1.66699 -41.999 5v71c10 -2.66699 21.333 -4 34 -4c67.333 0 115 38.333 143 115l-205 494h89l155 -397c5.33301 18.667 51.666 151 138.999 397h85l-183 -494c-26 -68.667 -56.833 -117 -92.5 -145s-76.5 -42 -122.5 -42zM206.001 716h76
l127 -156h-80l-85 105l-85 -105h-80z" />
    <glyph glyph-name="Ydieresis" unicode="&#x178;" horiz-adv-x="593" 
d="M336 0l-80.999 0.000976562v250l-229 424h94c104.667 -202.667 163 -319.334 175 -350.001c3.33301 10 62.666 126.667 177.999 350h94l-231 -423v-251zM197.001 753.001c-14.667 0 -27 5 -37 15s-15 22.333 -15 37s5 26.834 15 36.501s22.333 14.5 37 14.5
s26.834 -4.83301 36.501 -14.5s14.5 -21.834 14.5 -36.501s-4.83301 -27 -14.5 -37s-21.834 -15 -36.501 -15zM398.001 753.001c-14.667 0 -26.834 5 -36.501 15s-14.5 22.333 -14.5 37s4.83301 26.834 14.5 36.501s21.834 14.5 36.501 14.5s27 -4.83301 37 -14.5
s15 -21.834 15 -36.501s-5 -27 -15 -37s-22.333 -15 -37 -15z" />
    <glyph glyph-name="Zacute" unicode="&#x179;" horiz-adv-x="569" 
d="M502 674v-66l-356 -539h371v-69h-465v67l356 538h-351v69h445zM263 727l99 156h94l-124 -156h-69z" />
    <glyph glyph-name="zacute" unicode="&#x17a;" horiz-adv-x="453" 
d="M395 507v-58l-260 -378h274v-71h-365v62l257 375h-247v70h341zM200 560l99 156h94l-124 -156h-69z" />
    <glyph glyph-name="Zdotaccent" unicode="&#x17b;" horiz-adv-x="569" 
d="M240 808c0 14.667 5 26.834 15 36.501s22.333 14.5 37 14.5s26.834 -4.83301 36.501 -14.5s14.5 -21.834 14.5 -36.501s-4.83301 -27 -14.5 -37s-21.834 -15 -36.501 -15s-27 5 -37 15s-15 22.333 -15 37zM502 674v-66l-356 -539h371v-69h-465v67l356 538h-351v69h445z
" />
    <glyph glyph-name="zdotaccent" unicode="&#x17c;" horiz-adv-x="453" 
d="M191 638c0 14.667 5 26.834 15 36.501s22.333 14.5 37 14.5s26.834 -4.83301 36.501 -14.5s14.5 -21.834 14.5 -36.501s-4.83301 -27 -14.5 -37s-21.834 -15 -36.501 -15s-27 5 -37 15s-15 22.333 -15 37zM395 507v-58l-260 -378h274v-71h-365v62l257 375h-247v70h341z
" />
    <glyph glyph-name="Zcaron" unicode="&#x17d;" horiz-adv-x="569" 
d="M321 727h-76l-127 156h80l86 -105l84 105h80zM502 674v-66l-356 -539h371v-69h-465v67l356 538h-351v69h445z" />
    <glyph glyph-name="zcaron" unicode="&#x17e;" horiz-adv-x="453" 
d="M280 560h-76l-127 156h80l86 -105l84 105h80zM395 507v-58l-260 -378h274v-71h-365v62l257 375h-247v70h341z" />
    <glyph glyph-name="longs" unicode="&#x17f;" horiz-adv-x="241" 
d="M271 689c-14 6 -30.333 9.00098 -49 9.00098s-35 -7.33301 -49 -22s-21 -37.334 -21 -68.001v-608h-78v608c0 49.333 13 88.333 39 117s62.667 43 110 43c18 0 34 -2 48 -6v-73z" />
    <glyph glyph-name="florin" unicode="&#x192;" horiz-adv-x="392" 
d="M347 681c27.333 0 49.332 -3 65.999 -9v-72c-18 6.66699 -37 10 -57 10c-48.667 0 -79.667 -38 -93 -114l-22 -125h99v-64h-110l-67 -387c-10 -58 -27.667 -102 -53 -132s-61.333 -45 -108 -45c-27.333 0 -50 3.33301 -68 10v72c18 -7.33301 38 -11 60 -11
c47.333 0 78 38 92 114l65 379h-97v64h108l23 133c10 58 27.833 102 53.5 132s61.834 45 108.501 45z" />
    <glyph glyph-name="uni0218" unicode="&#x218;" horiz-adv-x="524" 
d="M136 -243l84 192h92l-111 -192h-65zM430 564c-40.667 26.667 -85.334 39.998 -134.001 39.998s-85 -9.5 -109 -28.5s-36 -43.833 -36 -74.5c0 -32.667 14.333 -59 43 -79c21.333 -14 48 -28.167 80 -42.5l66 -30c12 -5.66699 27.5 -14.667 46.5 -27
s33.5 -24.5 43.5 -36.5c24.667 -30 37 -65.667 37 -107c0 -59.333 -20.333 -105.166 -61 -137.499s-94.667 -48.5 -162 -48.5s-125.666 14.333 -174.999 43v87c48.667 -36.667 108 -55 178 -55c42 0 75 9.33301 99 28s36 45.667 36 81c0 29.333 -12 53 -36 71
c-26.667 20 -57.667 37.5 -93 52.5s-60.5 26.5 -75.5 34.5s-32.833 19.667 -53.5 35c-38.667 30.667 -58 73.834 -58 129.501s20.5 99.667 61.5 132s91.5 48.5 151.5 48.5s110.333 -10.333 151 -31v-85z" />
    <glyph glyph-name="uni0219" unicode="&#x219;" horiz-adv-x="412" 
d="M223 443c-26.667 0 -47.832 -6.16699 -63.499 -18.5s-23.5 -26.333 -23.5 -42s2.33301 -28 7 -37s13.667 -17.833 27 -26.5c16 -10 42.667 -22.833 80 -38.5s68 -34.5 92 -56.5s36 -53.167 36 -93.5s-15.167 -73.166 -45.5 -98.499s-74 -38 -131 -38
s-104.5 10.333 -142.5 31v77c44.667 -26.667 92.667 -40 144 -40c30.667 0 54 6 70 18s24 29.167 24 51.5s-8.83301 40.166 -26.5 53.499s-46.334 27.833 -86.001 43.5s-71 34.5 -94 56.5s-34.5 52.833 -34.5 92.5s15.833 72 47.5 97s72.5 37.5 122.5 37.5
s91 -7.33301 123 -22v-75c-30.667 18.667 -72.667 28 -126 28zM87.002 -243l84 192h92l-111 -192h-65z" />
    <glyph glyph-name="uni021A" unicode="&#x21a;" horiz-adv-x="482" 
d="M18 674h445v-71h-182v-603h-81v603h-182v71zM108 -243l84 192h92l-111 -192h-65z" />
    <glyph glyph-name="uni021B" unicode="&#x21b;" horiz-adv-x="369" 
d="M182 443v-297c0 -54 25.333 -81 76 -81c26 0 49 7.66699 69 23v-75c-22 -12 -46.667 -18 -74 -18c-100 0 -150 51 -150 153v295h-81v64h81v126h79v-126h140v-64h-140zM112 -243l84 192h92l-111 -192h-65z" />
    <glyph glyph-name="uni0237" unicode="&#x237;" horiz-adv-x="228" 
d="M22 -126c37.333 0 56 24.333 56 73v560h78v-562c0 -44 -11.5 -78.333 -34.5 -103s-54.833 -37 -95.5 -37c-22 0 -46 5 -72 15v70c25.333 -10.667 48 -16 68 -16z" />
    <glyph glyph-name="uni02BC" unicode="&#x2bc;" horiz-adv-x="181" 
d="M21 471l84 224h98l-120 -224h-62z" />
    <glyph glyph-name="circumflex" unicode="&#x2c6;" horiz-adv-x="421" 
d="M172 798h76l127 -156h-80l-85 105l-85 -105h-80z" />
    <glyph glyph-name="caron" unicode="&#x2c7;" horiz-adv-x="421" 
d="M248 642h-76l-127 156h80l86 -105l84 105h80z" />
    <glyph glyph-name="uni02C9" unicode="&#x2c9;" horiz-adv-x="421" 
d="M351 693h-282v56h282v-56z" />
    <glyph glyph-name="breve" unicode="&#x2d8;" horiz-adv-x="421" 
d="M46 798h65.001c0 -30.667 8 -55.334 24 -74.001s41.167 -28 75.5 -28s59.5 9.33301 75.5 28s24 43.334 24 74.001h65c0 -48.667 -13.667 -87.334 -41 -116.001s-68.333 -43 -123 -43s-95.834 14.333 -123.501 43s-41.5 67.334 -41.5 116.001z" />
    <glyph glyph-name="dotaccent" unicode="&#x2d9;" horiz-adv-x="421" 
d="M159 724c0 14.667 5 26.834 15 36.501s22.333 14.5 37 14.5s26.834 -4.83301 36.501 -14.5s14.5 -21.834 14.5 -36.501s-4.83301 -27 -14.5 -37s-21.834 -15 -36.501 -15s-27 5 -37 15s-15 22.333 -15 37z" />
    <glyph glyph-name="ring" unicode="&#x2da;" horiz-adv-x="421" 
d="M172.5 759.5c-10.333 -10.333 -15.5 -23 -15.5 -38s5.16699 -27.833 15.5 -38.5s22.833 -16 37.5 -16s27.334 5.33301 38.001 16s16 23.5 16 38.5s-5.33301 27.667 -16 38s-23.334 15.5 -38.001 15.5s-27.167 -5.16699 -37.5 -15.5zM104 720
c0 29.333 10.333 54.5 31 75.5s45.667 31.5 75 31.5s54.333 -10.5 75 -31.5s31 -46.167 31 -75.5s-10.333 -54.333 -31 -75s-45.667 -31 -75 -31s-54.333 10.333 -75 31s-31 45.667 -31 75z" />
    <glyph glyph-name="ogonek" unicode="&#x2db;" horiz-adv-x="421" 
d="M311 -212c-21.333 -12.667 -49.499 -19 -84.499 -19s-63.167 10.333 -84.5 31s-32 48.667 -32 84s15.167 68.333 45.5 99s65.166 52.667 104.499 66l31 -38c-75.333 -37.333 -113 -79 -113 -125c0 -19.333 5.83301 -34 17.5 -44s29 -15 52 -15s44.167 7.33301 63.5 22
v-61z" />
    <glyph glyph-name="tilde" unicode="&#x2dc;" horiz-adv-x="421" 
d="M289 658c-18 0 -41.167 7.33301 -69.5 22s-47.833 22 -58.5 22c-27.333 0 -50 -16 -68 -48l-43 37c9.33301 20 23.166 36.833 41.499 50.5s37.833 20.5 58.5 20.5s45.334 -7.33301 74.001 -22s49 -22 61 -22c22.667 0 40.667 14.333 54 43l49 -34
c-21.333 -46 -54.333 -69 -99 -69z" />
    <glyph glyph-name="hungarumlaut" unicode="&#x2dd;" horiz-adv-x="421" 
d="M35 642l96 156h92l-127 -156h-61zM191 642l101 156h94l-134 -156h-61z" />
    <glyph glyph-name="pi" unicode="&#x3c0;" horiz-adv-x="582" 
d="M564 507v-64h-95v-443h-79v443h-191v-278c0 -60.667 -13.5 -103.334 -40.5 -128.001s-66.167 -37 -117.5 -37v69c29.333 0 49.833 6.33301 61.5 19s17.5 37.334 17.5 74.001v281h-96v64h540z" />
    <glyph glyph-name="uni0901" unicode="&#x901;" 
d="M-172 914c-9.33301 9.33301 -14.001 21.501 -14.001 36.501s4.83301 27.5 14.5 37.5s21.834 15 36.501 15s27 -5 37 -15s15 -22.333 15 -37s-5 -26.834 -15 -36.501s-22.5 -14.5 -37.5 -14.5s-27.167 4.66699 -36.5 14zM-8.50098 780.001
c-35 -27.333 -77.833 -41 -128.5 -41s-93.167 13.333 -127.5 40s-51.5 65.667 -51.5 117h78c0 -27.333 9 -50 27 -68s43 -27 75 -27s57.167 9 75.5 27s27.5 40.667 27.5 68h77c0 -50 -17.5 -88.667 -52.5 -116z" />
    <glyph glyph-name="uni0902" unicode="&#x902;" 
d="M-189 783c0 15.333 5.16699 28.333 15.5 39s23.166 16 38.499 16s28.333 -5.33301 39 -16s16 -23.667 16 -39s-5.33301 -28 -16 -38s-23.667 -15 -39 -15s-28.166 5 -38.499 15s-15.5 22.667 -15.5 38z" />
    <glyph glyph-name="uni0903" unicode="&#x903;" horiz-adv-x="298" 
d="M60 156c0 15.333 5 28.333 15 39s22.667 16 38 16s28.333 -5.33301 39 -16s16 -23.667 16 -39s-5.33301 -28 -16 -38s-23.667 -15 -39 -15s-28 5 -38 15s-15 22.667 -15 38zM60 484c0 15.333 5 28.166 15 38.499s22.667 15.5 38 15.5s28.333 -5.16699 39 -15.5
s16 -23.166 16 -38.499s-5.33301 -28.166 -16 -38.499s-23.667 -15.5 -39 -15.5s-28 5.16699 -38 15.5s-15 23.166 -15 38.499z" />
    <glyph glyph-name="uni0905" unicode="&#x905;" horiz-adv-x="659" 
d="M681 642l-0.00292969 -67.001h-116v-575h-78v260h-138c0.666992 -4.66699 1 -12 1 -22c0 -49.333 -17.5 -89.333 -52.5 -120s-83.5 -46 -145.5 -46c-43.333 0 -84 8 -122 24v74c41.333 -20.667 79.833 -31 115.5 -31s65.667 8.5 90 25.5s36.5 41.833 36.5 74.5
c0 64.667 -41.667 97 -125 97h-34v70h32c35.333 0 62 7.66699 80 23s27 36 27 62c0 54.667 -31.333 82 -94 82c-35.333 0 -67.666 -8 -96.999 -24v74c28.667 12 61.334 18 98.001 18c54.667 0 96.834 -12.667 126.501 -38s44.5 -57.166 44.5 -95.499s-8.5 -68.5 -25.5 -90.5
s-39.167 -36.667 -66.5 -44c34 -4.66699 61.333 -19.667 82 -45h167v247h-91v67h285z" />
    <glyph glyph-name="uni0906" unicode="&#x906;" horiz-adv-x="924" 
d="M946 642l-0.00292969 -67.001h-116v-575h-78v575h-187v-575h-78v260h-138c0.666992 -4.66699 1 -12 1 -22c0 -49.333 -17.5 -89.333 -52.5 -120s-83.5 -46 -145.5 -46c-43.333 0 -84 8 -122 24v74c41.333 -20.667 79.833 -31 115.5 -31s65.667 8.5 90 25.5
s36.5 41.833 36.5 74.5c0 64.667 -41.667 97 -125 97h-34v70h32c35.333 0 62 7.66699 80 23s27 36 27 62c0 54.667 -31.333 82 -94 82c-35.333 0 -67.666 -8 -96.999 -24v74c28.667 12 61.334 18 98.001 18c54.667 0 96.834 -12.667 126.501 -38s44.5 -57.166 44.5 -95.499
s-8.5 -68.5 -25.5 -90.5s-39.167 -36.667 -66.5 -44c34 -4.66699 61.333 -19.667 82 -45h167v247h-91v67h550z" />
    <glyph glyph-name="uni0907" unicode="&#x907;" horiz-adv-x="481" 
d="M395 426l-159.998 -0.00195312c-28 0 -50 -5.33301 -66 -16s-24 -26 -24 -46s9.66699 -34.833 29 -44.5s51.333 -16.167 96 -19.5c120.667 -7.33301 181 -54.666 181 -141.999c0 -42.667 -15.833 -78.667 -47.5 -108s-73.834 -44 -126.501 -44
s-97.334 16.333 -134.001 49v-115h-77v228h71c10.667 -28 29.167 -51.167 55.5 -69.5s54.333 -27.5 84 -27.5s53.167 8 70.5 24s26 36.667 26 62c0 46.667 -38.667 72.334 -116 77.001c-127.333 6 -191 48.667 -191 128c0 40.667 15.333 72.667 46 96s71 35 121 35h83v82
h-338v67h525v-67h-108v-149z" />
    <glyph glyph-name="uni0908" unicode="&#x908;" horiz-adv-x="481" 
d="M393 426l-157.998 -0.000976562c-28 0 -50 -5.33301 -66 -16s-24 -26 -24 -46s9.66699 -34.833 29 -44.5s51.333 -16.167 96 -19.5c120.667 -7.33301 181 -54.666 181 -141.999c0 -42.667 -15.833 -78.667 -47.5 -108s-73.834 -44 -126.501 -44
s-97.334 16.333 -134.001 49v-115h-77v228h71c10.667 -28 29.167 -51.167 55.5 -69.5s54.333 -27.5 84 -27.5s53.167 8 70.5 24s26 36.667 26 62c0 46.667 -38.667 72.334 -116 77.001c-127.333 6 -191 48.667 -191 128c0 40.667 15.333 72.667 46 96s71 35 121 35h81v82
h-336v67h315c-22 26 -33 58 -33 96s13.167 70.333 39.5 97s61.5 40 105.5 40c27.333 0 51 -4.66699 71 -14v-71c-21.333 10 -43.333 15 -66 15s-40.167 -6.83301 -52.5 -20.5s-18.5 -33.834 -18.5 -60.501s12.667 -54 38 -82h126v-67h-110v-149z" />
    <glyph glyph-name="uni0909" unicode="&#x909;" horiz-adv-x="428" 
d="M451 642v-67.002h-130c23.333 -25.333 35 -56.333 35 -93c0 -71.333 -34.667 -116.666 -104 -135.999c36.667 -3.33301 68.834 -18.333 96.501 -45s41.5 -64.167 41.5 -112.5s-19.333 -88.666 -58 -120.999s-93.334 -48.5 -164.001 -48.5c-46 0 -92 8.66699 -138 26v72
c42.667 -20.667 86.667 -31 132 -31s81.5 9.5 108.5 28.5s40.5 46.833 40.5 83.5s-14 64.667 -42 84s-65.333 29 -112 29h-46v68h46c80 0 120 34.333 120 103c0 36.667 -14 67.667 -42 93h-257v67h473z" />
    <glyph glyph-name="uni090A" unicode="&#x90a;" horiz-adv-x="693" 
d="M714 642l0.00292969 -67.0029h-393c23.333 -25.333 35 -56.333 35 -93c0 -71.333 -34.667 -116.666 -104 -135.999c38.667 -3.33301 70.667 -18.333 96 -45c9.33301 30 27.166 54.667 53.499 74s55.5 29 87.5 29c56.667 0 100.167 -16.333 130.5 -49s45.5 -77 45.5 -133
s-16 -102 -48 -138s-75 -54 -129 -54c-9.33301 0 -17 1 -23 3v65c3.33301 -1.33301 9 -2 17 -2c34 0 60 10.833 78 32.5s27 51.334 27 89.001s-8.16699 67.167 -24.5 88.5s-40.333 32 -72 32s-56.334 -13.333 -74.001 -40s-26.5 -59 -26.5 -97v-5
c0 -53.333 -19.333 -96.166 -58 -128.499s-93.334 -48.5 -164.001 -48.5c-46 0 -92 8.66699 -138 26v72c42.667 -20.667 86.667 -31 132 -31s81.5 9.5 108.5 28.5s40.5 46.833 40.5 83.5s-14 64.667 -42 84s-65.333 29 -112 29h-46v68h46c80 0 120 34.333 120 103
c0 36.667 -14 67.667 -42 93h-257v67h736z" />
    <glyph glyph-name="uni090B" unicode="&#x90b;" horiz-adv-x="817" 
d="M442 575l0.000976562 -228.001l140 81v57h72v-91c0 -56 29.333 -84 88 -84h9v-65h-42c-30 0 -52.833 -6.83301 -68.5 -20.5s-23.5 -31.667 -23.5 -54s7.83301 -39.166 23.5 -50.499s39.167 -17 70.5 -17s58 7.66699 80 23v-67c-22 -14 -53 -21 -93 -21
s-76.333 11.167 -109 33.5s-49 53.833 -49 94.5c0 28 8.33301 52.833 25 74.5s39.667 37.167 69 46.5c-25.333 12 -41.333 34.667 -48 68l-144 -84v-271h-79v231l-312 -188v81l224 133c-10.667 40.667 -26.667 72.5 -48 95.5s-50.333 34.5 -87 34.5
s-70.334 -7.33301 -101.001 -22v75c28.667 13.333 64.167 20 106.5 20s81 -13.5 116 -40.5s60.5 -68.5 76.5 -124.5l25 15v265h-385v67h862v-67h-398z" />
    <glyph glyph-name="uni090C" unicode="&#x90c;" horiz-adv-x="761" 
d="M665 575l-0.00292969 -407.998c-38.667 -0.666992 -67.334 -9.33398 -86.001 -26.001s-28 -36.334 -28 -59.001s8.16699 -40.667 24.5 -54s39.333 -20 69 -20s58.5 5.33301 86.5 16v-65c-28 -9.33301 -55.333 -14 -82 -14c-51.333 0 -93.333 11.833 -126 35.5
s-49 57.5 -49 101.5c0 32 9.83301 59.5 29.5 82.5s47.167 38.833 82.5 47.5v180c-21.333 11.333 -44.333 17 -69 17c-72 0 -108 -42.333 -108 -127v-72h-78v74c0 79.333 -29.333 119 -88 119c-29.333 0 -53.666 -12.167 -72.999 -36.5s-29 -62 -29 -113s14.667 -95 44 -132
s72.333 -55.5 129 -55.5c19.333 0 35 2.33301 47 7v-66c-17.333 -4.66699 -36.666 -7 -57.999 -7c-72 -0 -130 24.833 -174 74.5s-66 112.5 -66 188.5c0 60.667 15.667 110.167 47 148.5s73 57.5 125 57.5c36.667 0 66.834 -8.33301 90.501 -25s38.834 -39.667 45.501 -69
c15.333 65.333 62 98 140 98c25.333 0 50.333 -4.66699 75 -14v116h-608v67h805v-67h-118z" />
    <glyph glyph-name="uni090D" unicode="&#x90d;" horiz-adv-x="555" 
d="M577 642l0.000976562 -67h-88v-146c0 -46.667 -14.333 -84 -43 -112s-69 -42 -121 -42c-16.667 0 -31.667 2 -45 6v65c10 -4 23 -6 39 -6c61.333 0 92 31 92 93v142h-248v-316c0 -106 58 -159 174 -159c53.333 0 100.333 10.667 141 32v-72
c-41.333 -17.333 -90.333 -26 -147 -26c-74.667 0 -134.334 18.167 -179.001 54.5s-67 92.833 -67 169.5v317h-107v67h599zM395.001 896h77.001c0 -50 -17.167 -88.667 -51.5 -116s-76.833 -41 -127.5 -41s-92.834 13.333 -126.501 40s-50.5 65.667 -50.5 117h78
c0 -28 8.66699 -50.833 26 -68.5s42 -26.5 74 -26.5s56.833 8.83301 74.5 26.5s26.5 40.5 26.5 68.5z" />
    <glyph glyph-name="uni090E" unicode="&#x90e;" horiz-adv-x="555" 
d="M577 642v-67h-88v-146c0 -46.667 -14.333 -84 -43 -112s-69 -42 -121 -42c-16.667 0 -31.667 2 -45 6v65c10 -4 23 -6 39 -6c61.333 0 92 31 92 93v142h-248v-316c0 -106 58 -159 174 -159c53.333 0 100.333 10.667 141 32v-72c-41.333 -17.333 -90.333 -26 -147 -26
c-74.667 0 -134.334 18.167 -179.001 54.5s-67 92.833 -67 169.5v317h-107v67h433c-0.666992 30 -6.66699 53.167 -18 69.5s-31.333 24.5 -60 24.5h-55c-52 0 -91.833 12 -119.5 36s-41.5 65.333 -41.5 124h78c0 -34.667 6.83301 -59 20.5 -73s35.834 -21 66.501 -21h54
c102 0 153 -53.333 153 -160h88z" />
    <glyph glyph-name="uni090F" unicode="&#x90f;" horiz-adv-x="555" 
d="M577 642l0.000976562 -67h-88v-146c0 -46.667 -14.333 -84 -43 -112s-69 -42 -121 -42c-16.667 0 -31.667 2 -45 6v65c10 -4 23 -6 39 -6c61.333 0 92 31 92 93v142h-248v-316c0 -106 58 -159 174 -159c53.333 0 100.333 10.667 141 32v-72
c-41.333 -17.333 -90.333 -26 -147 -26c-74.667 0 -134.334 18.167 -179.001 54.5s-67 92.833 -67 169.5v317h-107v67h599z" />
    <glyph glyph-name="uni0910" unicode="&#x910;" horiz-adv-x="555" 
d="M577 642l0.000976562 -67.001h-88v-146c0 -46.667 -14.333 -84 -43 -112s-69 -42 -121 -42c-16.667 0 -31.667 2 -45 6v65c10 -4 23 -6 39 -6c61.333 0 92 31 92 93v142h-248v-316c0 -106 58 -159 174 -159c53.333 0 100.333 10.667 141 32v-72
c-41.333 -17.333 -90.333 -26 -147 -26c-74.667 0 -134.334 18.167 -179.001 54.5s-67 92.833 -67 169.5v317h-107v67h421l-82 125c-22.667 34.667 -53 52 -91 52c-13.333 0 -30 -2 -50 -6v68c24 4 42 6 54 6c34 0 63 -7.16699 87 -21.5s46 -37.166 66 -68.499l102 -155h92z
" />
    <glyph glyph-name="uni0911" unicode="&#x911;" horiz-adv-x="924" 
d="M946 642l-0.00292969 -67.001h-116v-575h-78v575h-187v-575h-78v260h-138c0.666992 -4.66699 1 -12 1 -22c0 -49.333 -17.5 -89.333 -52.5 -120s-83.5 -46 -145.5 -46c-43.333 0 -84 8 -122 24v74c41.333 -20.667 79.833 -31 115.5 -31s65.667 8.5 90 25.5
s36.5 41.833 36.5 74.5c0 64.667 -41.667 97 -125 97h-34v70h32c35.333 0 62 7.66699 80 23s27 36 27 62c0 54.667 -31.333 82 -94 82c-35.333 0 -67.666 -8 -96.999 -24v74c28.667 12 61.334 18 98.001 18c54.667 0 96.834 -12.667 126.501 -38s44.5 -57.166 44.5 -95.499
s-8.5 -68.5 -25.5 -90.5s-39.167 -36.667 -66.5 -44c34 -4.66699 61.333 -19.667 82 -45h167v247h-91v67h550zM769.997 895.999h77.001c0 -50 -17.167 -88.667 -51.5 -116s-76.833 -41 -127.5 -41s-92.834 13.333 -126.501 40s-50.5 65.667 -50.5 117h78
c0 -28 8.66699 -50.833 26 -68.5s42 -26.5 74 -26.5s56.833 9 74.5 27s26.5 40.667 26.5 68z" />
    <glyph glyph-name="uni0912" unicode="&#x912;" horiz-adv-x="925" 
d="M831 642l115.996 -0.000976562v-67h-116v-575h-78v575h-188v-575h-78v260h-138c0.666992 -4.66699 1 -12 1 -22c0 -49.333 -17.5 -89.333 -52.5 -120s-83.5 -46 -145.5 -46c-43.333 0 -84 8 -122 24v74c41.333 -20.667 79.833 -31 115.5 -31s65.667 8.5 90 25.5
s36.5 41.833 36.5 74.5c0 64.667 -41.667 97 -125 97h-34v70h32c35.333 0 62 7.66699 80 23s27 36 27 62c0 54.667 -31.333 82 -94 82c-35.333 0 -67.666 -8 -96.999 -24v74c28.667 12 61.334 18 98.001 18c54.667 0 96.834 -12.667 126.501 -38s44.5 -57.166 44.5 -95.499
s-8.5 -68.5 -25.5 -90.5s-39.167 -36.667 -66.5 -44c34 -4.66699 61.333 -19.667 82 -45h167v247h-91v67h357c-0.666992 30 -6.66699 53.167 -18 69.5s-31.333 24.5 -60 24.5h-55c-52 0 -91.833 12 -119.5 36s-41.5 65.333 -41.5 124h78c0 -34.667 6.83301 -59 20.5 -73
s35.834 -21 66.501 -21h54c102 0 153 -53.333 153 -160z" />
    <glyph glyph-name="uni0913" unicode="&#x913;" horiz-adv-x="925" 
d="M939 642l-0.00292969 -67.002h-116v-575h-78v575h-180v-575h-78v260h-138c0.666992 -4.66699 1 -12 1 -22c0 -49.333 -17.5 -89.333 -52.5 -120s-83.5 -46 -145.5 -46c-43.333 0 -84 8 -122 24v74c41.333 -20.667 79.833 -31 115.5 -31s65.667 8.5 90 25.5
s36.5 41.833 36.5 74.5c0 64.667 -41.667 97 -125 97h-34v70h32c35.333 0 62 7.66699 80 23s27 36 27 62c0 54.667 -31.333 82 -94 82c-35.333 0 -67.666 -8 -96.999 -24v74c28.667 12 61.334 18 98.001 18c54.667 0 96.834 -12.667 126.501 -38s44.5 -57.166 44.5 -95.499
s-8.5 -68.5 -25.5 -90.5s-39.167 -36.667 -66.5 -44c34 -4.66699 61.333 -19.667 82 -45h167v247h-91v67h347l-82 125c-22.667 34.667 -53 52 -91 52c-13.333 0 -30 -2 -50 -6v68c24 4 42 6 54 6c34 0 63 -7.16699 87 -21.5s46 -37.166 66 -68.499l102 -155h110z" />
    <glyph glyph-name="uni0914" unicode="&#x914;" horiz-adv-x="925" 
d="M947 642l-0.00390625 -67.001h-116v-575h-78v575h-188v-575h-78v260h-138c0.666992 -4.66699 1 -12 1 -22c0 -49.333 -17.5 -89.333 -52.5 -120s-83.5 -46 -145.5 -46c-43.333 0 -84 8 -122 24v74c41.333 -20.667 79.833 -31 115.5 -31s65.667 8.5 90 25.5
s36.5 41.833 36.5 74.5c0 64.667 -41.667 97 -125 97h-34v70h32c35.333 0 62 7.66699 80 23s27 36 27 62c0 54.667 -31.333 82 -94 82c-35.333 0 -67.666 -8 -96.999 -24v74c28.667 12 61.334 18 98.001 18c54.667 0 96.834 -12.667 126.501 -38s44.5 -57.166 44.5 -95.499
s-8.5 -68.5 -25.5 -90.5s-39.167 -36.667 -66.5 -44c34 -4.66699 61.333 -19.667 82 -45h167v247h-91v67h332c-33.333 25.333 -62.5 43.833 -87.5 55.5s-49.5 17.5 -73.5 17.5s-45 -3 -63 -9v70c16 5.33301 36 8 60 8s47 -5.5 69 -16.5s47.667 -29.167 77 -54.5l62 -55
l-92 118c-29.333 37.333 -68.666 56 -117.999 56c-20 0 -39.333 -2.33301 -58 -7v68c12 4 32.333 6 61 6c71.333 0 127.333 -31.667 168 -95l104 -162h110z" />
    <glyph glyph-name="uni0915" unicode="&#x915;" horiz-adv-x="771" 
d="M793 575l-368.003 -0.000976562v-143c30.667 32 71.5 48 122.5 48s93.5 -16.667 127.5 -50s51 -78 51 -134s-19 -101.333 -57 -136s-85.333 -52 -142 -52c-7.33301 0 -15 0.666992 -23 2v67c6.66699 -1.33301 13.334 -2 20.001 -2c35.333 0 64.666 11 87.999 33
s35 51.167 35 87.5s-10.5 65.333 -31.5 87s-47.333 32.5 -79 32.5s-58.167 -10.167 -79.5 -30.5s-32 -45.833 -32 -76.5v-308h-79v144c-29.333 -30.667 -69.666 -46 -120.999 -46s-94 16.5 -128 49.5s-51 77.5 -51 133.5s19 101.5 57 136.5s85 52.5 141 52.5
c10.667 0 18.334 -1 23.001 -3v-66c-3.33301 0.666992 -9.66602 1 -18.999 1c-36 0 -65.667 -11 -89 -33s-35 -51 -35 -87s10.667 -65 32 -87s47.833 -33 79.5 -33s58 10.333 79 31s31.5 46.334 31.5 77.001v305h-368v67h815v-67z" />
    <glyph glyph-name="uni0916" unicode="&#x916;" horiz-adv-x="779" 
d="M801 642l0.00390625 -67h-115v-575h-79v180c-30.667 -31.333 -69.834 -47 -117.501 -47s-87.834 15.333 -120.501 46s-49 71 -49 121s16.333 90.167 49 120.5s72.667 45.5 120 45.5c16.667 0 32.667 -1.66699 48 -5v-65c-10.667 3.33301 -23.334 5 -38.001 5
c-28.667 0 -52.834 -9.66699 -72.501 -29s-29.5 -44.333 -29.5 -75s9.5 -55.167 28.5 -73.5s43.5 -27.5 73.5 -27.5s55.5 10.167 76.5 30.5s31.5 46.833 31.5 79.5v269h-309v-142c0 -47.333 -14.833 -84.333 -44.5 -111s-69.167 -41 -118.5 -43l-12 -1l220 -278h-97
l-215 279v65h67c81.333 0 122 32.333 122 97v134h-242v67h823z" />
    <glyph glyph-name="uni0917" unicode="&#x917;" horiz-adv-x="574" 
d="M-22 642h617.999v-67h-116v-575h-77v575h-175v-234c0 -42 -10.667 -74.5 -32 -97.5s-52.333 -34.5 -93 -34.5c-27.333 0 -51.666 4.33301 -72.999 13v69c20 -9.33301 40.333 -14 61 -14c40 0 60 22.333 60 67v231h-173v67z" />
    <glyph glyph-name="uni0918" unicode="&#x918;" horiz-adv-x="642" 
d="M664 642l-0.000976562 -67h-116v-575h-77v186c-20 -26.667 -48.5 -48.834 -85.5 -66.501s-81 -26.5 -132 -26.5s-94.333 13.833 -130 41.5s-53.5 64.834 -53.5 111.501c0 34.667 10.333 62.5 31 83.5s49.334 35.167 86.001 42.5c-30 3.33301 -56 14.5 -78 33.5
s-33 46 -33 81s14 64.5 42 88.5h-140v67h686zM470.999 330v245h-260c-37.333 -20 -56 -49.667 -56 -89c0 -52.667 42 -79 126 -79h48v-68h-59c-37.333 0 -66.833 -8.16699 -88.5 -24.5s-32.5 -39 -32.5 -68s11.833 -50.833 35.5 -65.5s52.167 -22 85.5 -22
c56 0 103.5 17 142.5 51s58.5 74 58.5 120z" />
    <glyph glyph-name="uni0919" unicode="&#x919;" horiz-adv-x="574" 
d="M-22 642h619.001v-67h-198v-151h-174c-24 0 -44 -5 -60 -15s-24 -26.167 -24 -48.5s10 -38.666 30 -48.999s55 -16.833 105 -19.5c120 -3.33301 180 -49.333 180 -138c-0.666992 -46 -19.167 -83.333 -55.5 -112s-87.833 -43 -154.5 -43s-127.667 14.667 -183 44v77
c59.333 -36.667 122.666 -55 189.999 -55c38 0 68 7.66699 90 23s33 36.166 33 62.499s-10 45.166 -30 56.499s-53.333 18 -100 20c-122.667 5.33301 -184 49.333 -184 132c0 42.667 15 75.334 45 98.001s68.333 34 115 34h99v84h-343v67zM470.001 384
c10 10 22.499 15 37.499 15s27.667 -5.16699 38 -15.5s15.5 -22.833 15.5 -37.5s-5.16699 -27 -15.5 -37s-23.166 -15 -38.499 -15s-27.833 5 -37.5 15s-14.5 22.5 -14.5 37.5s5 27.5 15 37.5z" />
    <glyph glyph-name="uni091A" unicode="&#x91a;" horiz-adv-x="634" 
d="M656 642v-66.999h-116v-575h-78v188c-16 -25.333 -39.5 -46.333 -70.5 -63s-71 -25.167 -120 -25.5s-91.167 14.167 -126.5 43.5s-53 69 -53 119c0 58 26 99.667 78 125h-142v67h342v-67c-72.667 0 -124.167 -11.5 -154.5 -34.5s-45.5 -51.333 -45.5 -85
s10.833 -59.334 32.5 -77.001s50.167 -26.5 85.5 -26.5c54 0 96.5 16.5 127.5 49.5s46.5 70.833 46.5 113.5v248h-484v67h678z" />
    <glyph glyph-name="uni091B" unicode="&#x91b;" horiz-adv-x="631" 
d="M653 575l-153 0.00195312v-117c50.667 -28.667 76 -78.834 76 -150.501s-26.5 -131.334 -79.5 -179.001s-116.667 -71.5 -191 -71.5s-133 15 -176 45s-64.5 71 -64.5 123c0 35.333 10.5 64.5 31.5 87.5s48.167 36.167 81.5 39.5c-24 4 -45.833 16.833 -65.5 38.5
s-29.5 51.5 -29.5 89.5s15 69.667 45 95h-150v67h675v-67zM427 575.002l-203.999 0.00195312c-41.333 -22.667 -62 -56.667 -62 -102c0 -28 9.83301 -50.333 29.5 -67s43.5 -25 71.5 -25h30v-67h-38c-35.333 0 -62.5 -7.83301 -81.5 -23.5s-28.5 -38.334 -28.5 -68.001
s14.333 -53.834 43 -72.501s65 -28 109 -28c59.333 0 107.666 16.5 144.999 49.5s56 78.5 56 136.5c0 34 -9.5 60.833 -28.5 80.5s-46.833 29.5 -83.5 29.5c-18 0 -32.333 -2.33301 -43 -7v65c11.333 4.66699 25 7 41 7s30.667 -0.666992 44 -2v94z" />
    <glyph glyph-name="uni091C" unicode="&#x91c;" horiz-adv-x="650" 
d="M-22 642h693.999v-67h-116v-575h-78v384h-201c48 -28.667 72 -75.667 72 -141c0 -54 -18.167 -97.5 -54.5 -130.5s-84.5 -49.5 -144.5 -49.5c-44 0 -84 7.33301 -120 22v72c36 -18.667 73.333 -28 112 -28s69.834 10.5 93.501 31.5s35.5 52 35.5 93s-15.5 73 -46.5 96
s-73.833 34.5 -128.5 34.5v67h382v124h-500v67z" />
    <glyph glyph-name="uni091D" unicode="&#x91d;" horiz-adv-x="759" 
d="M781 642l0.000976562 -66.999h-116v-575h-79v252h-163c19.333 -23.333 29 -54.333 29 -93s-15.5 -72.334 -46.5 -101.001s-73.5 -43 -127.5 -43s-99.667 16.667 -137 50v-113h-76v226h70c11.333 -28 30.666 -51.333 57.999 -70s55.833 -28 85.5 -28s53 7.66699 70 23
s25.5 36 25.5 62c0 52 -39.333 80.667 -118 86c-58 3.33301 -102.667 13.666 -134 30.999s-47 46.833 -47 88.5s15.167 73.834 45.5 96.501s70.5 34 120.5 34h86v74h-349v67h803zM586.001 316.001v258.999h-180v-141h-160c-61.333 0 -92 -20 -92 -60
c0 -19.333 8.66699 -32.666 26 -39.999c17.333 -8.66699 51.333 -14.667 102 -18h304z" />
    <glyph glyph-name="uni091E" unicode="&#x91e;" horiz-adv-x="675" 
d="M697 642l0.000976562 -67.001h-116v-575h-79v258h-117c-4.66699 -52.667 -26 -95.667 -64 -129s-85.333 -50.166 -142 -50.499s-109 11.5 -157 35.5v74c46 -28 92.667 -42 140 -42s83 12.167 107 36.5s36 55.333 36 93s-10.833 67.834 -32.5 90.501s-49.5 34 -83.5 34
s-62 -4.66699 -84 -14v67c21.333 8.66699 47.666 13 78.999 13c54.667 0 99 -12.333 133 -37s55.333 -59.334 64 -104.001h121v250h-524v67h719z" />
    <glyph glyph-name="uni091F" unicode="&#x91f;" horiz-adv-x="495" 
d="M186.5 127c32.333 -26 74.9971 -39.001 127.997 -39.001s100.5 12.667 142.5 38v-72c-41.333 -21.333 -89.666 -32 -144.999 -32c-76 0 -137.5 19.167 -184.5 57.5s-70.5 90.5 -70.5 156.5s23 119.333 69 160s105.333 61.334 178 62.001c10.667 0 18.667 -0.333008 24 -1
v118h-350v67h539v-67h-111v-186c-21.333 3.33301 -44.666 5 -69.999 5c-59.333 0 -107.166 -13.5 -143.499 -40.5s-54.5 -65 -54.5 -114s16.167 -86.5 48.5 -112.5z" />
    <glyph glyph-name="uni0920" unicode="&#x920;" horiz-adv-x="564" 
d="M586 575l-243.999 -0.00390625v-129c50 -9.33301 90.333 -30.166 121 -62.499s46 -75.666 46 -129.999s-20.833 -99.833 -62.5 -136.5s-96.334 -55 -164.001 -55s-122.5 18.333 -164.5 55s-63 84.334 -63 143.001s20.5 104.334 61.5 137.001s90.167 50.667 147.5 54v124
h-286v67h608v-67zM388.501 162.996c27 24.667 40.5 57.167 40.5 97.5s-13.333 71.5 -40 93.5s-61.167 33 -103.5 33s-78 -10.667 -107 -32s-43.5 -52.5 -43.5 -93.5s13.333 -73.833 40 -98.5s62.167 -37 106.5 -37s80 12.333 107 37z" />
    <glyph glyph-name="uni0921" unicode="&#x921;" horiz-adv-x="521" 
d="M399 424h-173.999c-24 0 -44 -5 -60 -15s-24 -26.167 -24 -48.5s10 -38.666 30 -48.999s55 -16.833 105 -19.5c120 -3.33301 180 -49.333 180 -138c-0.666992 -46 -19.167 -83.333 -55.5 -112s-87.833 -43 -154.5 -43s-127.667 14.667 -183 44v77
c59.333 -36.667 122.666 -55 189.999 -55c38 0 68 7.66699 90 23s33 36.166 33 62.499s-10 45.166 -30 56.499s-53.333 18 -100 20c-122.667 5.33301 -184 49.333 -184 132c0 42.667 15 75.334 45 98.001s68.333 34 115 34h99v84h-343v67h565v-67h-144v-151z" />
    <glyph glyph-name="uni0922" unicode="&#x922;" horiz-adv-x="556" 
d="M266 277c28 14 61.835 21 101.502 21s71.834 -11.5 96.501 -34.5s37 -54.667 37 -95s-18.333 -75 -55 -104s-87.834 -43.5 -153.501 -43.5s-121.834 20.5 -168.501 61.5s-70 94.167 -70 159.5s23.167 119.333 69.5 162s107.833 64.334 184.5 65.001
c14.667 0 29.667 -1 45 -3v109h-375v67h600v-67h-146v-183c-41.333 6.66699 -75.333 10 -102 10c-60.667 0 -108.5 -14.833 -143.5 -44.5s-52.5 -67.834 -52.5 -114.501s15.5 -84.5 46.5 -113.5s71.167 -43.5 120.5 -43.5c35.333 0 64.666 7.83301 87.999 23.5
s35 37.167 35 64.5c0 18 -6.66699 32.667 -20 44s-33.333 17 -60 17s-52.667 -7.66699 -78 -23v65z" />
    <glyph glyph-name="uni0923" unicode="&#x923;" horiz-adv-x="743" 
d="M765 642v-67.001h-116v-575h-78v575h-162v-225c0 -57.333 -14.833 -101.166 -44.5 -131.499s-72.5 -45.5 -128.5 -45.5c-110.667 0 -166 59 -166 177v225h-92v67h787zM331 347.999v227h-183v-227c0 -72.667 29.667 -109 89 -109c62.667 0 94 36.333 94 109z" />
    <glyph glyph-name="uni0924" unicode="&#x924;" horiz-adv-x="587" 
d="M610 642l0.00195312 -67h-116v-575h-78v384h-95c-118 0 -177 -52 -177 -156c0 -49.333 12.167 -88.333 36.5 -117s60.166 -43 107.499 -43c11.333 0 19 0.333008 23 1v-67c-10.667 -1.33301 -20.667 -2 -30 -2c-66.667 -0 -119.334 21.333 -158.001 64
s-58 97.5 -58 164.5s21 121 63 162s103.333 61.5 184 61.5h104v123h-438v67h632z" />
    <glyph glyph-name="uni0925" unicode="&#x925;" horiz-adv-x="639" 
d="M361 507c0 -54.667 -20.833 -98.8311 -62.5 -132.498s-101.167 -59.834 -178.5 -78.501c19.333 -80.667 73 -121 161 -121c51.333 0 95.333 16.667 132 50s55 81.333 55 144v273h191v-67h-113v-575h-78v205c-12.667 -24 -36.5 -46.167 -71.5 -66.5
s-74.833 -30.5 -119.5 -30.5c-64.667 0 -120.5 19.667 -167.5 59s-74.167 97.666 -81.5 174.999c88 18.667 152.667 40.667 194 66s62 58 62 98c0 22.667 -5.5 41 -16.5 55s-27.5 21 -49.5 21s-38.667 -6.5 -50 -19.5s-17 -28.333 -17 -46s4 -37.5 12 -59.5h-77
c-8 22.667 -12 44 -12 64c0 34.667 13.167 64.5 39.5 89.5s61.5 37.5 105.5 37.5s78.667 -13.5 104 -40.5s38 -60.5 38 -100.5z" />
    <glyph glyph-name="uni0926" unicode="&#x926;" horiz-adv-x="550" 
d="M-22 642l594 0.000976562v-67h-120v-167h-176c-45.333 0 -81 -11.667 -107 -35s-39 -56.333 -39 -99s11.667 -76.334 35 -101.001s54.666 -37 93.999 -37s70.833 11 94.5 33s36.167 50.333 37.5 85h75v-264h-78v133c-27.333 -34.667 -72.166 -52 -134.499 -52
s-112.5 19.333 -150.5 58s-57 87 -57 145s19.667 105.833 59 143.5s94.333 56.5 165 56.5h104v101h-396v67z" />
    <glyph glyph-name="uni0927" unicode="&#x927;" horiz-adv-x="634" 
d="M656 642v-66.999h-115v-575h-78v157c-16.667 -26 -41.834 -48 -75.501 -66s-72.5 -27 -116.5 -27c-63.333 0 -113.833 15.167 -151.5 45.5s-56.5 66.333 -56.5 108s11.667 73.667 35 96s54 35.833 92 40.5c-37.333 4 -67 16 -89 36s-33 48 -33 84
c0 46 20.667 79.667 62 101h-152v67h310v-67h-1c-44 0 -78.333 -9.33301 -103 -28s-37 -42.834 -37 -72.501s12.667 -51.667 38 -66s58 -21.5 98 -21.5h50v-67h-59c-40.667 0 -72.667 -8.5 -96 -25.5s-35 -39.833 -35 -68.5s11.833 -51.667 35.5 -69s55.834 -26 96.501 -26
c56 0 101.333 17.167 136 51.5s52 72.833 52 115.5v344h193z" />
    <glyph glyph-name="uni0928" unicode="&#x928;" horiz-adv-x="490" 
d="M-22 642h534v-67h-115v-575h-79v329h-177c-12 0 -20.333 -3 -25 -9s-7 -18.333 -7 -37s4.33301 -41 13 -67h-66c-18.667 37.333 -28 72 -28 104c0 50 29 75 87 75h203v180h-340v67z" />
    <glyph glyph-name="uni0928093C" unicode="&#x929;" horiz-adv-x="490" 
d="M-22 642h534v-67h-115v-575h-79v329h-177c-12 0 -20.333 -3 -25 -9s-7 -18.333 -7 -37s4.33301 -41 13 -67h-66c-18.667 37.333 -28 72 -28 104c0 50 29 75 87 75h203v180h-340v67zM128 96c14.667 0 27.333 -5.16699 38 -15.5s16 -22.833 16 -37.5
s-5.16699 -27 -15.5 -37s-23 -15 -38 -15s-27.5 4.83301 -37.5 14.5s-15 22 -15 37s5 27.667 15 38s22.333 15.5 37 15.5z" />
    <glyph glyph-name="uni092A" unicode="&#x92a;" horiz-adv-x="553" 
d="M575 642v-66.999h-115v-575h-79v238c-30.667 -40.667 -75 -61.334 -133 -62.001c-120 0 -180 66.333 -180 199v200h-90v67h597zM381 382.001v193h-234v-201c0 -47.333 8.66699 -81.5 26 -102.5s43.833 -31.5 79.5 -31.5s66 12.833 91 38.5s37.5 60.167 37.5 103.5z" />
    <glyph glyph-name="uni092B" unicode="&#x92b;" horiz-adv-x="791" 
d="M813 575l-353.001 -0.00195312v-138c30 31.333 70.667 47 122 47s93.833 -16.667 127.5 -50s50.5 -78 50.5 -134s-19 -101.167 -57 -135.5s-85 -51.5 -141 -51.5c-12 0 -20 0.666992 -24 2v67c8 -1.33301 14.667 -2 20 -2c36 0 65.5 10.833 88.5 32.5
s34.5 50.834 34.5 87.501s-10.5 65.834 -31.5 87.501s-47.167 32.5 -78.5 32.5s-57.666 -10.5 -78.999 -31.5s-32 -47.167 -32 -78.5v-310h-79v238c-30.667 -38.667 -75.5 -58.167 -134.5 -58.5s-103.5 14.5 -133.5 44.5s-45 79 -45 147v204h-90v67h835v-67z
M380.999 381.998v193.001h-234v-201c0 -47.333 8.5 -80.833 25.5 -100.5s43.5 -29.5 79.5 -29.5s66.5 12.167 91.5 36.5s37.5 58.166 37.5 101.499z" />
    <glyph glyph-name="uni092C" unicode="&#x92c;" horiz-adv-x="615" 
d="M638 642l-0.000976562 -67h-116v-575h-78v163c-18 -24 -42.667 -43.667 -74 -59s-66.333 -23 -105 -23c-58 0 -107.5 19.167 -148.5 57.5s-61.5 87.833 -61.5 148.5s20.5 110.5 61.5 149.5s93.5 58.5 157.5 58.5c26.667 0 54.334 -3.33301 83.001 -10v-69
c-26.667 8.66699 -54 13 -82 13s-52.667 -5.66699 -74 -17l209 -205c22.667 28.667 34 61.667 34 99v269h-466v67h660zM159.999 379c-19.333 -24.667 -29.001 -56.668 -29.001 -96.001s13.167 -72.166 39.5 -98.499s59.833 -39.5 100.5 -39.5s74.334 9.33301 101.001 28z
" />
    <glyph glyph-name="uni092D" unicode="&#x92d;" horiz-adv-x="555" 
d="M383 347l-0.000976562 295h194v-67h-116v-575h-78v281h-196v-137h-70l-24 56c-18 40 -27 68.333 -27 85s3.83301 30 11.5 40s17.834 16.333 30.501 19v170c0 22.667 -3.33301 39.167 -10 49.5s-19.667 15.5 -39 15.5s-37 -4.33301 -53 -13v65c20 10 43.333 15 70 15
c74 0 111 -39.667 111 -119v-180h196z" />
    <glyph glyph-name="uni092E" unicode="&#x92e;" horiz-adv-x="572" 
d="M401 575h-210v-229h210v229zM-22 575v67h616v-67h-115v-575h-78v280h-210v-136h-68l-25 56c-18 42.667 -27 71.667 -27 87c0 30 14 48.667 42 56v232h-135z" />
    <glyph glyph-name="uni092F" unicode="&#x92f;" horiz-adv-x="625" 
d="M198 227.5c28 -23.667 63.5 -35.498 106.5 -35.498s78.667 12.833 107 38.5s42.5 60.167 42.5 103.5v241h-187c16.667 -25.333 25 -56.333 25 -93c0 -78.667 -49.333 -133.334 -148 -164.001c8 -36.667 26 -66.834 54 -90.501zM292 125.002
c-62 0 -115.167 21.166 -159.5 63.499s-71.5 101.833 -81.5 178.5c53.333 8 93.833 22.667 121.5 44s41.5 47.833 41.5 79.5s-10.333 59.834 -31 84.501h-205v67h669v-67h-115v-575h-78v194c-34 -46 -88 -69 -162 -69z" />
    <glyph glyph-name="uni0930" unicode="&#x930;" horiz-adv-x="376" 
d="M31 344h66.999c81.333 0 122 32 122 96v135h-242v67h420v-67h-100v-142c0 -47.333 -14.667 -84.5 -44 -111.5s-68.666 -41.167 -117.999 -42.5h-11l212 -279h-95l-211 279v65z" />
    <glyph glyph-name="uni0930093C" unicode="&#x931;" horiz-adv-x="376" 
d="M-11 -25.5c-10 9.66699 -15 22 -15 37s5 27.667 15 38s22.5 15.5 37.5 15.5s27.667 -5.16699 38 -15.5s15.5 -22.833 15.5 -37.5s-5 -27 -15 -37s-22.667 -15 -38 -15s-28 4.83301 -38 14.5zM31 344h66.999c81.333 0 122 32 122 96v135h-242v67h420v-67h-100v-142
c0 -47.333 -14.667 -84.5 -44 -111.5s-68.666 -41.167 -117.999 -42.5h-11l212 -279h-95l-211 279v65z" />
    <glyph glyph-name="uni0932" unicode="&#x932;" horiz-adv-x="734" 
d="M756 642v-67h-116v-575h-79v396c-17.333 8.66699 -35.333 13 -54 13c-72 0 -108 -42.333 -108 -127v-72h-78v74c0 79.333 -29 119 -87 119c-29.333 0 -53.5 -12.167 -72.5 -36.5s-28.5 -62 -28.5 -113s14.667 -95 44 -132s72.333 -55.5 129 -55.5
c11.333 0 20.333 0.666992 27 2v-65c-12 -2 -24.667 -3 -38 -3c-72 -0 -130 24.833 -174 74.5s-66 112.5 -66 188.5c0 60.667 15.667 110.167 47 148.5s73 57.5 125 57.5c36 0 65.667 -8.16699 89 -24.5s38.333 -39.5 45 -69.5c15.333 65.333 62 98 140 98
c22 0 42 -3.66699 60 -11v113h-583v67h778z" />
    <glyph glyph-name="uni0933" unicode="&#x933;" horiz-adv-x="798" 
d="M820 575h-221.001v-115c46.667 -8 83.834 -28.167 111.501 -60.5s41.5 -74.333 41.5 -126s-18.667 -95 -56 -130s-83.666 -52.5 -138.999 -52.5c-70.667 0 -128 24.333 -172 73c-32.667 -48.667 -79.5 -73 -140.5 -73s-109.333 16.833 -145 50.5s-53.5 78.5 -53.5 134.5
s18 101.5 54 136.5s81.333 52.5 136 52.5c68.667 0 125 -22.667 169 -68c29.333 37.333 68.666 59 117.999 65v113h-545v67h842v-67zM318.999 198c12.667 21.333 23.665 47.165 32.998 77.498s16 50.5 20 60.5c-36.667 42.667 -80.667 64 -132 64
c-35.333 0 -63.333 -11.667 -84 -35s-31 -53.166 -31 -89.499s10.333 -65.166 31 -86.499s48.834 -32 84.501 -32s61.834 13.667 78.501 41zM640.497 190.999c21.667 22.667 32.5 52.332 32.5 88.999s-10.667 65.834 -32 87.501s-50.333 32.5 -87 32.5
c-42 0 -73.333 -19.333 -94 -58c-10 -19.333 -19 -42 -27 -68s-13 -42 -15 -48c38.667 -46 84 -69 136 -69c36 0 64.833 11.333 86.5 34z" />
    <glyph glyph-name="uni0933093C" unicode="&#x934;" horiz-adv-x="798" 
d="M820 575h-221.001v-115c46.667 -8 83.834 -28.167 111.501 -60.5s41.5 -74.333 41.5 -126s-18.667 -95 -56 -130s-83.666 -52.5 -138.999 -52.5c-70.667 0 -128 24.333 -172 73c-32.667 -48.667 -79.5 -73 -140.5 -73s-109.333 16.833 -145 50.5s-53.5 78.5 -53.5 134.5
s18 101.5 54 136.5s81.333 52.5 136 52.5c68.667 0 125 -22.667 169 -68c29.333 37.333 68.666 59 117.999 65v113h-545v67h842v-67zM318.999 198c12.667 21.333 23.665 47.165 32.998 77.498s16 50.5 20 60.5c-36.667 42.667 -80.667 64 -132 64
c-35.333 0 -63.333 -11.667 -84 -35s-31 -53.166 -31 -89.499s10.333 -65.166 31 -86.499s48.834 -32 84.501 -32s61.834 13.667 78.501 41zM640.497 190.999c21.667 22.667 32.5 52.332 32.5 88.999s-10.667 65.834 -32 87.501s-50.333 32.5 -87 32.5
c-42 0 -73.333 -19.333 -94 -58c-10 -19.333 -19 -42 -27 -68s-13 -42 -15 -48c38.667 -46 84 -69 136 -69c36 0 64.833 11.333 86.5 34zM214.997 19.9971c14.667 0 27.333 -5.16699 38 -15.5s16 -22.833 16 -37.5s-5.16699 -27.167 -15.5 -37.5s-23 -15.5 -38 -15.5
s-27.5 5 -37.5 15s-15 22.5 -15 37.5s5 27.667 15 38s22.333 15.5 37 15.5z" />
    <glyph glyph-name="uni0935" unicode="&#x935;" horiz-adv-x="574" 
d="M596 642l-0.000976562 -67h-116v-575h-78v166c-34.667 -50 -88 -75 -160 -75c-53.333 0 -99.166 17.167 -137.499 51.5s-57.5 79.833 -57.5 136.5s18.5 103.167 55.5 139.5s84.5 54.5 142.5 54.5c24.667 0 45.667 -2.66699 63 -8v-69c-16.667 6 -36.334 9 -59.001 9
c-35.333 0 -64.666 -11.167 -87.999 -33.5s-35 -52.333 -35 -90s11.833 -68.167 35.5 -91.5s53.167 -35 88.5 -35c46.667 0 83.667 15.667 111 47s41 68.333 41 111v262h-424v67h618z" />
    <glyph glyph-name="uni0936" unicode="&#x936;" horiz-adv-x="668" 
d="M495 642h195v-67h-116v-575h-79v642zM73 506c0 38 13 70.3291 39 96.9961s62.667 40 110 40s86 -16.833 116 -50.5s45 -74.5 45 -122.5c0 -67.333 -22.5 -119.833 -67.5 -157.5s-97.833 -56.5 -158.5 -56.5h-33l230 -256h-103l-221 253v70h99
c55.333 0 98.5 12.833 129.5 38.5s46.5 58.834 46.5 99.501s-7.83301 69.834 -23.5 87.501s-36 26.5 -61 26.5s-43.333 -7.16699 -55 -21.5s-17.5 -32.166 -17.5 -53.499s5 -40.666 15 -57.999h-77c-8.66699 18 -13 39.333 -13 64z" />
    <glyph glyph-name="uni0937" unicode="&#x937;" horiz-adv-x="580" 
d="M602 642l0.000976562 -67h-116v-575h-78v229c-32.667 -38 -78.334 -57.667 -137.001 -59c-60 0 -107.5 16.5 -142.5 49.5s-52.5 83.5 -52.5 151.5v204h-98v67h624zM153.001 374c0 -46.667 11.168 -81.667 33.501 -105s54.666 -35 96.999 -35s75.5 18 99.5 54l-230 223
v-137zM408.002 373v201.999h-248l244 -240c2.66699 10.667 4 23.334 4 38.001z" />
    <glyph glyph-name="uni0938" unicode="&#x938;" horiz-adv-x="635" 
d="M657 642v-67h-115v-575h-78v265h-168c-74 0 -130.667 3 -170 9l184 -274h-95l-187 282v62h66c38 0 63.833 7.5 77.5 22.5s20.5 38.833 20.5 71.5v137h-214v67h679zM464 333v242h-194v-143c0 -42 -9 -75 -27 -99h221z" />
    <glyph glyph-name="uni0939" unicode="&#x939;" horiz-adv-x="530" 
d="M440 418l-240.001 -0.00292969c-37.333 0 -56 -15 -56 -45c0 -17.333 4.66699 -32.833 14 -46.5s20.333 -23.5 33 -29.5c28 10 60.333 15 97 15c54.667 0 96.667 -13.167 126 -39.5s44 -57.833 44 -94.5c0 -22 -3.66699 -40.667 -11 -56h-77
c9.33301 12.667 14 29.834 14 51.501s-8.16699 39.334 -24.5 53.001s-43.5 20.5 -81.5 20.5s-69.333 -9.66699 -94 -29s-37 -44.166 -37 -74.499s14.333 -56 43 -77s67.834 -31.5 117.501 -31.5s95.834 6 138.501 18v-67c-46 -11.333 -89.667 -17 -131 -17
c-78.667 0 -139.334 18 -182.001 54s-64 77.833 -64 125.5s21 87.167 63 118.5c-44.667 29.333 -67 68 -67 116c0 32 11.333 56.667 34 74s52 26 88 26h176v92h-385v67h575v-67h-113v-157z" />
    <glyph glyph-name="uni093C" unicode="&#x93c;" 
d="M-326 -128c0 14.667 4.99902 27.167 14.999 37.5s22.333 15.5 37 15.5s27.334 -5.16699 38.001 -15.5s16 -22.833 16 -37.5s-5.16699 -27 -15.5 -37s-23 -15 -38 -15s-27.5 5 -37.5 15s-15 22.333 -15 37z" />
    <glyph glyph-name="uni093D" unicode="&#x93d;" horiz-adv-x="453" 
d="M380 47c-34.667 -33.333 -89 -50 -163 -50s-140.333 17.667 -199 53v83c67.333 -44 137.666 -66 210.999 -66c40.667 0 71.5 9.5 92.5 28.5s31.5 41 31.5 66s-11.5 49.5 -34.5 73.5s-50.833 46.333 -83.5 67l-97.5 63c-32.333 21.333 -60 46 -83 74
s-34.5 58.5 -34.5 91.5s11.333 59.833 34 80.5s54 31 94 31h257v-70h-248c-37.333 0 -56 -16.333 -56 -49c0 -18 11.333 -37.167 34 -57.5s50.167 -40.833 82.5 -61.5l97.5 -65.5c32.667 -23 60.334 -49.5 83.001 -79.5s34 -61 34 -93c0 -46 -17.333 -85.667 -52 -119z" />
    <glyph glyph-name="uni093E" unicode="&#x93e;" horiz-adv-x="266" 
d="M-22 575v67h310v-67h-116v-575h-78v575h-116z" />
    <glyph glyph-name="uni093F" unicode="&#x93f;" horiz-adv-x="265" 
d="M465 796c-70.667 20 -127.331 30 -169.998 30s-73.834 -9.66699 -93.501 -29s-29.5 -46 -29.5 -80v-75h115v-67h-115v-575h-78v575h-116v67h116v76c0 54 16.667 97.333 50 130s79.666 49 138.999 49c116 0 240.667 -36.333 374 -109v-75
c-57.333 35.333 -121.333 63 -192 83z" />
    <glyph glyph-name="uni0940" unicode="&#x940;" horiz-adv-x="265" 
d="M171 642h116.002v-67h-115v-575h-78v575h-116v67h114v84c0 32.667 -8.83301 57.667 -26.5 75s-40.834 26 -69.501 26s-51.334 -8.5 -68.001 -25.5s-25 -42.167 -25 -75.5v-18h-78v20c0 56 16.167 98 48.5 126s73.333 42 123 42s91.167 -14 124.5 -42s50 -70 50 -126v-86z
" />
    <glyph glyph-name="uni0941" unicode="&#x941;" 
d="M-306.5 -155.5c49.667 -28.333 93.667 -42.501 132 -42.501s66.166 7.16699 83.499 21.5s26 32.5 26 54.5s-7 38.833 -21 50.5s-34.167 17.5 -60.5 17.5s-57.833 -11 -94.5 -33v71c36.667 17.333 69.667 26 99 26c51.333 0 89.833 -12 115.5 -36s38.5 -56.5 38.5 -97.5
s-15.833 -74.667 -47.5 -101s-72.167 -39.5 -121.5 -39.5s-98.833 11.333 -148.5 34s-89.167 47.667 -118.5 75v89c28.667 -31.333 67.834 -61.166 117.501 -89.499z" />
    <glyph glyph-name="uni0942" unicode="&#x942;" 
d="M-138 -255c-42.667 0 -77.999 11.8301 -105.999 35.4971s-42 55.334 -42 95.001s13.833 72.334 41.5 98.001s63 38.5 106 38.5s80.5 -9.66699 112.5 -29s56.667 -44.666 74 -75.999c32.667 -60.667 49 -124.667 49 -192h-73c0 62 -13.667 116.167 -41 162.5
s-66 69.5 -116 69.5c-22.667 0 -41 -6.33301 -55 -19s-21 -29.667 -21 -51s7.83301 -38 23.5 -50s32.667 -18 51 -18s31.166 1.66699 38.499 5v-64c-10.667 -3.33301 -24.667 -5 -42 -5z" />
    <glyph glyph-name="uni0943" unicode="&#x943;" 
d="M-265.5 -238.5c-28.333 25 -42.498 57.334 -42.498 97.001s13 72 39 97s58.333 38.167 97 39.5v14h78v-73h-48c-27.333 0 -48.833 -6.83301 -64.5 -20.5s-23.5 -31.834 -23.5 -54.501s6.66699 -40.667 20 -54s33.666 -20 60.999 -20s51.666 7.33301 72.999 22v-64
c-21.333 -14 -47.333 -21 -78 -21c-46 0 -83.167 12.5 -111.5 37.5z" />
    <glyph glyph-name="uni0945" unicode="&#x945;" 
d="M-6.5 780c-34.333 -27.333 -76.832 -41 -127.499 -41s-92.834 13.333 -126.501 40s-50.5 65.667 -50.5 117h78c0 -28 8.66699 -50.833 26 -68.5s42 -26.5 74 -26.5s56.833 9 74.5 27s26.5 40.667 26.5 68h77c0 -50 -17.167 -88.667 -51.5 -116z" />
    <glyph glyph-name="uni0946" unicode="&#x946;" 
d="M-301 802h53.999c102 0 153 -53.667 153 -161h-78c-0.666992 30 -6.66699 53.333 -18 70s-31.333 25 -60 25h-55c-52 0 -91.833 12 -119.5 36s-41.5 65.333 -41.5 124h78c0 -34.667 6.83301 -59 20.5 -73s35.834 -21 66.501 -21z" />
    <glyph glyph-name="uni0947" unicode="&#x947;" 
d="M-352 887c34 0 63 -7.16797 87 -21.501s46 -37.166 66 -68.499l107 -162h-86l-87 132c-22.667 34.667 -53 52 -91 52c-13.333 0 -30 -2 -50 -6v68c24 4 42 6 54 6z" />
    <glyph glyph-name="uni0948" unicode="&#x948;" 
d="M-283 696c-25.333 12.667 -50.335 19 -75.002 19s-46 -3 -64 -9v70c16 5.33301 36 8 60 8s47 -5.5 69 -16.5s47.667 -29.167 77 -54.5l62 -55l-92 118c-29.333 37.333 -68.666 56 -117.999 56c-20 0 -39.333 -2.33301 -58 -7v68c12 4 32.333 6 61 6
c71.333 0 127.333 -31.667 168 -95l109 -169h-105c-37.333 28 -68.666 48.333 -93.999 61z" />
    <glyph glyph-name="uni0949" unicode="&#x949;" horiz-adv-x="266" 
d="M256.5 780c-34.333 -27.333 -76.832 -41 -127.499 -41s-92.834 13.333 -126.501 40s-50.5 65.667 -50.5 117h77c0 -27.333 8.83301 -50 26.5 -68s42.5 -27 74.5 -27s56.667 8.83301 74 26.5s26 40.5 26 68.5h78c0 -50 -17.167 -88.667 -51.5 -116zM-21.999 575v67h310
v-67h-116v-575h-78v575h-116z" />
    <glyph glyph-name="uni094A" unicode="&#x94a;" horiz-adv-x="265" 
d="M171 642h115.999v-67h-116v-575h-77v575h-116v67h115c-0.666992 30 -6.66699 53.167 -18 69.5s-31.333 24.5 -60 24.5h-55c-52 0 -91.833 12 -119.5 36s-41.5 65.333 -41.5 124h78c0 -34.667 6.83301 -59 20.5 -73s35.834 -21 66.501 -21h54c102 0 153 -53.333 153 -160z
" />
    <glyph glyph-name="uni094B" unicode="&#x94b;" horiz-adv-x="265" 
d="M287 642v-67.001h-116v-575h-77v575h-116v67h105l-82 125c-22.667 34.667 -53 52 -91 52c-13.333 0 -30 -2 -50 -6v68c24 4 42 6 54 6c34 0 63 -7.16699 87 -21.5s46 -37.166 66 -68.499l102 -155h118z" />
    <glyph glyph-name="uni094C" unicode="&#x94c;" horiz-adv-x="265" 
d="M287 642l-0.000976562 -67h-115v-575h-78v575h-116v67h88c-33.333 25.333 -62.5 43.833 -87.5 55.5s-49.5 17.5 -73.5 17.5s-45 -3 -63 -9v70c16 5.33301 36 8 60 8s47 -5.5 69 -16.5s47.667 -29.167 77 -54.5l62 -55l-92 118c-29.333 37.333 -68.666 56 -117.999 56
c-20 0 -39.333 -2.33301 -58 -7v68c12 4 32.333 6 61 6c71.333 0 127.333 -31.667 168 -95l104 -162h112z" />
    <glyph glyph-name="uni094D" unicode="&#x94d;" 
d="M58 -233h-97l-123 165h80z" />
    <glyph glyph-name="uni0950" unicode="&#x950;" horiz-adv-x="1235" 
d="M810 556.5c-34.667 -27 -77.5 -40.501 -128.5 -40.501s-93.667 13.333 -128 40s-51.5 65.334 -51.5 116.001h77c0 -27.333 9.16699 -49.833 27.5 -67.5s43.5 -26.5 75.5 -26.5s57 8.83301 75 26.5s27 40.167 27 67.5h78c0 -50 -17.333 -88.5 -52 -115.5zM631 726.999
c0 14.667 5 27 15 37s22.333 15 37 15s27 -5 37 -15s15 -22.333 15 -37s-5 -26.834 -15 -36.501s-22.333 -14.5 -37 -14.5s-27 4.83301 -37 14.5s-15 21.834 -15 36.501zM705.5 82.499c-27 -25 -59.165 -37.499 -96.498 -37.499s-67.5 8 -90.5 24s-40.167 35 -51.5 57
c-7.33301 -34 -28 -63.5 -62 -88.5s-79.667 -37.5 -137 -37.5s-110 14.333 -158 43v79c51.333 -36.667 107.666 -55 168.999 -55c38 0 68 10 90 30s33 45 33 75s-10.833 53.167 -32.5 69.5s-53.5 24.5 -95.5 24.5h-54v67h35c39.333 0 68.666 9 87.999 27s29 41.833 29 71.5
s-9 53.334 -27 71.001s-42.333 26.5 -73 26.5c-46.667 0 -89 -13 -127 -39v70c39.333 24.667 84.666 37 135.999 37s92.333 -15 123 -45s46 -67.333 46 -112c0 -32 -7.16699 -59.167 -21.5 -81.5s-32.833 -38.166 -55.5 -47.499c40.667 -2 75.334 -27.333 104.001 -76
c23.333 -41.333 39.166 -67.333 47.499 -78s15.5 -18.334 21.5 -23.001c16.667 -12 35.834 -18 57.501 -18s42.5 11.333 62.5 34c19.333 23.333 40.666 56.5 63.999 99.5s36.833 67.5 40.5 73.5l19 32c9 15.333 16.167 26.166 21.5 32.499l22.5 27
c9.66699 11.667 18.334 20 26.001 25l26.5 16.5c18 11.333 40.333 17 67 17c52 0 93.833 -19.5 125.5 -58.5s47.5 -88.833 47.5 -149.5s-17.167 -112.667 -51.5 -156s-80.5 -65 -138.5 -65c-34.667 0 -64.667 5.66699 -90 17v73c24.667 -15.333 53.667 -23 87 -23
s60.833 14 82.5 42s32.5 62.833 32.5 104.5s-7.83301 76.167 -23.5 103.5s-36.834 41 -63.501 41s-51.667 -13.833 -75 -41.5s-58.666 -85.834 -105.999 -174.501c-22.667 -44 -47.5 -78.5 -74.5 -103.5z" />
    <glyph glyph-name="uni0951" unicode="&#x951;" 
d="M-168 918h69v-220h-69v220z" />
    <glyph glyph-name="uni0952" unicode="&#x952;" 
d="M-92 -219h-493v60h493v-60z" />
    <glyph glyph-name="uni0953" unicode="&#x953;" 
d="M-286 870l54 44l141 -169l-53 -44z" />
    <glyph glyph-name="uni0954" unicode="&#x954;" 
d="M-43 914l53 -44l-142 -169l-53 44z" />
    <glyph glyph-name="uni0915093C" unicode="&#x958;" horiz-adv-x="771" 
d="M793 575l-368.003 -0.000976562v-143c30.667 32 71.5 48 122.5 48s93.5 -16.667 127.5 -50s51 -78 51 -134s-19 -101.333 -57 -136s-85.333 -52 -142 -52c-7.33301 0 -15 0.666992 -23 2v67c6.66699 -1.33301 13.334 -2 20.001 -2c35.333 0 64.666 11 87.999 33
s35 51.167 35 87.5s-10.5 65.333 -31.5 87s-47.333 32.5 -79 32.5s-58.167 -10.167 -79.5 -30.5s-32 -45.833 -32 -76.5v-308h-79v144c-29.333 -30.667 -69.666 -46 -120.999 -46s-94 16.5 -128 49.5s-51 77.5 -51 133.5s19 101.5 57 136.5s85 52.5 141 52.5
c10.667 0 18.334 -1 23.001 -3v-66c-3.33301 0.666992 -9.66602 1 -18.999 1c-36 0 -65.667 -11 -89 -33s-35 -51 -35 -87s10.667 -65 32 -87s47.833 -33 79.5 -33s58 10.333 79 31s31.5 46.334 31.5 77.001v305h-368v67h815v-67zM153.997 12.999
c14.667 0 27.333 -5.16699 38 -15.5s16 -22.833 16 -37.5s-5.16699 -27 -15.5 -37s-23 -15 -38 -15s-27.5 5 -37.5 15s-15 22.333 -15 37s5 27.167 15 37.5s22.333 15.5 37 15.5z" />
    <glyph glyph-name="uni0916093C" unicode="&#x959;" horiz-adv-x="779" 
d="M801 642l0.00390625 -67h-115v-575h-79v180c-30.667 -31.333 -69.834 -47 -117.501 -47s-87.834 15.333 -120.501 46s-49 71 -49 121s16.333 90.167 49 120.5s72.667 45.5 120 45.5c16.667 0 32.667 -1.66699 48 -5v-65c-10.667 3.33301 -23.334 5 -38.001 5
c-28.667 0 -52.834 -9.66699 -72.501 -29s-29.5 -44.333 -29.5 -75s9.5 -55.167 28.5 -73.5s43.5 -27.5 73.5 -27.5s55.5 10.167 76.5 30.5s31.5 46.833 31.5 79.5v269h-309v-142c0 -47.333 -14.833 -84.333 -44.5 -111s-69.167 -41 -118.5 -43l-12 -1l220 -278h-97
l-215 279v65h67c81.333 0 122 32.333 122 97v134h-242v67h823zM74.0039 19c14.667 0 27.333 -5.16699 38 -15.5s16 -22.833 16 -37.5s-5.16699 -27 -15.5 -37s-23 -15 -38 -15s-27.5 5 -37.5 15s-15 22.333 -15 37s5 27.167 15 37.5s22.333 15.5 37 15.5z" />
    <glyph glyph-name="uni0917093C" unicode="&#x95a;" horiz-adv-x="574" 
d="M-22 642h617.999v-67h-116v-575h-77v575h-175v-234c0 -42 -10.667 -74.5 -32 -97.5s-52.333 -34.5 -93 -34.5c-27.333 0 -51.666 4.33301 -72.999 13v69c20 -9.33301 40.333 -14 61 -14c40 0 60 22.333 60 67v231h-173v67zM128.999 83
c14.667 0 27.332 -5.16699 37.999 -15.5s16 -22.833 16 -37.5s-5.16699 -27 -15.5 -37s-23.166 -15 -38.499 -15s-27.833 5 -37.5 15s-14.5 22.333 -14.5 37s5 27.167 15 37.5s22.333 15.5 37 15.5z" />
    <glyph glyph-name="uni091C093C" unicode="&#x95b;" horiz-adv-x="650" 
d="M-22 642h693.999v-67h-116v-575h-78v384h-201c48 -28.667 72 -75.667 72 -141c0 -54 -18.167 -97.5 -54.5 -130.5s-84.5 -49.5 -144.5 -49.5c-44 0 -84 7.33301 -120 22v72c36 -18.667 73.333 -28 112 -28s69.834 10.5 93.501 31.5s35.5 52 35.5 93s-15.5 73 -46.5 96
s-73.833 34.5 -128.5 34.5v67h382v124h-500v67zM153.999 -33c14.667 0 27.333 -5.16699 38 -15.5s16 -22.833 16 -37.5s-5.16699 -27 -15.5 -37s-23 -15 -38 -15s-27.5 5 -37.5 15s-15 22.333 -15 37s5 27.167 15 37.5s22.333 15.5 37 15.5z" />
    <glyph glyph-name="uni0921093C" unicode="&#x95c;" horiz-adv-x="521" 
d="M399 424h-173.999c-24 0 -44 -5 -60 -15s-24 -26.167 -24 -48.5s10 -38.666 30 -48.999s55 -16.833 105 -19.5c120 -3.33301 180 -49.333 180 -138c-0.666992 -46 -19.167 -83.333 -55.5 -112s-87.833 -43 -154.5 -43s-127.667 14.667 -183 44v77
c59.333 -36.667 122.666 -55 189.999 -55c38 0 68 7.66699 90 23s33 36.166 33 62.499s-10 45.166 -30 56.499s-53.333 18 -100 20c-122.667 5.33301 -184 49.333 -184 132c0 42.667 15 75.334 45 98.001s68.333 34 115 34h99v84h-343v67h565v-67h-144v-151zM248.001 -83
c14.667 0 27.333 -5.16699 38 -15.5s16 -22.833 16 -37.5s-5.16699 -27 -15.5 -37s-23 -15 -38 -15s-27.5 5 -37.5 15s-15 22.333 -15 37s5 27.167 15 37.5s22.333 15.5 37 15.5z" />
    <glyph glyph-name="uni0922093C" unicode="&#x95d;" horiz-adv-x="556" 
d="M247 -128c0 14.667 4.99805 27.167 14.998 37.5s22.333 15.5 37 15.5s27.334 -5.16699 38.001 -15.5s16 -22.833 16 -37.5s-5.16699 -27 -15.5 -37s-23.166 -15 -38.499 -15s-27.833 5 -37.5 15s-14.5 22.333 -14.5 37zM265.998 277c28 14 61.835 21 101.502 21
s71.834 -11.5 96.501 -34.5s37 -54.667 37 -95s-18.333 -75 -55 -104s-87.834 -43.5 -153.501 -43.5s-121.834 20.5 -168.501 61.5s-70 94.167 -70 159.5s23.167 119.333 69.5 162s107.833 64.334 184.5 65.001c14.667 0 29.667 -1 45 -3v109h-375v67h600v-67h-146v-183
c-41.333 6.66699 -75.333 10 -102 10c-60.667 0 -108.5 -14.833 -143.5 -44.5s-52.5 -67.834 -52.5 -114.501s15.5 -84.5 46.5 -113.5s71.167 -43.5 120.5 -43.5c35.333 0 64.666 7.83301 87.999 23.5s35 37.167 35 64.5c0 18 -6.66699 32.667 -20 44s-33.333 17 -60 17
s-52.667 -7.66699 -78 -23v65z" />
    <glyph glyph-name="uni092B093C" unicode="&#x95e;" horiz-adv-x="791" 
d="M813 575l-353.001 -0.00195312v-138c30 31.333 70.667 47 122 47s93.833 -16.667 127.5 -50s50.5 -78 50.5 -134s-19 -101.167 -57 -135.5s-85 -51.5 -141 -51.5c-12 0 -20 0.666992 -24 2v67c8 -1.33301 14.667 -2 20 -2c36 0 65.5 10.833 88.5 32.5
s34.5 50.834 34.5 87.501s-10.5 65.834 -31.5 87.501s-47.167 32.5 -78.5 32.5s-57.666 -10.5 -78.999 -31.5s-32 -47.167 -32 -78.5v-310h-79v238c-30.667 -38.667 -75.5 -58.167 -134.5 -58.5s-103.5 14.5 -133.5 44.5s-45 79 -45 147v204h-90v67h835v-67z
M380.999 381.998v193.001h-234v-201c0 -47.333 8.5 -80.833 25.5 -100.5s43.5 -29.5 79.5 -29.5s66.5 12.167 91.5 36.5s37.5 58.166 37.5 101.499zM139.999 66.999c14.667 0 27.333 -5.16699 38 -15.5s16 -22.833 16 -37.5s-5.16699 -27 -15.5 -37s-23 -15 -38 -15
s-27.5 5 -37.5 15s-15 22.333 -15 37s5 27.167 15 37.5s22.333 15.5 37 15.5z" />
    <glyph glyph-name="uni092F093C" unicode="&#x95f;" horiz-adv-x="625" 
d="M99.5 -46.5c-9.66699 9.66699 -14.502 22 -14.502 37s5 27.667 15 38s22.333 15.5 37 15.5s27.334 -5.16699 38.001 -15.5s16 -22.833 16 -37.5s-5.16699 -27 -15.5 -37s-23.166 -15 -38.499 -15s-27.833 4.83301 -37.5 14.5zM197.998 227.5
c28 -23.667 63.5 -35.498 106.5 -35.498s78.667 12.833 107 38.5s42.5 60.167 42.5 103.5v241h-187c16.667 -25.333 25 -56.333 25 -93c0 -78.667 -49.333 -133.334 -148 -164.001c8 -36.667 26 -66.834 54 -90.501zM291.998 125.002c-62 0 -115.167 21.166 -159.5 63.499
s-71.5 101.833 -81.5 178.5c53.333 8 93.833 22.667 121.5 44s41.5 47.833 41.5 79.5s-10.333 59.834 -31 84.501h-205v67h669v-67h-115v-575h-78v194c-34 -46 -88 -69 -162 -69z" />
    <glyph glyph-name="uni0960" unicode="&#x960;" horiz-adv-x="715" 
d="M410 575l0.000976562 -244.999l103 56v79h77v-62c0 -30 4.83301 -56.333 14.5 -79s20.167 -39.667 31.5 -51c32 -30.667 48 -63.667 48 -99c0.666992 -45.333 -13.333 -79.5 -42 -102.5s-66.334 -34.5 -113.001 -34.5c-11.333 0 -23.333 1 -36 3l1 73
c12 -3.33301 26.333 -5 43 -5s32.5 5.66699 47.5 17s22.5 27.666 22.5 48.999s-11.5 45 -34.5 71s-37.833 49.333 -44.5 70l-118 -64v-251h-78v215l-266 -145v85l184 97c-13.333 42.667 -30.833 74.5 -52.5 95.5s-51.5 31.5 -89.5 31.5c-14.667 0 -31.667 -2.66699 -51 -8
v76c17.333 4 36 6 56 6c101.333 0 169.333 -55.667 204 -167l15 8v281h-354v67h759v-67h-327z" />
    <glyph glyph-name="uni0961" unicode="&#x961;" horiz-adv-x="778" 
d="M679 575l0.000976562 -274.998c0 -42.667 -13 -79.334 -39 -110.001c-11.333 -13.333 -22.666 -25.333 -33.999 -36c-26 -26.667 -39 -50.334 -39 -71.001s7.33301 -36.834 22 -48.501s34.667 -17.5 60 -17.5h27v-66h-51c-24.667 0 -43.5 -6.5 -56.5 -19.5
s-19.5 -30 -19.5 -51s7.33301 -39.167 22 -54.5s34.167 -23 58.5 -23s51.166 5.66699 80.499 17v-70c-24.667 -9.33301 -51.334 -14 -80.001 -14c-47.333 0 -86.166 13.333 -116.499 40s-45.5 61 -45.5 103c0 26.667 6.83301 49.667 20.5 69s31.167 33.333 52.5 42
c-35.333 19.333 -53 49.333 -53 90c0 22 5.83301 42.333 17.5 61s24.5 34 38.5 46s26.833 27.833 38.5 47.5s17.5 41.5 17.5 65.5v119h-74c-42 0 -72 -10.167 -90 -30.5s-27 -55.166 -27 -104.499v-54h-79v55c0 90.667 -32.667 136 -98 136
c-34.667 0 -62.167 -12.5 -82.5 -37.5s-30.5 -60.833 -30.5 -107.5c0 -122.667 54.333 -194.667 163 -216l-2 -68c-74.667 12.667 -133.334 43 -176.001 91s-64 112.667 -64 194c0 62 16.5 112.5 49.5 151.5s78.5 58.5 136.5 58.5c75.333 0 123.333 -31 144 -93
c18 60 68.667 90 152 90h78v91h-615v67h800v-67h-106z" />
    <glyph glyph-name="uni0964" unicode="&#x964;" horiz-adv-x="343" 
d="M160 0v642h79v-642h-79z" />
    <glyph glyph-name="uni0965" unicode="&#x965;" horiz-adv-x="560" 
d="M377 0v642h78v-642h-78zM160 0v642h79v-642h-79z" />
    <glyph glyph-name="uni0966" unicode="&#x966;" horiz-adv-x="539" 
d="M122 329c0 -82 13.833 -146.167 41.5 -192.5s63.334 -69.5 107.001 -69.5s79.167 22.667 106.5 68s41 109.833 41 193.5s-14.167 147.667 -42.5 192s-63.333 66.5 -105 66.5s-76.834 -22.5 -105.501 -67.5s-43 -108.5 -43 -190.5zM102.5 84
c-41 61.333 -61.5 143.167 -61.5 245.5s20.667 183.333 62 243s96.666 89.5 165.999 89.5s125 -29.833 167 -89.5s63 -140.5 63 -242.5s-20.167 -183.833 -60.5 -245.5s-96.166 -92.5 -167.499 -92.5s-127.5 30.667 -168.5 92z" />
    <glyph glyph-name="uni0967" unicode="&#x967;" horiz-adv-x="357" 
d="M273 654v-654h-78v568l-151 -93v85l155 94h74z" />
    <glyph glyph-name="uni0968" unicode="&#x968;" horiz-adv-x="505" 
d="M457 69v-68.999h-413v67c206.667 156 310 286 310 390c0 41.333 -12 73.166 -36 95.499s-59 33.5 -105 33.5s-95.333 -19.667 -148 -59v79c47.333 36.667 101 55 161 55s110 -17 150 -51s60 -82.333 60 -145c0 -118 -94.333 -250 -283 -396h304z" />
    <glyph glyph-name="uni0969" unicode="&#x969;" horiz-adv-x="491" 
d="M213 661c65.333 0 115.833 -16.502 151.5 -49.502s53.5 -73.833 53.5 -122.5c0 -35.333 -8.83301 -67 -26.5 -95s-43.834 -49 -78.501 -63c38 -8.66699 68.167 -26.167 90.5 -52.5s33.5 -59.166 33.5 -98.499c0 -53.333 -18.667 -97.666 -56 -132.999
s-88.666 -53 -153.999 -53s-121 11 -167 33v79c49.333 -26 99.166 -39 149.499 -39s87.333 11 111 33s35.5 50.667 35.5 86s-13.167 62.5 -39.5 81.5s-64.166 28.5 -113.499 28.5h-42v69h42c37.333 0 68.833 10.5 94.5 31.5s38.5 49.167 38.5 84.5s-11 62 -33 80
s-54 27 -96 27s-84.667 -13.667 -128 -41v77c40 24.667 84.667 37 134 37z" />
    <glyph glyph-name="uni096A" unicode="&#x96a;" horiz-adv-x="571" 
d="M529 228v-69h-97v-159h-78v159h-299v69l249 426h128v-426h97zM354 228v379l-219 -379h219z" />
    <glyph glyph-name="uni096B" unicode="&#x96b;" horiz-adv-x="528" 
d="M179 585l-0.000976562 -196c30 6.66699 56 10 78 10c66.667 0 119.5 -17.667 158.5 -53s58.5 -84 58.5 -146s-21.167 -112.167 -63.5 -150.5s-98.333 -57.5 -168 -57.5s-127.5 11.333 -173.5 34v78c42.667 -25.333 94.334 -38 155.001 -38c112 0 168 47 168 141
c0 38 -13 67.5 -39 88.5s-61.5 31.5 -106.5 31.5s-93.5 -11.667 -145.5 -35v362h328v-69h-250z" />
    <glyph glyph-name="uni096C" unicode="&#x96c;" horiz-adv-x="525" 
d="M348 600c-59.333 0 -107.166 -23.3311 -143.499 -69.998s-59.5 -104 -69.5 -172c43.333 42 95.166 63 155.499 63s107.666 -19.167 141.999 -57.5s51.5 -89.5 51.5 -153.5s-18.667 -116.833 -56 -158.5s-86.666 -62.5 -147.999 -62.5c-76 0 -133.5 27.167 -172.5 81.5
s-58.5 127.166 -58.5 218.499c0 109.333 26.5 200.666 79.5 273.999s125.833 110 218.5 110c30 0 60.667 -5 92 -15v-77c-28.667 12.667 -59 19 -91 19zM172 115.502c27.333 -35.667 61.501 -53.5 102.501 -53.5s72.5 14.167 94.5 42.5s33 64 33 107s-11 76.833 -33 101.5
s-51 37 -87 37c-62.667 0 -113.334 -22.333 -152.001 -67c0.666992 -76 14.667 -131.833 42 -167.5z" />
    <glyph glyph-name="uni096D" unicode="&#x96d;" horiz-adv-x="500" 
d="M37 654h426v-69l-270 -585h-85l272 585h-343v69z" />
    <glyph glyph-name="uni096E" unicode="&#x96e;" horiz-adv-x="540" 
d="M487 169c0 -53.333 -20.999 -96.1689 -62.999 -128.502s-94 -48.5 -156 -48.5s-113.333 15.5 -154 46.5s-61 72.833 -61 125.5c0 81.333 38.667 135.333 116 162c-70 26 -105 75 -105 147c0 58 20.167 103.833 60.5 137.5s88.166 50.5 143.499 50.5
s103 -16.167 143 -48.5s60 -78.5 60 -138.5c0 -33.333 -9 -62.666 -27 -87.999s-43.333 -44.666 -76 -57.999c79.333 -24.667 119 -77.667 119 -159zM359.001 557.997c-21.333 22 -51.498 33.002 -90.498 33.002s-69.333 -11.333 -91 -34s-32.5 -51.334 -32.5 -86.001
s11.667 -61.334 35 -80.001s53.166 -28 89.499 -28s65.666 9.83301 87.999 29.5s33.5 46.667 33.5 81s-10.667 62.5 -32 84.5zM168.503 92.499c23 -20.333 56.5 -30.499 100.5 -30.499s78 11.167 102 33.5s36 49.333 36 81s-11.5 58.167 -34.5 79.5
s-57.833 32.666 -104.5 33.999c-45.333 -2 -79 -14.333 -101 -37s-33 -50 -33 -82s11.5 -58.167 34.5 -78.5z" />
    <glyph glyph-name="uni096F" unicode="&#x96f;" horiz-adv-x="513" 
d="M195 66c63.333 0 110.166 18.833 140.499 56.5s48.833 94.5 55.5 170.5c-35.333 -39.333 -81.833 -59 -139.5 -59s-106 19.167 -145 57.5s-58.5 88.5 -58.5 150.5s17.667 114.167 53 156.5s84.333 63.5 147 63.5c74 0 130.167 -27.333 168.5 -82s57.5 -123.667 57.5 -207
c0 -120 -22.167 -213.5 -66.5 -280.5s-114.166 -100.5 -209.499 -100.5c-38.667 0 -76.334 6.33301 -113.001 19v78c34.667 -15.333 71.334 -23 110.001 -23zM394 373c0 63.333 -11.499 115.167 -34.499 155.5s-59.167 60.5 -108.5 60.5
c-37.333 0 -66.833 -13.5 -88.5 -40.5s-32.5 -62.167 -32.5 -105.5s12.167 -77.333 36.5 -102s57.166 -37 98.499 -37c50.667 0 93.667 21.333 129 64v5z" />
    <glyph glyph-name="uni0970" unicode="&#x970;" horiz-adv-x="434" 
d="M126 303c0 -24.667 8.66797 -45.834 26.001 -63.501s38.5 -26.5 63.5 -26.5s46.167 8.83301 63.5 26.5s26 38.834 26 63.501s-8.66699 45.667 -26 63s-38.333 26 -63 26s-45.834 -8.66699 -63.501 -26s-26.5 -38.333 -26.5 -63zM103.501 190.5
c-31 31 -46.5 68.333 -46.5 112s15.5 81 46.5 112s68.333 46.5 112 46.5s81 -15.5 112 -46.5s46.5 -68.333 46.5 -112s-15.5 -81 -46.5 -112s-68.333 -46.5 -112 -46.5s-81 15.5 -112 46.5z" />
    <glyph glyph-name="uni097D" unicode="&#x97d;" horiz-adv-x="559" 
d="M264 689c56.667 0 102.166 -14.167 136.499 -42.5s51.5 -68.166 51.5 -119.499c0 -44.667 -19.333 -89 -58 -133l-50 -56c-39.333 -44.667 -59 -94.667 -59 -150v-188h-78v189c0 33.333 5.66699 64.5 17 93.5s25 53.5 41 73.5s32 38.667 48 56
c38.667 42 58 77.667 58 107s-9.33301 53 -28 71s-43 27 -73 27c-58.667 0 -111.667 -16.667 -159 -50v80c16 11.333 39.333 21.166 70 29.499s58.334 12.5 83.001 12.5z" />
    <glyph glyph-name="Wgrave" unicode="&#x1e80;" horiz-adv-x="938" 
d="M432 664h81l74 -240l102 -342c25.333 120.667 69 318 131 592h82l-158 -674h-104l-166 550c-19.333 -74 -72.333 -257.333 -159 -550h-103l-176 674h85l63 -250l83 -339zM403 882l98 -156h-69l-124 156h95z" />
    <glyph glyph-name="wgrave" unicode="&#x1e81;" horiz-adv-x="792" 
d="M181 0l-156 507h84c66 -225.333 106 -368.666 120 -429.999c7.33301 32.667 47.666 176 120.999 430h84l124 -431c8.66699 35.333 51.334 179 128.001 431h81l-160 -507h-97l-48 166l-70 253c-8 -32.667 -46 -172.334 -114 -419.001h-97zM325 716l98 -156h-69l-124 156
h95z" />
    <glyph glyph-name="Wacute" unicode="&#x1e82;" horiz-adv-x="938" 
d="M446 727l99 156h94l-124 -156h-69zM432 664h81l74 -240l102 -342c25.333 120.667 69 318 131 592h82l-158 -674h-104l-166 550c-19.333 -74 -72.333 -257.333 -159 -550h-103l-176 674h85l63 -250l83 -339z" />
    <glyph glyph-name="wacute" unicode="&#x1e83;" horiz-adv-x="792" 
d="M364 560l99 156h94l-124 -156h-69zM181 0l-156 507h84c66 -225.333 106 -368.666 120 -429.999c7.33301 32.667 47.666 176 120.999 430h84l124 -431c8.66699 35.333 51.334 179 128.001 431h81l-160 -507h-97l-48 166l-70 253c-8 -32.667 -46 -172.334 -114 -419.001
h-97z" />
    <glyph glyph-name="Wdieresis" unicode="&#x1e84;" horiz-adv-x="938" 
d="M321 805c0 14.667 5 26.834 15 36.501s22.333 14.5 37 14.5s26.834 -4.83301 36.501 -14.5s14.5 -21.834 14.5 -36.501s-4.83301 -27 -14.5 -37s-21.834 -15 -36.501 -15s-27 5 -37 15s-15 22.333 -15 37zM523 805c0 14.667 4.83301 26.834 14.5 36.501
s21.834 14.5 36.501 14.5s27 -4.83301 37 -14.5s15 -21.834 15 -36.501s-5 -27 -15 -37s-22.333 -15 -37 -15s-26.834 5 -36.501 15s-14.5 22.333 -14.5 37zM432 664h81l74 -240l102 -342c25.333 120.667 69 318 131 592h82l-158 -674h-104l-166 550
c-19.333 -74 -72.333 -257.333 -159 -550h-103l-176 674h85l63 -250l83 -339z" />
    <glyph glyph-name="wdieresis" unicode="&#x1e85;" horiz-adv-x="792" 
d="M240 638c0 14.667 5 26.834 15 36.501s22.333 14.5 37 14.5s26.834 -4.83301 36.501 -14.5s14.5 -21.834 14.5 -36.501s-4.83301 -27 -14.5 -37s-21.834 -15 -36.501 -15s-27 5 -37 15s-15 22.333 -15 37zM442 638c0 14.667 4.83301 26.834 14.5 36.501
s21.834 14.5 36.501 14.5s27 -4.83301 37 -14.5s15 -21.834 15 -36.501s-5 -27 -15 -37s-22.333 -15 -37 -15s-26.834 5 -36.501 15s-14.5 22.333 -14.5 37zM181 0l-156 507h84c66 -225.333 106 -368.666 120 -429.999c7.33301 32.667 47.666 176 120.999 430h84l124 -431
c8.66699 35.333 51.334 179 128.001 431h81l-160 -507h-97l-48 166l-70 253c-8 -32.667 -46 -172.334 -114 -419.001h-97z" />
    <glyph glyph-name="Ygrave" unicode="&#x1ef2;" horiz-adv-x="593" 
d="M336 0l-80.999 0.000976562v250l-229 424h94c104.667 -202.667 163 -319.334 175 -350.001c3.33301 10 62.666 126.667 177.999 350h94l-231 -423v-251zM341.001 727.001h-69l-124 156h95z" />
    <glyph glyph-name="ygrave" unicode="&#x1ef3;" horiz-adv-x="493" 
d="M78 -174c-17.333 0 -31.332 1.66699 -41.999 5v71c10 -2.66699 21.333 -4 34 -4c67.333 0 115 38.333 143 115l-205 494h89l155 -397c5.33301 18.667 51.666 151 138.999 397h85l-183 -494c-26 -68.667 -56.833 -117 -92.5 -145s-76.5 -42 -122.5 -42zM185.001 716
l98 -156h-69l-124 156h95z" />
    <glyph glyph-name="uni200B" unicode="&#x200b;" 
 />
    <glyph glyph-name="uni200C" unicode="&#x200c;" 
d="M24 -230h-47v1041h47v-1041z" />
    <glyph glyph-name="uni200D" unicode="&#x200d;" 
d="M24 -230h-47v865l-69 -73l-33 33l93 93l-95 95l33 33l95 -95l96 95l32 -32l-96 -96l96 -95l-33 -33l-72 75v-865z" />
    <glyph glyph-name="endash" unicode="&#x2013;" horiz-adv-x="540" 
d="M57 237v66h426v-66h-426z" />
    <glyph glyph-name="emdash" unicode="&#x2014;" horiz-adv-x="823" 
d="M57 239v66h709v-66h-709z" />
    <glyph glyph-name="quoteleft" unicode="&#x2018;" horiz-adv-x="180" 
d="M193 695l-84 -224h-98l120 224h62z" />
    <glyph glyph-name="quoteright" unicode="&#x2019;" horiz-adv-x="181" 
d="M12 471l84 224h98l-120 -224h-62z" />
    <glyph glyph-name="quotesinglbase" unicode="&#x201a;" horiz-adv-x="181" 
d="M2 -123l83 224h98l-119 -224h-62z" />
    <glyph glyph-name="quotedblleft" unicode="&#x201c;" horiz-adv-x="324" 
d="M337 695l-83 -224h-95l117 224h61zM193 695l-84 -224h-97l120 224h61z" />
    <glyph glyph-name="quotedblright" unicode="&#x201d;" horiz-adv-x="323" 
d="M12 471l83 224h94l-116 -224h-61zM155 471l85 224h97l-121 -224h-61z" />
    <glyph glyph-name="quotedblbase" unicode="&#x201e;" horiz-adv-x="323" 
d="M3 -123l82 224h95l-116 -224h-61zM146 -123l84 224h97l-120 -224h-61z" />
    <glyph glyph-name="dagger" unicode="&#x2020;" horiz-adv-x="523" 
d="M482 503v-69h-188v-434h-72v434h-180v69h180v171h72v-171h188z" />
    <glyph glyph-name="daggerdbl" unicode="&#x2021;" horiz-adv-x="530" 
d="M485 434h-188v-184h188v-69h-188v-181h-72v181h-180v69h180v184h-180v69h180v171h72v-171h188v-69z" />
    <glyph glyph-name="bullet" unicode="&#x2022;" horiz-adv-x="449" 
d="M92 356c0 38 12.499 69.667 37.499 95s56.333 38 94 38s69.334 -12.833 95.001 -38.5s38.5 -57.167 38.5 -94.5s-12.667 -68.833 -38 -94.5s-56.833 -38.5 -94.5 -38.5s-69.167 12.667 -94.5 38s-38 57 -38 95z" />
    <glyph glyph-name="ellipsis" unicode="&#x2026;" horiz-adv-x="720" 
d="M566 51c0 16.667 5.66699 30.667 17 42s25.333 17 42 17s30.667 -5.66699 42 -17s17 -25.333 17 -42s-5.66699 -30.667 -17 -42s-25.333 -17 -42 -17s-30.667 5.66699 -42 17s-17 25.333 -17 42zM301 51c0 16.667 5.66699 30.667 17 42s25.333 17 42 17
s30.667 -5.66699 42 -17s17 -25.333 17 -42s-5.66699 -30.667 -17 -42s-25.333 -17 -42 -17s-30.667 5.66699 -42 17s-17 25.333 -17 42zM36 51c0 16.667 5.66699 30.667 17 42s25.333 17 42 17s30.667 -5.66699 42 -17s17 -25.333 17 -42s-5.66699 -30.667 -17 -42
s-25.333 -17 -42 -17s-30.667 5.66699 -42 17s-17 25.333 -17 42z" />
    <glyph glyph-name="perthousand" unicode="&#x2030;" horiz-adv-x="1212" 
d="M935 151c0 -24.667 8.83301 -45.667 26.5 -63s38.834 -26 63.501 -26s45.667 8.66699 63 26s26 38.333 26 63s-8.66699 45.834 -26 63.501s-38.333 26.5 -63 26.5s-45.834 -8.83301 -63.501 -26.5s-26.5 -38.834 -26.5 -63.501zM866 151
c0 43.333 15.5 80.666 46.5 111.999s68.333 47 112 47s81 -15.667 112 -47s46.5 -68.666 46.5 -111.999s-15.5 -80.5 -46.5 -111.5s-68.333 -46.5 -112 -46.5s-81 15.5 -112 46.5s-46.5 68.167 -46.5 111.5zM547 151c0 -24.667 8.66602 -45.667 25.999 -63
s38.333 -26 63 -26s45.834 8.66699 63.501 26s26.5 38.333 26.5 63s-8.66699 45.834 -26 63.501s-38.5 26.5 -63.5 26.5s-46.167 -8.83301 -63.5 -26.5s-26 -38.834 -26 -63.501zM113.999 515c0 -24.667 8.66699 -45.834 26 -63.501s38.333 -26.5 63 -26.5
s45.834 8.83301 63.501 26.5s26.5 38.834 26.5 63.501s-8.83301 45.667 -26.5 63s-38.834 26 -63.501 26s-45.667 -8.66699 -63 -26s-26 -38.333 -26 -63zM91.499 402.5c-31 31 -46.5 68.333 -46.5 112s15.5 81 46.5 112s68.167 46.5 111.5 46.5s80.666 -15.5 111.999 -46.5
s47 -68.333 47 -112s-15.667 -81 -47 -112s-68.666 -46.5 -111.999 -46.5s-80.5 15.5 -111.5 46.5zM523.999 39.5c-30.667 31 -46 68.332 -46 111.999s15.333 81 46 112s67.834 46.5 111.501 46.5s81 -15.667 112 -47s46.5 -68.666 46.5 -111.999s-15.5 -80.5 -46.5 -111.5
s-68.333 -46.5 -112 -46.5s-80.834 15.5 -111.501 46.5zM201.999 -1.00098l357 666h77l-359 -666h-75z" />
    <glyph glyph-name="guilsinglleft" unicode="&#x2039;" horiz-adv-x="299" 
d="M267 415l-147 -162l147 -162h-87l-151 162l151 162h87z" />
    <glyph glyph-name="guilsinglright" unicode="&#x203a;" horiz-adv-x="297" 
d="M120 415l150 -162l-150 -162h-88l147 162l-147 162h88z" />
    <glyph glyph-name="fraction" unicode="&#x2044;" horiz-adv-x="311" 
d="M20 149l271 413h26l-271 -413h-26z" />
    <glyph glyph-name="foursuperior" unicode="&#x2074;" horiz-adv-x="383" 
d="M352 544v-54h-63v-98h-59v98h-195v54l164 278h90v-278h63zM230 544v227l-134 -227h134z" />
    <glyph glyph-name="Euro" unicode="&#x20ac;" horiz-adv-x="590" 
d="M439 584c-47.333 0 -88.333 -12.833 -123 -38.5s-59.667 -62.167 -75 -109.5h199v-57h-212c-2 -16.667 -3 -34 -3 -52s1 -34.333 3 -49h212v-57h-201c14.667 -49.333 39.5 -87.333 74.5 -114s75.833 -40 122.5 -40s84.667 9 114 27v-78c-30 -16 -74.833 -24 -134.5 -24
s-114 20.5 -163 61.5s-81.833 96.833 -98.5 167.5h-102v57h92c-1.33301 20 -2 37.333 -2 52s1 31 3 49h-93v57h103c18 70.667 51.667 125.667 101 165s107.333 59 174 59c51.333 0 91.333 -7.66699 120 -23v-78c-26.667 16.667 -63.667 25 -111 25z" />
    <glyph glyph-name="uni20B9" unicode="&#x20b9;" horiz-adv-x="541" 
d="M493 674l0.000976562 -67.999h-162c32.667 -25.333 53.667 -60 63 -104h99v-67h-96c-4.66699 -54.667 -27.334 -98.334 -68.001 -131.001s-94.667 -49 -162 -49h-9l204 -255h-100l-198 255v67h98c94.667 0 146.334 37.667 155.001 113h-253v67h249
c-16.667 69.333 -67.334 104 -152.001 104h-97v68h429z" />
    <glyph glyph-name="trademark" unicode="&#x2122;" horiz-adv-x="694" 
d="M2 620v54h232v-54h-85v-290h-60v290h-87zM266 331l26.998 343h78l57 -162l34 -106c14.667 44.667 47.334 134 98.001 268h79l25 -343h-60l-10 155l-4 116c-9.33301 -29.333 -41.666 -117.333 -96.999 -264h-61l-91 264c0 -8.66699 -5 -99 -15 -271h-60z" />
    <glyph glyph-name="uni2126" unicode="&#x2126;" horiz-adv-x="781" 
d="M728 71v-71.001h-293v71c56 10 97.833 39.667 125.5 89s41.5 112.833 41.5 190.5s-18.667 140.5 -56 188.5s-90 72 -158 72s-121 -24 -159 -72s-57 -110.167 -57 -186.5s15.333 -139.833 46 -190.5s73 -81 127 -91v-71h-292v71h157c-82 55.333 -123 146.666 -123 273.999
c0 102.667 27 185.334 81 248.001s127.333 94 220 94s165.667 -31.167 219 -93.5s80 -145.166 80 -248.499c0 -128.667 -39.333 -220 -118 -274h159z" />
    <glyph glyph-name="partialdiff" unicode="&#x2202;" horiz-adv-x="516" 
d="M403 508c44.667 -74.667 67.0029 -152.5 67.0029 -233.5s-19.833 -148.333 -59.5 -202s-96.5 -80.5 -170.5 -80.5c-62.667 0 -111.834 21.167 -147.501 63.5s-53.5 94.5 -53.5 156.5s20.667 112.333 62 151s89.666 58 144.999 58s101 -18.667 137 -56
c-16.667 62.667 -48.334 122.167 -95.001 178.5s-95.667 99.833 -147 130.5h112c55.333 -36 105.333 -91.333 150 -166zM154.503 105c22.333 -26.667 55.001 -39.999 98.001 -39.999s76.833 19.667 101.5 59s37.667 91 39 155c-36.667 48 -84.334 72 -143.001 72
c-38 0 -69 -13 -93 -39s-36 -60.333 -36 -103s11.167 -77.334 33.5 -104.001z" />
    <glyph glyph-name="Delta" unicode="&#x2206;" horiz-adv-x="618" 
d="M587 0h-556v66l224 608h112l220 -608v-66zM118 69h382l-189 543c-22 -58.667 -86.333 -239.667 -193 -543z" />
    <glyph glyph-name="product" unicode="&#x220f;" horiz-adv-x="594" 
d="M520 674v-854h-81v781h-261v-605c0 -120 -51 -180 -153 -180c-24.667 0 -46 3.66699 -64 11v75c17.333 -8 35.333 -12 54 -12c54.667 0 82 32.333 82 97v687h423z" />
    <glyph glyph-name="summation" unicode="&#x2211;" horiz-adv-x="441" 
d="M479 674v-71h-358l178 -359l-178 -373h358v-71h-449v71l179 373l-179 359v71h449z" />
    <glyph glyph-name="minus" unicode="&#x2212;" horiz-adv-x="553" 
d="M57 304v72h440v-72h-440z" />
    <glyph glyph-name="uni2215" unicode="&#x2215;" horiz-adv-x="431" 
d="M83 149l271 413h26l-271 -413h-26z" />
    <glyph glyph-name="uni2219" unicode="&#x2219;" horiz-adv-x="242" 
d="M62 337c0 16.667 5.66699 30.667 17 42s25.333 17 42 17s30.667 -5.66699 42 -17s17 -25.333 17 -42s-5.66699 -30.667 -17 -42s-25.333 -17 -42 -17s-30.667 5.66699 -42 17s-17 25.333 -17 42z" />
    <glyph glyph-name="radical" unicode="&#x221a;" horiz-adv-x="755" 
d="M413 -132c0 6.66699 8.33301 41 25 103s57 197.333 121 406l159 521h83l-332 -1096h-111l-202 552h-123l15 68h171l107 -299c58 -159.333 87 -244.333 87 -255z" />
    <glyph glyph-name="infinity" unicode="&#x221e;" horiz-adv-x="835" 
d="M684.5 275c17.667 18 26.499 41.5 26.499 70.5s-9.33301 53.167 -28 72.5s-44 29 -76 29c-48 0 -95 -34 -141 -102c24.667 -32 47.5 -56.167 68.5 -72.5s46.833 -24.5 77.5 -24.5s54.834 9 72.501 27zM218.999 181c-54 0 -95.832 14.833 -125.499 44.5
s-44.5 69.167 -44.5 118.5s15.833 89.5 47.5 120.5s74.5 46.5 128.5 46.5c39.333 0 74 -10.167 104 -30.5s59.667 -49.5 89 -87.5c60.667 79.333 126 119 196 119c54 0 96.167 -14.667 126.5 -44s45.5 -68.5 45.5 -117.5s-16 -89.5 -48 -121.5s-74.667 -48 -128 -48
c-40.667 0 -75.667 10 -105 30s-59 48.667 -89 86c-29.333 -36 -59.333 -64.333 -90 -85s-66.334 -31 -107.001 -31zM123 348c0 -28.667 9.33301 -52.833 28 -72.5s44 -29.5 76 -29.5c47.333 0 94.666 33.333 141.999 100c-15.333 20 -28.666 36.167 -39.999 48.5
s-26.5 24 -45.5 35s-38.167 16.5 -57.5 16.5c-32.667 0 -58 -9.16699 -76 -27.5s-27 -41.833 -27 -70.5z" />
    <glyph glyph-name="approxequal" unicode="&#x2248;" horiz-adv-x="617" 
d="M426 368c-30.667 0 -69 12.167 -115 36.5s-78 36.5 -96 36.5c-44.667 0 -82.667 -22.667 -114 -68l-51 45c45.333 62 96.333 93 153 93c35.333 0 75.166 -12.167 119.499 -36.5s76.833 -36.5 97.5 -36.5c36.667 0 66.334 19.667 89.001 59l57 -41
c-37.333 -58.667 -84 -88 -140 -88zM426 168c-30.667 0 -68.999 12.167 -114.999 36.5s-78 36.5 -96 36.5c-44.667 0 -82.667 -22.667 -114 -68l-51 45c45.333 62 96.333 93 153 93c35.333 0 75.166 -12.167 119.499 -36.5s76.833 -36.5 97.5 -36.5
c37.333 0 67 19.667 89 59l57 -41c-37.333 -58.667 -84 -88 -140 -88z" />
    <glyph glyph-name="notequal" unicode="&#x2260;" horiz-adv-x="553" 
d="M497 407h-163l-59 -134h222v-68h-253l-39 -88h-56l39 88h-131v68h162l59 134h-221v68h252l39 88h56l-39 -88h132v-68z" />
    <glyph glyph-name="lessequal" unicode="&#x2264;" horiz-adv-x="548" 
d="M492 559v-74l-407 -81l407 -82v-73l-440 97v115zM52 120v68h440v-68h-440z" />
    <glyph glyph-name="greaterequal" unicode="&#x2265;" horiz-adv-x="548" 
d="M57 559l440 -98v-115l-440 -97v73l408 82l-408 81v74zM57 120v68h440v-68h-440z" />
    </font>
</defs>
</svg>
